SplineFontDB: 3.2
FontName: SeriousShannsBold
FullName: Serious Shanns Bold
FamilyName: Serious Shanns Bold
Weight: Bold
Copyright: https://github.com/kaBeech/serious-shanns/blob/main/LICENSE
Version: 6.0.0
ItalicAngle: 0
UnderlinePosition: 0
UnderlineWidth: 0
Ascent: 800
Descent: 200
InvalidEm: 0
sfntRevision: 0x00003333
LayerCount: 2
Layer: 0 0 "Back" 1
Layer: 1 0 "Fore" 0
XUID: [1021 45 630387186 1689187]
StyleMap: 0x0040
FSType: 4
OS2Version: 3
OS2_WeightWidthSlopeOnly: 0
OS2_UseTypoMetrics: 0
CreationTime: 1532631502
ModificationTime: 315532800
PfmFamily: 81
TTFWeight: 700
TTFWidth: 5
LineGap: 0
VLineGap: 0
Panose: 0 0 0 0 0 0 0 0 0 0
OS2TypoAscent: 613
OS2TypoAOffset: 0
OS2TypoDescent: -188
OS2TypoDOffset: 0
OS2TypoLinegap: 98
OS2WinAscent: 778
OS2WinAOffset: 0
OS2WinDescent: 308
OS2WinDOffset: 0
HheadAscent: 796
HheadAOffset: 0
HheadDescent: -317
HheadDOffset: 0
OS2SubXSize: 317
OS2SubYSize: 293
OS2SubXOff: 0
OS2SubYOff: 37
OS2SupXSize: 317
OS2SupYSize: 293
OS2SupXOff: 0
OS2SupYOff: 171
OS2StrikeYSize: 0
OS2StrikeYPos: 132
OS2CapHeight: 576
OS2XHeight: 485
OS2Vendor: 'NONE'
OS2CodePages: 00000001.00000000
OS2UnicodeRanges: 00000001.00000000.00000000.00000000
MarkAttachClasses: 1
DEI: 91125
LangName: 1033 "" "" "Normal" "" "" "Version 0.2.0"
Encoding: UnicodeBmp
Compacted: 1
UnicodeInterp: none
NameList: AGL For New Fonts
DisplaySize: -48
AntiAlias: 1
FitToEm: 0
WinInfo: 0 16 14
BeginPrivate: 9
BlueValues 32 [-39 -6 502 523 708 718 765 769]
OtherBlues 11 [-297 -287]
BlueScale 9 0.0291667
BlueShift 1 2
StdHW 5 [110]
StdVW 5 [128]
StemSnapH 5 [110]
StemSnapV 9 [128 134]
ForceBold 4 true
EndPrivate
BeginChars: 65537 105

StartChar: .notdef
Encoding: 65536 -1 0
Width: 670
GlyphClass: 1
Flags: W
HStem: -280 78<187 483> 683 78<187 483>
VStem: 109 78<-202 683> 483 78<-202 683>
LayerCount: 2
Fore
SplineSet
109 -280 m 1
 109 761 l 1
 561 761 l 1
 561 -280 l 1
 109 -280 l 1
187 683 m 1
 187 -202 l 1
 483 -202 l 1
 483 683 l 1
 187 683 l 1
EndSplineSet
EndChar

StartChar: exclam
Encoding: 33 33 1
Width: 670
GlyphClass: 2
Flags: W
HStem: -37.002 179.001<278.347 395.352>
VStem: 241.481 187.037<-3.98231 106.918> 275.479 122.001<248.311 379.795> 283.479 115.001<294.405 784.434>
LayerCount: 2
Fore
SplineSet
405.479492188 738 m 0x90
 405.479492188 732 404.147460938 694.665039062 401.48046875 625.998046875 c 0
 399.48046875 557.331054688 398.48046875 502.331054688 398.48046875 460.998046875 c 0
 398.48046875 441.665039062 398.813476562 421.33203125 399.48046875 399.999023438 c 0
 400.147460938 379.33203125 400.48046875 361.33203125 400.48046875 345.999023438 c 0
 400.48046875 330.666015625 399.813476562 320.333007812 398.48046875 315 c 0x90
 397.813476562 309.666992188 397.48046875 302.666992188 397.48046875 294 c 0xa0
 397.48046875 285.333007812 397.813476562 277.333007812 398.48046875 270 c 0x90
 396.48046875 251.333007812 389.147460938 237 376.48046875 227 c 0
 365.147460938 217.666992188 351.48046875 212.666992188 335.48046875 212 c 2
 331.48046875 212 l 2
 314.813476562 212 301.147460938 218 290.479492188 230 c 0
 280.479492188 240 275.479492188 253.333007812 275.479492188 270 c 0xa0
 275.479492188 278 276.8125 288.333007812 279.479492188 301 c 0
 281.479492188 314.333007812 282.8125 324 283.479492188 330 c 0
 284.147460938 336 284.479492188 346.333007812 284.479492188 361 c 2
 284.479492188 402 l 2
 284.479492188 415.333007812 284.147460938 435.666015625 283.479492188 462.999023438 c 0
 282.147460938 494.999023438 281.479492188 525.666015625 281.479492188 554.999023438 c 2
 281.479492188 623.999023438 l 2
 282.147460938 640.666015625 282.813476562 661.333007812 283.48046875 686 c 0
 284.147460938 710.666992188 284.48046875 727 284.48046875 735 c 1
 285.147460938 756.333007812 291.48046875 773 303.48046875 785 c 0
 314.813476562 796.333007812 329.147460938 802 346.479492188 802 c 2
 349.479492188 802 l 2
 365.479492188 802 378.8125 796.666992188 389.479492188 786 c 0
 400.147460938 775.333007812 405.479492188 759.333007812 405.479492188 738 c 0x90
327.48046875 -37.001953125 m 2
 304.147460938 -37.001953125 284.481445312 -29.0009765625 268.481445312 -13.0009765625 c 0
 250.481445312 5.666015625 241.481445312 27.9990234375 241.481445312 53.9990234375 c 0
 241.481445312 77.9990234375 251.481445312 98.33203125 271.481445312 114.999023438 c 0
 292.1484375 132.999023438 315.1484375 141.999023438 340.481445312 141.999023438 c 0
 365.815429688 141.999023438 386.815429688 133.999023438 403.481445312 117.999023438 c 0
 420.171875 101.30859375 428.518554688 81.2177734375 428.518554688 57.7255859375 c 0xc0
 428.518554688 44.673828125 427.948242188 17.443359375 404.48046875 -7.001953125 c 0
 387.813476562 -23.6689453125 365.813476562 -33.6689453125 338.48046875 -37.001953125 c 2
 327.48046875 -37.001953125 l 2
EndSplineSet
EndChar

StartChar: quotedbl
Encoding: 34 34 2
Width: 670
GlyphClass: 2
Flags: W
VStem: 190.5 122<438.439 586.418> 193.5 127<442.249 783.227> 350.5 130<442.134 783.794>
LayerCount: 2
Fore
SplineSet
480.5 738 m 2x20
 480.5 719 l 2
 480.5 685 480.169921875 641.666992188 479.502929688 589 c 0
 478.169921875 533.666992188 476.169921875 495 473.502929688 473 c 0
 470.8359375 456.333007812 463.16796875 443.666015625 450.501953125 434.999023438 c 0
 439.834960938 426.999023438 428.16796875 422.999023438 415.5 422.999023438 c 0
 398.833984375 422.999023438 383.833984375 427.999023438 370.5 437.999023438 c 0
 357.833984375 447.33203125 351.5 459.999023438 351.5 475.999023438 c 2
 351.5 481.999023438 l 2
 352.833984375 504.666015625 353.5 531.999023438 353.5 563.999023438 c 0
 353.5 631.33203125 352.5 690.999023438 350.5 742.999023438 c 2
 350.5 745.999023438 l 2
 350.5 755.33203125 352.833984375 763.83203125 357.5 771.499023438 c 0
 362.16796875 779.166015625 368.834960938 784.666015625 377.501953125 787.999023438 c 0
 389.501953125 792.666015625 401.501953125 795.333007812 413.501953125 796 c 0
 423.501953125 796 431.66796875 795 438.001953125 793 c 0
 444.334960938 791 450.501953125 788.333007812 456.501953125 785 c 0
 463.834960938 781 469.66796875 774.833007812 474 766.5 c 0
 478.333984375 758.166992188 480.5 748.666992188 480.5 738 c 2x20
320.5 739 m 2x60
 320.5 697 l 2x60
 320.5 677.666992188 319.833984375 641.666992188 318.5 589 c 0
 317.16796875 533.666992188 315.16796875 495 312.5 473 c 0
 309.833984375 456.333007812 302.5 443.666015625 290.5 434.999023438 c 0
 279.833984375 426.999023438 268.166992188 422.999023438 255.5 422.999023438 c 0
 238.83203125 422.999023438 223.5 427.999023438 209.5 437.999023438 c 0
 196.83203125 447.33203125 190.5 459.999023438 190.5 475.999023438 c 0xa0
 190.5 477.999023438 190.83203125 480.33203125 191.5 482.999023438 c 0
 193 502.498046875 193.75 525.185546875 193.75 551.059570312 c 0
 193.75 559.684570312 193.666992188 568.665039062 193.5 577.999023438 c 2
 193.5 611.999023438 l 2
 192.83203125 679.33203125 191.5 724.33203125 189.5 746.999023438 c 0
 189.5 755.666015625 191.83203125 763.666015625 196.5 770.999023438 c 0
 201.83203125 778.999023438 208.5 784.666015625 216.5 787.999023438 c 0
 228.5 792.666015625 240.83203125 795.333007812 253.5 796 c 0
 263.5 796 271.666992188 795 278 793 c 0
 284.33203125 791 290.83203125 788 297.5 784 c 0
 304.166992188 780 309.5 774 313.5 766 c 0
 317.5 758 319.83203125 749 320.5 739 c 2x60
EndSplineSet
EndChar

StartChar: numbersign
Encoding: 35 35 3
Width: 670
GlyphClass: 2
Flags: W
HStem: -13.999 20.9004G<161.333 169.333 387.998 395.998> 179.001 107.003<75.5032 135 283.003 355.999 501 568.621> 433.004 109<114.475 186 332.999 402.003 546 591.404>
LayerCount: 2
Fore
SplineSet
402.002929688 433.00390625 m 1
 312.002929688 433.00390625 l 1
 283.002929688 286.00390625 l 1
 307.002929688 286.670898438 337.669921875 287.001953125 375.002929688 287.001953125 c 1
 384.3359375 334.334960938 393.3359375 383.00390625 402.002929688 433.00390625 c 1
186 431 m 1
 168 430.333007812 158.002929688 430.333007812 156.002929688 431 c 0
 138.002929688 431 124.002929688 435.334960938 114.002929688 444.001953125 c 0
 102.669921875 454.001953125 96.669921875 466.668945312 96.0029296875 482.001953125 c 2
 96.0029296875 485.001953125 l 2
 96.0029296875 499.001953125 101.333007812 511.334960938 112 522.001953125 c 0
 122.666992188 532.668945312 138.002929688 538.3359375 158.002929688 539.002929688 c 0
 169.3359375 539.669921875 185.668945312 540.002929688 207.001953125 540.002929688 c 1
 234.001953125 686.002929688 l 2
 240.001953125 706.669921875 250.334960938 720.669921875 265.001953125 728.002929688 c 0
 274.334960938 733.3359375 284.334960938 736.3359375 295.001953125 737.002929688 c 0
 299.668945312 737.002929688 304.33203125 736.3359375 308.999023438 735.002929688 c 0
 326.33203125 731.669921875 339.668945312 723.336914062 349.001953125 710.00390625 c 0
 355.668945312 700.670898438 359.001953125 689.670898438 359.001953125 677.00390625 c 0
 359.001953125 671.00390625 358.334960938 665.00390625 357.001953125 659.00390625 c 2
 332.999023438 542.00390625 l 1
 421.001953125 542.00390625 l 1
 446.001953125 678.00390625 l 2
 452.001953125 699.336914062 462.334960938 714.00390625 477.001953125 722.00390625 c 0
 486.334960938 727.336914062 496.334960938 730.00390625 507.001953125 730.00390625 c 0
 512.334960938 730.00390625 517.334960938 729.3359375 522.001953125 728.002929688 c 0
 539.334960938 724.669921875 552.66796875 716.337890625 562.000976562 703.004882812 c 0
 568.000976562 694.337890625 571.333007812 684.004882812 572 672.004882812 c 0
 572 665.337890625 571 658.337890625 569 651.004882812 c 0
 562.333007812 626.337890625 554.666992188 590.337890625 546 543.004882812 c 1
 564 542.337890625 579.333007812 537.004882812 592 527.004882812 c 0
 605.333007812 515.671875 612.333007812 503.004882812 613 489.004882812 c 0
 613 473.671875 608 460.671875 598 450.004882812 c 0
 588 439.337890625 573 433.670898438 553 433.00390625 c 2
 552 433.00390625 l 1
 526 433.00390625 l 1
 501 286.00390625 l 1
 528 286.00390625 l 2
 547.333007812 286.00390625 561 281.336914062 569 272.00390625 c 0
 577 262.670898438 581.666992188 251.00390625 583 237.00390625 c 2
 583 236.00390625 l 2
 583 220.00390625 579.333007812 207.336914062 572 198.00390625 c 0
 562.666992188 186.00390625 548 180.00390625 528 180.00390625 c 2
 483 180.00390625 l 1
 470.333007812 109.336914062 461 60.669921875 455 34.0029296875 c 0
 448.333007812 16.0029296875 436.666015625 2.669921875 419.999023438 -5.9970703125 c 0
 410.3984375 -11.3974609375 400.797851562 -14.0986328125 391.197265625 -14.0986328125 c 0
 387.998046875 -13.9990234375 l 0
 382.665039062 -13.9990234375 377.33203125 -13.33203125 371.999023438 -11.9990234375 c 0
 355.999023438 -8.666015625 343.999023438 1.6689453125 335.999023438 19.001953125 c 0
 331.999023438 28.3349609375 329.666015625 37.66796875 328.999023438 47.0009765625 c 0
 328.999023438 55.0009765625 330.33203125 63.333984375 332.999023438 72.0009765625 c 0
 338.999023438 96.0009765625 346.666015625 131.66796875 355.999023438 179.000976562 c 1
 308.999023438 179.000976562 l 2
 289.666015625 179.000976562 273.999023438 178.66796875 261.999023438 178.000976562 c 1
 243.999023438 88.0009765625 233.999023438 41.0009765625 231.999023438 37.0009765625 c 0
 225.999023438 20.333984375 214.666015625 7.0009765625 197.999023438 -2.9990234375 c 0
 185.999023438 -10.33203125 174.666015625 -13.9990234375 163.999023438 -13.9990234375 c 0
 158.666015625 -13.9990234375 153.333007812 -13.33203125 148 -11.9990234375 c 0
 132 -8.666015625 120 2.333984375 112 21.0009765625 c 0
 108 30.333984375 106 39.333984375 106 48.0009765625 c 0
 106 57.333984375 107.666992188 66.6669921875 111 76 c 0
 115.666992188 92 123.666992188 125.666992188 135 177 c 1
 120 177 l 2
 100.666992188 177 85.6669921875 181 75 189 c 0
 63 197.666992188 57 209.666992188 57 225 c 2
 57 228 l 2
 57 242 62 254.333007812 72 265 c 0
 82 275 97 280.666992188 117 282 c 0
 122.333007812 282 129.333007812 282.333007812 138 283 c 2
 157 283 l 1
 186 431 l 1
EndSplineSet
EndChar

StartChar: dollar
Encoding: 36 36 4
Width: 670
GlyphClass: 2
Flags: W
HStem: -32.0029 106.998<214.386 273>
VStem: 84 118<485.148 581.759> 278 117.002<-87.3984 -32.0029 92.9971 317.997 456.997 612.974> 486.033 117.967<146.588 273.466>
LayerCount: 2
Fore
SplineSet
370.5 -130 m 0
 357.5 -140 342.333984375 -145.002929688 325 -145.002929688 c 2
 323 -145.002929688 l 2
 305 -145.002929688 291.333984375 -139.002929688 282 -127.002929688 c 0
 274.66796875 -118.3359375 271 -106.668945312 271 -92.001953125 c 0
 271 -88.6689453125 271.333984375 -82.8359375 272 -74.5029296875 c 0
 272.66796875 -66.169921875 273 -52.0029296875 273 -32.0029296875 c 1
 249 -31.3359375 226 -28.0029296875 204 -22.0029296875 c 0
 182 -16.0029296875 163 -8.0029296875 147 1.9970703125 c 0
 115 21.9970703125 91.333984375 45.9970703125 76 73.9970703125 c 0
 69.333984375 88.6640625 66 101.997070312 66 113.997070312 c 0
 66 117.997070312 66.333984375 121.6640625 67 124.997070312 c 0
 70.333984375 140.330078125 79.666015625 151.330078125 95 157.997070312 c 0
 103.666015625 161.997070312 110.333984375 164.497070312 115 165.497070312 c 0
 119.66796875 166.497070312 123.66796875 166.997070312 127 166.997070312 c 0
 130.333984375 166.997070312 133.333984375 166.6640625 136 165.997070312 c 0
 144 165.330078125 151.333984375 162.163085938 158 156.49609375 c 0
 164.66796875 150.829101562 171.66796875 143.329101562 179 133.99609375 c 0
 192.333984375 115.329101562 207.333984375 100.662109375 224 89.9951171875 c 0
 238 81.328125 255.333984375 76.328125 276 74.9951171875 c 1
 277.333984375 174.328125 278 263.661132812 278 342.994140625 c 1
 276 342.994140625 272.333984375 343.661132812 267 344.994140625 c 0
 263 345.661132812 257.66796875 345.994140625 251 345.994140625 c 0
 223.66796875 348.661132812 198.66796875 355.328125 176 365.995117188 c 0
 155.333984375 376.662109375 138.333984375 389.329101562 125 403.99609375 c 0
 111.66796875 418.663085938 101.5 434.330078125 94.5 450.997070312 c 0
 87.5 467.6640625 84 484.6640625 84 501.997070312 c 0
 84 526.6640625 87.833984375 550.331054688 95.5 572.998046875 c 0
 103.16796875 595.665039062 115 616.83203125 131 636.499023438 c 0
 147 656.166015625 168.333984375 672.999023438 195 686.999023438 c 0
 220.333984375 699.666015625 248.666992188 708.999023438 280 714.999023438 c 1
 280.666992188 728.33203125 281 743.999023438 281 761.999023438 c 1
 281.666992188 793.999023438 292.666992188 814.33203125 314 822.999023438 c 0
 321.33203125 825.666015625 330.33203125 826.999023438 341 826.999023438 c 0
 363 826.999023438 379 819.999023438 389 805.999023438 c 0
 396.33203125 795.999023438 400.33203125 782.33203125 401 764.999023438 c 2
 401 723.999023438 l 1
 416.33203125 722.666015625 436.666015625 718.999023438 461.999023438 712.999023438 c 0
 487.33203125 707.666015625 506.6640625 702.666015625 519.998046875 697.999023438 c 0
 535.331054688 692.666015625 546.6640625 683.666015625 553.99609375 670.999023438 c 0
 559.330078125 661.666015625 561.99609375 651.999023438 561.99609375 641.999023438 c 0
 561.99609375 638.666015625 561.6640625 635.333007812 560.99609375 632 c 0
 559.6640625 622 555.831054688 613.833007812 549.498046875 607.5 c 0
 543.1640625 601.166992188 535.33203125 597.333984375 525.999023438 596.000976562 c 0
 521.33203125 595.333984375 517.33203125 595.000976562 513.999023438 595.000976562 c 0
 510.666015625 595.000976562 506.83203125 595.16796875 502.5 595.500976562 c 0
 498.166992188 595.833984375 492.666992188 597.000976562 486 599.000976562 c 0
 478.666992188 600.333984375 470 603.333984375 460 608.000976562 c 0
 440 616.66796875 419.666992188 621.66796875 399 623.000976562 c 1
 397.666992188 558.333984375 396.666992188 497.000976562 396 439.000976562 c 1
 426 434.333984375 453.666992188 427.333984375 479 418.000976562 c 0
 503 408.000976562 522.83203125 396.000976562 538.5 382.000976562 c 0
 554.166992188 368.000976562 567.166992188 352.000976562 577.5 334.000976562 c 0
 587.83203125 316.000976562 594.83203125 298.333984375 598.5 281.000976562 c 0
 602.166992188 263.66796875 604 245.66796875 604 227.000976562 c 0
 604 195.66796875 598.5 166.16796875 587.5 138.500976562 c 0
 576.5 110.833984375 561.166992188 86.6669921875 541.5 66 c 0
 521.83203125 45.3330078125 499 27.666015625 473 12.9990234375 c 0
 448.33203125 -0.333984375 421.33203125 -10.6669921875 392 -18 c 1
 392 -52 392.666992188 -75.3330078125 394 -88 c 0
 391.33203125 -106 383.5 -120 370.5 -130 c 0
227 584.997070312 m 0
 210.333984375 569.6640625 202 551.6640625 202 530.997070312 c 0
 202 512.997070312 209.66796875 497.330078125 225 483.997070312 c 0
 238.333984375 471.997070312 256 462.997070312 278 456.997070312 c 1
 278.66796875 498.330078125 279 551.330078125 279 615.997070312 c 1
 258.333984375 607.997070312 241 597.6640625 227 584.997070312 c 0
456 136.997070312 m 0
 476.021484375 157.017578125 486.033203125 179.85546875 486.033203125 205.506835938 c 0
 486.033203125 214.470703125 485.65625 226.20703125 482.001953125 238.998046875 c 0
 479.334960938 248.331054688 474.334960938 258.6640625 467.001953125 269.997070312 c 0
 454.334960938 288.6640625 430.334960938 304.6640625 395.001953125 317.997070312 c 1
 394.334960938 241.330078125 393.834960938 191.330078125 393.501953125 167.997070312 c 0
 393.16796875 144.6640625 392.66796875 119.6640625 392.001953125 92.9970703125 c 1
 417.334960938 104.997070312 438.66796875 119.6640625 456 136.997070312 c 0
EndSplineSet
EndChar

StartChar: percent
Encoding: 37 37 5
Width: 670
GlyphClass: 2
Flags: W
HStem: -40.0039 101.001<444.769 509.75> 158.997 98<447.895 515.971> 420 98.9961<156.256 222.686> 607.996 97.0039<158.148 227.395>
VStem: 52 96.001<530.28 596.587> 236 103.001<529.373 597.165> 331 104.999<72.8275 145.526> 523.001 94.999<71.4058 144.619>
LayerCount: 2
Fore
SplineSet
66.501953125 491.5 m 0xfd
 56.8349609375 511.833007812 52 533.333007812 52 556 c 2
 52 558 l 2
 52 600 64.5 635 89.5 663 c 0
 114.5 691 150.666992188 705 198 705 c 0
 238.666992188 705 272.333984375 693 299.000976562 669 c 0
 313.000976562 656.333007812 323.66796875 640 331.000976562 620 c 0
 336.333984375 604 339.000976562 586 339.000976562 566 c 0
 339.000976562 516 324.66796875 478.333007812 296.000976562 453 c 0
 270.66796875 431 233.000976562 420 183.000976562 420 c 0
 155.66796875 420 131.834960938 426.833007812 111.501953125 440.5 c 0
 91.1689453125 454.166992188 76.1689453125 471.166992188 66.501953125 491.5 c 0xfd
100 -45 m 0
 91.3330078125 -41 84.3330078125 -36.00390625 79 -30.00390625 c 0
 71.6669921875 -22.00390625 68 -12.50390625 68 -1.50390625 c 0
 68 9.49609375 71.3330078125 21.3291015625 78 33.99609375 c 0
 92 61.99609375 125.333007812 120.329101562 178 208.99609375 c 0
 291.333007812 387.663085938 348 477.330078125 348 477.997070312 c 0
 404.666992188 567.997070312 442.666992188 632.6640625 462 671.997070312 c 1
 462 664.6640625 462.333007812 664.997070312 463 672.997070312 c 1
 473.666992188 687.6640625 487.333984375 696.331054688 504.000976562 698.998046875 c 0
 508.66796875 700.331054688 513.334960938 700.998046875 518.001953125 700.998046875 c 0
 528.668945312 700.998046875 539.001953125 698.331054688 549.001953125 692.998046875 c 0
 564.334960938 685.665039062 573.001953125 675.33203125 575.001953125 661.999023438 c 0
 575.668945312 659.33203125 576.001953125 656.665039062 576.001953125 653.998046875 c 0
 576.001953125 642.665039062 571.668945312 630.33203125 563.001953125 616.999023438 c 0
 538.334960938 577.666015625 476.66796875 477.333007812 378.000976562 316 c 0
 277.333984375 154.666992188 210.666992188 45.6669921875 178 -11 c 0
 162.666992188 -37.6669921875 144.666992188 -51 124 -51 c 0
 116.666992188 -51 108.666992188 -49 100 -45 c 0
224.5 597.49609375 m 0
 216.833007812 604.49609375 205 607.99609375 189 607.99609375 c 0
 176.333007812 607.99609375 167 604.329101562 161 596.99609375 c 0
 153.666992188 588.329101562 149.333984375 575.99609375 148.000976562 559.99609375 c 2
 148.000976562 556.99609375 l 2
 148.000976562 544.99609375 150.66796875 535.99609375 156.000976562 529.99609375 c 0
 161.333984375 523.99609375 173.666992188 520.329101562 193 518.99609375 c 2
 194 518.99609375 l 2
 206.666992188 518.99609375 216.333984375 522.329101562 223.000976562 528.99609375 c 0
 230.333984375 536.99609375 234.666992188 547.663085938 236 560.99609375 c 2
 236 563.99609375 l 2
 236 579.329101562 232.166992188 590.49609375 224.5 597.49609375 c 0
346.5 34.49609375 m 0
 336.166992188 55.49609375 331 77.9970703125 331 101.997070312 c 2
 331 103.997070312 l 2xfb
 331 147.997070312 344.666992188 184.497070312 372 213.497070312 c 0
 399.333007812 242.497070312 437.333007812 256.997070312 486 256.997070312 c 0
 524 256.997070312 556 244.6640625 582 219.997070312 c 0
 595.333007812 207.330078125 605 189.997070312 611 167.997070312 c 0
 615.666992188 151.997070312 618 134.330078125 618 114.997070312 c 0
 618 108.330078125 617.666992188 101.663085938 617 94.99609375 c 0
 615 50.99609375 602.333007812 17.49609375 579 -5.50390625 c 0
 555.666992188 -28.50390625 520.666992188 -40.00390625 474 -40.00390625 c 2
 469 -40.00390625 l 2
 441 -39.3369140625 416.166992188 -32.00390625 394.5 -18.00390625 c 0
 372.833007812 -4.00390625 356.833007812 13.49609375 346.5 34.49609375 c 0
481 60.9970703125 m 0
 481.666992188 60.9970703125 482.668945312 60.6640625 484.001953125 59.9970703125 c 0
 496.001953125 59.9970703125 504.668945312 63.6640625 510.001953125 70.9970703125 c 0
 517.334960938 79.6640625 521.66796875 91.6640625 523.000976562 106.997070312 c 2
 523.000976562 108.997070312 l 2
 523.000976562 124.997070312 520.000976562 136.997070312 514.000976562 144.997070312 c 0
 507.333984375 154.330078125 495.666992188 158.997070312 479 158.997070312 c 0
 466.333007812 158.997070312 456.666015625 154.6640625 449.999023438 145.997070312 c 0
 441.999023438 135.997070312 437.33203125 122.6640625 435.999023438 105.997070312 c 2
 435.999023438 102.997070312 l 2
 435.999023438 89.6640625 438.83203125 79.4970703125 444.499023438 72.4970703125 c 0
 450.166015625 65.4970703125 462.333007812 61.6640625 481 60.9970703125 c 0
EndSplineSet
EndChar

StartChar: ampersand
Encoding: 38 38 6
Width: 670
GlyphClass: 2
Flags: W
HStem: -53.9932 118<222.518 348.751> 633.005 103<278.923 368.088>
VStem: 63.999 124.001<100.286 273.189> 150.999 119.001<504.635 620.91> 385 108<508.115 617.229>
LayerCount: 2
Fore
SplineSet
592.000976562 11 m 0xd8
 592.000976562 7.6669921875 591.666992188 4.0048828125 591 0.0048828125 c 0
 588.333007812 -23.328125 580.333007812 -38.6611328125 567 -45.994140625 c 0
 554.333007812 -50.6611328125 546.333007812 -52.994140625 543 -52.994140625 c 2
 542 -52.994140625 l 2
 533.333007812 -52.994140625 524 -50.6611328125 514 -45.994140625 c 0
 496.666992188 -37.3271484375 482 -22.3271484375 470 -0.994140625 c 0
 468 2.3388671875 464.833007812 9.8388671875 460.5 21.505859375 c 0
 456.166992188 33.1728515625 453 41.6728515625 451 47.005859375 c 1
 436 27.505859375 l 2
 432.666992188 23.1728515625 427 16.83984375 419 8.5068359375 c 0
 411 0.173828125 404.166992188 -6.326171875 398.5 -10.9931640625 c 0
 392.833007812 -15.66015625 385.165039062 -21.16015625 375.499023438 -27.4931640625 c 0
 365.83203125 -33.826171875 356.33203125 -38.4931640625 346.999023438 -41.4931640625 c 0
 337.665039062 -44.4931640625 326.999023438 -47.326171875 314.999023438 -49.9931640625 c 0
 302.999023438 -52.66015625 290.665039062 -53.9931640625 277.999023438 -53.9931640625 c 0
 237.999023438 -53.9931640625 201.499023438 -43.826171875 168.499023438 -23.4931640625 c 0
 135.499023438 -3.16015625 109.83203125 23.6728515625 91.4990234375 57.005859375 c 0
 73.166015625 90.3388671875 63.9990234375 126.338867188 63.9990234375 165.005859375 c 0xe8
 63.9990234375 223.005859375 74.666015625 272.672851562 95.9990234375 314.005859375 c 0
 121.33203125 362.672851562 160.999023438 400.672851562 214.999023438 428.005859375 c 1
 197.499023438 455.505859375 l 2
 190.499023438 466.505859375 185.165039062 475.005859375 181.499023438 481.005859375 c 0
 177.83203125 487.005859375 173.499023438 494.838867188 168.499023438 504.505859375 c 0
 163.499023438 514.172851562 159.999023438 522.672851562 157.999023438 530.005859375 c 0
 153.33203125 550.005859375 150.999023438 569.672851562 150.999023438 589.005859375 c 0
 150.999023438 601.672851562 152.665039062 614.505859375 155.999023438 627.505859375 c 0
 159.33203125 640.505859375 165.33203125 653.672851562 173.999023438 667.005859375 c 0
 182.665039062 680.338867188 193.333007812 692.171875 206 702.504882812 c 0
 218.666992188 712.837890625 235 721.004882812 255 727.004882812 c 0
 275 733.004882812 297.333007812 736.004882812 322 736.004882812 c 0
 342.666992188 736.004882812 363 732.837890625 383 726.504882812 c 0
 403 720.171875 421.333007812 710.671875 438 698.004882812 c 0
 454.666992188 685.337890625 468 668.670898438 478 648.00390625 c 0
 488 627.336914062 493 604.336914062 493 579.00390625 c 0
 493 556.336914062 490 535.169921875 484 515.502929688 c 0
 478 495.8359375 470.5 479.3359375 461.5 466.002929688 c 0
 452.5 452.669921875 441.333007812 440.169921875 428 428.502929688 c 0
 414.666992188 416.8359375 403.333007812 408.002929688 394.000976562 402.002929688 c 0
 384.66796875 396.002929688 375.000976562 390.669921875 365.000976562 386.002929688 c 1
 377.000976562 366.002929688 393.833007812 340.8359375 415.500976562 310.502929688 c 0
 437.16796875 280.169921875 453.000976562 257.669921875 463.000976562 243.002929688 c 1
 465.000976562 247.002929688 467.833007812 253.169921875 471.500976562 261.502929688 c 0
 475.16796875 269.8359375 478.834960938 278.002929688 482.500976562 286.002929688 c 0
 486.168945312 294.002929688 489.3359375 300.002929688 492.002929688 304.002929688 c 0
 505.3359375 324.002929688 518.668945312 336.3359375 532.000976562 341.002929688 c 0
 537.334960938 343.002929688 543.000976562 344.002929688 549.000976562 344.002929688 c 0
 558.334960938 344.002929688 567.66796875 341.669921875 577.000976562 337.002929688 c 0
 592.333007812 329.669921875 601.333007812 317.002929688 604.000976562 299.002929688 c 0
 604.66796875 295.002929688 605.334960938 290.669921875 606.000976562 286.002929688 c 0
 606.000976562 272.002929688 602.000976562 257.3359375 594.000976562 242.002929688 c 0
 590.668945312 235.3359375 581.000976562 222.168945312 565.000976562 202.501953125 c 0
 549.000976562 182.834960938 536.000976562 165.66796875 526.000976562 151.000976562 c 1
 533.334960938 139.000976562 543.16796875 122.16796875 555.500976562 100.500976562 c 0
 567.833007812 78.833984375 575.333007812 65.6669921875 578.000976562 61 c 0
 587.333007812 45 592.000976562 28.3330078125 592.000976562 11 c 0xd8
270 572.004882812 m 0xd8
 270 557.337890625 274 541.338867188 282 524.005859375 c 0
 290 506.672851562 299 491.672851562 309 479.005859375 c 1
 319.666992188 482.338867188 329.166992188 486.171875 337.5 490.504882812 c 0
 345.833007812 494.837890625 354 500.337890625 362 507.004882812 c 0
 370 513.671875 375.833007812 522.004882812 379.5 532.004882812 c 0
 383.166992188 542.004882812 385 554.337890625 385 569.004882812 c 0
 385 589.671875 378.666992188 605.504882812 366 616.504882812 c 0
 353.333007812 627.504882812 337.833007812 633.004882812 319.5 633.004882812 c 0
 301.166992188 633.004882812 288 627.337890625 280 616.004882812 c 0
 273.333007812 606.004882812 270 591.337890625 270 572.004882812 c 0xd8
188 174.005859375 m 0xe8
 188 142.005859375 196.504882812 115.673828125 213.504882812 95.0068359375 c 0
 230.504882812 74.33984375 252.336914062 64.0068359375 279.004882812 64.0068359375 c 0
 293.671875 64.0068359375 309.004882812 66.673828125 325.004882812 72.0068359375 c 0
 330.336914062 74.0068359375 336.170898438 77.173828125 342.50390625 81.5068359375 c 0
 348.836914062 85.83984375 353.668945312 89.33984375 357.002929688 92.0068359375 c 0
 360.3359375 94.673828125 364.668945312 99.0068359375 370.000976562 105.006835938 c 0
 375.334960938 111.006835938 379.000976562 115.173828125 381.000976562 117.506835938 c 0
 383.000976562 119.83984375 385.668945312 123.506835938 389.000976562 128.506835938 c 0
 392.334960938 133.506835938 394.66796875 136.673828125 396.000976562 138.006835938 c 0
 386.66796875 158.006835938 377.66796875 176.006835938 369.000976562 192.006835938 c 0
 361.000976562 207.33984375 346.000976562 230.672851562 324.000976562 262.005859375 c 0
 302.000976562 293.338867188 285.66796875 317.338867188 275.000976562 334.005859375 c 1
 260.333007812 326.672851562 247.666992188 318.005859375 237 308.005859375 c 0
 224.333007812 296.005859375 214.5 283.005859375 207.5 269.005859375 c 0
 200.5 255.005859375 195.5 240.338867188 192.5 225.005859375 c 0
 189.5 209.672851562 188 192.672851562 188 174.005859375 c 0xe8
EndSplineSet
EndChar

StartChar: quotesingle
Encoding: 39 39 7
Width: 670
GlyphClass: 2
Flags: W
VStem: 270 130<452.314 772.656> 270 122<449.441 601.295>
LayerCount: 2
Fore
SplineSet
400 728 m 2x80
 400 687.000976562 l 2x80
 400 669.000976562 399.665039062 641.333984375 398.998046875 604.000976562 c 0
 397.665039062 546.000976562 395.33203125 506.000976562 392 484.000976562 c 0x40
 389.33203125 466.66796875 382 453.66796875 370 445.000976562 c 0
 359.33203125 437.66796875 347.665039062 434.000976562 334.998046875 434.000976562 c 0
 317.665039062 434.000976562 302.33203125 439.000976562 289 449.000976562 c 0
 276.33203125 458.333984375 270 471.333984375 270 488.000976562 c 0
 270 490.000976562 270.33203125 491.66796875 271 493.000976562 c 0
 272.33203125 519.66796875 273 549.66796875 273 583.000976562 c 0
 273 630.333984375 272 680.000976562 270 732.000976562 c 2
 270 735.000976562 l 2
 270 744.333984375 272 752.666992188 276 760 c 0
 280.666015625 768 287.333007812 774 296 778 c 0
 308 782.666992188 320.333007812 785 333 785 c 0
 343 785 351 784 357 782 c 0
 363.66796875 780 370 777.333007812 376 774 c 0
 383.333007812 770 389 763.666992188 393 755 c 0
 397 747 399.333007812 738 400 728 c 2x80
EndSplineSet
EndChar

StartChar: parenleft
Encoding: 40 40 8
Width: 670
GlyphClass: 2
Flags: W
HStem: -144 109<403.685 481.53> 721 105.053<389.656 479.499>
VStem: 172.999 122.75<154.284 548.553>
LayerCount: 2
Fore
SplineSet
496.000976562 -93 m 0
 496.000976562 -107.666992188 490.331054688 -119.666992188 478.998046875 -129 c 0
 467.665039062 -138.333007812 455.665039062 -143.333007812 442.998046875 -144 c 0
 394.998046875 -144 351.998046875 -127 313.998046875 -93 c 0
 275.998046875 -59 245.331054688 -13 221.998046875 45 c 0
 198.665039062 103 183.333007812 169.666992188 175.999023438 245 c 0
 173.999023438 265.666992188 172.999023438 291.333984375 172.999023438 322.000976562 c 0
 172.999023438 352.66796875 174.999023438 391.000976562 178.999023438 437.000976562 c 0
 185.666015625 516.333984375 198.999023438 581.666992188 218.999023438 633 c 0
 227.666015625 656.333007812 239.333007812 679 254.000976562 701 c 0
 268.666992188 723 286.000976562 743.666992188 306.000976562 763 c 0
 325.333007812 781.666992188 347.000976562 797 371.000976562 809 c 0
 394.368164062 820.368164062 417.436523438 826.052734375 440.206054688 826.052734375 c 0
 441.471679688 826.052734375 442.736328125 826.03515625 444.000976562 826 c 0
 462.666992188 826 476.666992188 820.333007812 486.000976562 809 c 0
 493.333007812 800.333007812 497.000976562 788.333007812 497.000976562 773 c 0
 497.000976562 755 491.333007812 741.666992188 480.000976562 733 c 0
 469.333007812 725 456.666015625 721 441.999023438 721 c 0
 427.333007812 721 413.333007812 716.333007812 399.999023438 707 c 0
 386.666015625 698.333007812 374.666015625 686 363.999023438 670 c 0
 342.666015625 638 326.666015625 598 315.999023438 550 c 0
 307.333007812 514.666992188 301.333007812 467.666992188 297.999023438 409 c 0
 296.499023438 386 295.749023438 364.875976562 295.749023438 345.626953125 c 0
 295.749023438 339.208984375 295.833007812 333.000976562 295.999023438 327 c 0
 295.999023438 303 296.666015625 281.666992188 297.999023438 263 c 0
 301.333007812 223.666992188 308.333007812 185 318.999023438 147 c 0
 329.666015625 109 342.333007812 77 357.000976562 51 c 0
 371.000976562 24.3330078125 386.000976562 3 402.000976562 -13 c 0
 416.666992188 -27.6669921875 430.333984375 -35 443.000976562 -35 c 0
 459.000976562 -35 472.000976562 -39.3330078125 482.000976562 -48 c 0
 491.333984375 -56.6669921875 496.000976562 -71.6669921875 496.000976562 -93 c 0
EndSplineSet
EndChar

StartChar: parenright
Encoding: 41 41 9
Width: 670
GlyphClass: 2
Flags: W
HStem: -144 109<188.412 266.235> 721.001 105.1<190.502 280.734>
VStem: 374.251 122.749<154.284 545.5>
LayerCount: 2
Fore
SplineSet
227 -144 m 0
 214.333007812 -144 202.333984375 -138.999023438 191.000976562 -128.999023438 c 0
 179.66796875 -119.666015625 174.000976562 -107.666015625 174.000976562 -92.9990234375 c 0
 174.000976562 -71.666015625 178.66796875 -56.666015625 188.000976562 -47.9990234375 c 0
 196.711914062 -39.2880859375 208.6171875 -34.93359375 223.71484375 -34.93359375 c 0
 224.793945312 -34.93359375 225.890625 -34.955078125 227.000976562 -35 c 0
 239.000976562 -35 252.333984375 -27.6669921875 267.000976562 -13 c 0
 283.66796875 3 299.000976562 24.3330078125 313.000976562 51 c 0
 327.000976562 77.6669921875 339.66796875 109.666992188 351.000976562 147 c 0
 361.66796875 185 368.66796875 223.666992188 372.000976562 263 c 0
 373.500976562 278 374.250976562 294.124023438 374.250976562 311.373046875 c 0
 374.250976562 317.124023438 374.16796875 322.999023438 374.000976562 329 c 0
 374.000976562 352.333007812 373.333984375 379 372.000976562 409 c 0
 368.66796875 467.666992188 362.66796875 514.666992188 354.000976562 550 c 0
 343.333984375 597.333007812 327.333984375 637.333007812 306.000976562 670 c 0
 296.000976562 686 284.000976562 698.333007812 270.000976562 707 c 0
 256.66796875 715.666992188 242.66796875 720.333984375 228.000976562 721.000976562 c 0
 213.333984375 721.000976562 200.66796875 725.000976562 190 733.000976562 c 0
 178.66796875 741.66796875 173 755.000976562 173 773.000976562 c 0
 173 783.000976562 174.66796875 792.000976562 178 800.000976562 c 0
 181.333007812 807.333984375 186.333007812 813.333984375 193 818.000976562 c 0
 201.399414062 823.400390625 211.149414062 826.100585938 222.25 826.100585938 c 0
 223.482421875 826.100585938 224.734375 826.067382812 226 826.000976562 c 0
 250.66796875 826.000976562 275 820.333984375 299 809.000976562 c 0
 323 797.000976562 344.66796875 781.66796875 364 763.000976562 c 0
 383.333007812 744.333984375 400.333007812 723.666992188 415 701 c 0
 429.66796875 679 441.66796875 656.333007812 451 633 c 0
 470.333007812 581.666992188 483.666015625 516.333984375 491 437.000976562 c 0
 495 391.000976562 497 352.66796875 497 322.000976562 c 0
 497 291.333984375 496 265.666992188 494 245 c 0
 486.666015625 169.666992188 471.333007812 103 448 45 c 0
 424.66796875 -13 393.66796875 -59 355 -93 c 0
 317.66796875 -127 275 -144 227 -144 c 0
EndSplineSet
EndChar

StartChar: asterisk
Encoding: 42 42 10
Width: 670
GlyphClass: 2
Flags: W
HStem: 281.004 127.999<88.5334 231.975> 289.002 119.001<429.147 584.842> 294.001 101.002<428.002 543.874>
LayerCount: 2
Fore
SplineSet
248.001953125 102 m 2x20
 237.999023438 102 l 2
 233.33203125 102 227.499023438 102.670898438 220.499023438 104.00390625 c 0
 213.499023438 105.336914062 206.666015625 108 199.999023438 112 c 0
 193.33203125 116 187.33203125 122.00390625 181.999023438 130.00390625 c 0
 176.666015625 138.00390625 172.999023438 147.336914062 170.999023438 158.00390625 c 2
 170.999023438 165.00390625 l 2
 170.999023438 175.00390625 173.666015625 185.333984375 178.999023438 196.000976562 c 2
 233.999023438 285.00390625 l 1
 190.666015625 282.336914062 157.666015625 281.00390625 134.999023438 281.00390625 c 0
 114.999023438 281.00390625 99.33203125 287.670898438 87.9990234375 301.00390625 c 0
 77.9990234375 313.00390625 72.666015625 327.00390625 71.9990234375 343.00390625 c 2
 71.9990234375 346.00390625 l 2
 71.9990234375 359.336914062 75.666015625 372.669921875 82.9990234375 386.002929688 c 0
 87.666015625 394.002929688 94.666015625 400.002929688 103.999023438 404.002929688 c 0
 111.33203125 407.3359375 119.33203125 409.002929688 127.999023438 409.002929688 c 2
 132.999023438 409.002929688 l 2x80
 159.666015625 407.002929688 197.333007812 404.3359375 246 401.002929688 c 1
 222.666992188 439.669921875 203 470.002929688 187 492.002929688 c 0
 177.666992188 507.3359375 173 522.3359375 173 537.002929688 c 0
 173 539.669921875 173.333007812 542.336914062 174 545.00390625 c 0
 176 563.670898438 184 576.670898438 198 584.00390625 c 0
 206.666992188 589.336914062 216.5 592.00390625 227.5 592.00390625 c 0
 238.5 592.00390625 249.666992188 588.669921875 261 582.002929688 c 0
 272.333007812 575.3359375 281.333007812 565.669921875 288 553.002929688 c 0
 294.666992188 539.002929688 310.666992188 507.669921875 336 459.002929688 c 1
 355.333007812 493.669921875 371.333007812 524.669921875 384 552.002929688 c 0
 390 564.669921875 398.333007812 574.169921875 409 580.502929688 c 0
 419.666992188 586.8359375 430 590.002929688 440 590.002929688 c 0
 450.666992188 590.002929688 460.666992188 587.3359375 470 582.002929688 c 0
 478.666992188 577.3359375 485.666992188 570.502929688 491 561.502929688 c 0
 496.333007812 552.502929688 499 542.002929688 499 530.002929688 c 0
 499 516.669921875 495 504.336914062 487 493.00390625 c 0
 469 466.336914062 449 433.669921875 427 395.002929688 c 1x20
 473 395.669921875 506.333007812 399.002929688 527 405.002929688 c 0
 535.666992188 407.002929688 541.333984375 408.002929688 544.000976562 408.002929688 c 0x40
 556.66796875 408.002929688 567.66796875 403.669921875 577.000976562 395.002929688 c 0x20
 590.333984375 382.3359375 597.333984375 368.668945312 598.000976562 354.001953125 c 0
 598.000976562 339.334960938 594.333984375 325.334960938 587.000976562 312.001953125 c 0
 582.333984375 304.001953125 576.000976562 297.668945312 568.000976562 293.001953125 c 0
 562.000976562 290.334960938 555.66796875 289.001953125 549.000976562 289.001953125 c 0x40
 545.66796875 289.001953125 542.334960938 289.334960938 539.001953125 290.001953125 c 0
 525.114257812 292.779296875 502.432617188 294.16796875 470.956054688 294.16796875 c 0
 464.65625 294.16796875 458.005859375 294.112304688 451.001953125 294.000976562 c 2
 428.001953125 294.000976562 l 1
 485.001953125 196.000976562 l 2
 492.334960938 181.333984375 496.001953125 168.000976562 496.001953125 156.000976562 c 0
 496.001953125 153.333984375 495.668945312 150.666992188 495.001953125 148 c 0
 493.001953125 132 486.001953125 120.666992188 474.001953125 114 c 0
 464.668945312 108 453.001953125 105 439.001953125 105 c 0
 428.334960938 105 417.66796875 107.333007812 407.000976562 112 c 0
 393.66796875 118 384.66796875 128 380.000976562 142 c 0
 372.66796875 164 359.334960938 194.666992188 340.001953125 234 c 1
 315.334960938 184.666992188 299.66796875 151.666992188 293.000976562 135 c 0
 289.66796875 124.333007812 283.834960938 116.333007812 275.501953125 111 c 0
 267.168945312 105.666992188 258.001953125 102.666992188 248.001953125 102 c 2x20
EndSplineSet
EndChar

StartChar: plus
Encoding: 43 43 11
Width: 670
GlyphClass: 2
Flags: W
HStem: 346 105.998<147.472 281 386 524.621>
VStem: 281 105<209.378 344.998 452.998 593.588>
LayerCount: 2
Fore
SplineSet
385.000976562 347 m 1
 386 249.999023438 l 2
 386 230.666015625 381.333007812 216.999023438 372 208.999023438 c 0
 362.666992188 200.33203125 351 195.665039062 337 194.998046875 c 2
 336 194.998046875 l 2
 320 194.998046875 307.666992188 198.665039062 299 205.998046875 c 0
 287 215.331054688 281 229.998046875 281 249.998046875 c 2
 281 344.998046875 l 1
 192 343.998046875 l 2
 172 343.998046875 157 349.331054688 147 359.998046875 c 0
 136.333007812 370.665039062 131 383.665039062 131 398.998046875 c 2
 131 401.998046875 l 2
 131 415.998046875 135.666992188 428.331054688 145 438.998046875 c 0
 155 449.665039062 169.333007812 454.998046875 188 454.998046875 c 0
 189.333007812 454.998046875 200 454.665039062 220 453.998046875 c 0
 240 453.331054688 260.333007812 452.998046875 281 452.998046875 c 1
 281 492.331054688 280 525.6640625 278 552.997070312 c 0
 278 571.6640625 284.333007812 585.331054688 297 593.998046875 c 0
 306.333007812 600.665039062 318.333007812 603.998046875 333 603.998046875 c 2
 337 603.998046875 l 2
 351 603.998046875 363 600.665039062 373 593.998046875 c 0
 384.333007812 585.998046875 390 572.998046875 390 554.998046875 c 2
 390 548.998046875 l 2
 388 514.998046875 386.666992188 482.665039062 386 451.998046875 c 1
 484 451.998046875 l 2
 503.333007812 451.998046875 517 447.331054688 525 437.998046875 c 0
 533 428.665039062 537.666992188 416.998046875 539 402.998046875 c 2
 539 401.998046875 l 2
 539 394.665039062 538.333007812 388.33203125 537 382.999023438 c 0
 535.666992188 376.999023438 533 370.999023438 529 364.999023438 c 0
 524.333007812 357.666015625 518 352.333007812 510 349 c 0
 504 347 497.333007812 346 490 346 c 2
 483 346 l 2
 473 347.333007812 458.666992188 348 440 348 c 0
 420.666992188 348 402.333984375 347.666992188 385.000976562 347 c 1
EndSplineSet
EndChar

StartChar: comma
Encoding: 44 44 12
Width: 670
GlyphClass: 2
Flags: W
VStem: 220.001 229.998
LayerCount: 2
Fore
SplineSet
305.997070312 -223 m 0
 295.330078125 -227 285.999023438 -228.999023438 277.999023438 -228.999023438 c 0
 269.999023438 -228.999023438 262.999023438 -227.666015625 256.999023438 -224.999023438 c 0
 248.333007812 -222.33203125 240.333007812 -217.33203125 232.999023438 -209.999023438 c 0
 225.666015625 -202.666015625 221.333007812 -193.333007812 220.000976562 -182 c 2
 220.000976562 -176 l 2
 220.000976562 -166 223.333007812 -156 230.000976562 -146 c 0
 243.333007812 -127.333007812 262.000976562 -84.3330078125 286.000976562 -17 c 0
 310.000976562 49 325.000976562 96 331.000976562 124 c 0
 333.666992188 136 339.666992188 145.333007812 349.000976562 152 c 0
 358.333007812 159.333007812 368.666015625 163 379.999023438 163 c 2
 381.999023438 163 l 2
 389.999023438 163 398.333007812 162.333007812 406.999023438 161 c 0
 420.333007812 157 431.333007812 149 439.999023438 137 c 0
 446.666015625 127.666992188 449.999023438 117.333984375 449.999023438 106.000976562 c 0
 449.999023438 101.333984375 449.666015625 97.333984375 448.999023438 94.0009765625 c 0
 442.333007812 61.333984375 427.665039062 10.6669921875 404.998046875 -58 c 0
 382.331054688 -127.333007812 364.998046875 -170.333007812 352.998046875 -187 c 0
 340.331054688 -204.333007812 324.665039062 -216.333007812 305.997070312 -223 c 0
EndSplineSet
EndChar

StartChar: hyphen
Encoding: 45 45 13
Width: 670
GlyphClass: 2
Flags: W
HStem: 230.001 111.999<186.44 485.172> 239.002 106<348.731 487.621>
LayerCount: 2
Fore
SplineSet
222 342 m 0x80
 260 342 305 342.333984375 357 343.000976562 c 0
 409.666992188 343.66796875 439.666992188 344.334960938 447 345.001953125 c 0
 466.333007812 345.001953125 480 340.334960938 488 331.001953125 c 0
 496 321.668945312 500.666992188 310.001953125 502 296.001953125 c 2
 502 295.001953125 l 2
 502 279.001953125 498.333007812 266.668945312 491 258.001953125 c 0
 481.666992188 246.001953125 467 239.668945312 447 239.001953125 c 0x40
 438.333007812 239.001953125 404.666015625 237.668945312 345.999023438 235.001953125 c 0
 287.33203125 232.334960938 246.33203125 230.66796875 222.999023438 230.000976562 c 0
 207.666015625 230.000976562 195.333007812 234.000976562 186 242.000976562 c 0
 174 251.333984375 168 265.666992188 168 285 c 2
 168 290 l 2
 168 308.666992188 174 322.666992188 186 332 c 0
 194.666992188 338.666992188 206.666992188 342 222 342 c 0x80
EndSplineSet
EndChar

StartChar: period
Encoding: 46 46 14
Width: 670
GlyphClass: 2
Flags: W
HStem: -26 178.037<277.144 395.352>
VStem: 241.481 187.037<6.96988 117.608>
LayerCount: 2
Fore
SplineSet
327.481445312 -26 m 2
 304.1484375 -26 284.481445312 -18 268.481445312 -2 c 0
 250.481445312 16.6669921875 241.481445312 38.333984375 241.481445312 63.0009765625 c 0
 241.481445312 87.66796875 251.481445312 108.66796875 271.481445312 126.000976562 c 0
 291.411132812 143.357421875 313.508789062 152.037109375 337.776367188 152.037109375 c 0
 338.674804688 152.037109375 339.577148438 152.024414062 340.481445312 152.000976562 c 0
 365.815429688 152.000976562 386.815429688 144.000976562 403.481445312 128.000976562 c 0
 420.172851562 111.310546875 428.518554688 91.5283203125 428.518554688 68.6552734375 c 0
 428.518554688 55.5234375 427.8828125 28.376953125 404.481445312 4 c 0
 387.813476562 -12.6669921875 365.813476562 -22.6669921875 338.481445312 -26 c 2
 327.481445312 -26 l 2
EndSplineSet
EndChar

StartChar: slash
Encoding: 47 47 15
Width: 670
GlyphClass: 2
Flags: W
HStem: 746.004 20G<527.917 538.583>
LayerCount: 2
Fore
SplineSet
151.25 -67 m 0
 141.916992188 -71.6669921875 132.58203125 -73.9970703125 123.249023438 -73.9970703125 c 0
 113.916015625 -73.9970703125 105.249023438 -71.330078125 97.2490234375 -65.9970703125 c 0
 83.916015625 -57.9970703125 75.916015625 -42.6640625 73.2490234375 -19.9970703125 c 0
 72.58203125 -16.6640625 72.58203125 -12.9970703125 73.2490234375 -8.9970703125 c 0
 73.2490234375 9.0029296875 77.916015625 25.669921875 87.2490234375 41.0029296875 c 0
 184.58203125 201.002929688 267.915039062 343.002929688 337.248046875 467.002929688 c 1
 380.581054688 543.002929688 426.581054688 629.669921875 475.248046875 727.002929688 c 0
 481.915039062 739.669921875 490.58203125 749.002929688 501.249023438 755.002929688 c 0
 511.916015625 761.669921875 522.583007812 765.336914062 533.25 766.00390625 c 0
 543.916992188 766.00390625 554.583984375 763.670898438 565.250976562 759.00390625 c 0
 580.583984375 751.00390625 590.583984375 739.00390625 595.250976562 723.00390625 c 0
 596.583984375 718.336914062 597.250976562 713.669921875 597.250976562 709.002929688 c 0
 597.250976562 697.669921875 593.91796875 685.002929688 587.250976562 671.002929688 c 0
 569.91796875 636.3359375 521.250976562 552.668945312 441.250976562 420.001953125 c 0
 361.250976562 287.334960938 312.583984375 204.66796875 295.250976562 172.000976562 c 0
 284.583984375 151.333984375 267.250976562 116.333984375 243.250976562 67.0009765625 c 0
 219.250976562 17.66796875 204.250976562 -12.33203125 198.250976562 -22.9990234375 c 0
 185.583984375 -43.666015625 169.916992188 -58.3330078125 151.25 -67 c 0
EndSplineSet
EndChar

StartChar: zero
Encoding: 48 48 16
Width: 670
GlyphClass: 2
Flags: W
HStem: -24.001 107.996<245.58 405.453> 611.995 106.005<261.512 412.238>
VStem: 76 120.999<228.996 530.163> 473.999 115.999<165.933 399.325 400.71 457.995>
LayerCount: 2
Fore
SplineSet
473.999023438 457.995117188 m 1
 401.33203125 330.662109375 317.666992188 221.995117188 223 131.995117188 c 1
 241 100.662109375 270.33203125 84.662109375 310.999023438 83.9951171875 c 0
 330.33203125 83.9951171875 347 85.4951171875 361 88.4951171875 c 0
 375 91.4951171875 388.333984375 96.328125 401 102.995117188 c 0
 426.333984375 116.328125 445.666015625 143.328125 458.999023438 183.995117188 c 0
 461.666015625 191.995117188 464.666015625 213.495117188 467.999023438 248.495117188 c 0
 471.33203125 283.495117188 473.666015625 323.995117188 474.998046875 369.995117188 c 0
 475.220703125 380 475.33203125 389.930664062 475.33203125 399.787109375 c 0
 475.33203125 419.486328125 474.888671875 438.888671875 473.999023438 457.995117188 c 1
396 599.997070312 m 0
 378.666992188 607.997070312 359.666015625 611.995117188 338.999023438 611.995117188 c 0
 302.33203125 611.995117188 273.83203125 602.828125 253.499023438 584.495117188 c 0
 233.166015625 566.162109375 217.333984375 534.995117188 206 490.995117188 c 0
 201.333984375 473.662109375 198 455.329101562 196 435.99609375 c 0
 194.666992188 415.99609375 194 393.329101562 194 367.99609375 c 0
 194 327.99609375 194.999023438 281.663085938 196.999023438 228.99609375 c 1
 283.666015625 339.663085938 363 453.330078125 435 569.997070312 c 1
 423.666992188 582.6640625 410.666992188 592.6640625 396 599.997070312 c 0
589.998046875 490.995117188 m 2
 589.998046875 489.998046875 l 2
 593.331054688 450.665039062 595 410.662109375 595 369.995117188 c 0
 595 329.328125 593.666992188 289.331054688 591 249.998046875 c 0
 588.333984375 210.665039062 584 179.665039062 578 156.998046875 c 0
 566 114.331054688 551 79.6640625 533 52.9970703125 c 0
 523.666992188 39.6640625 513.166992188 28.3310546875 501.5 18.998046875 c 0
 489.833984375 9.6650390625 477.666015625 2.33203125 464.999023438 -3.0009765625 c 0
 451.666015625 -8.333984375 436.666015625 -13.0009765625 419.999023438 -17.0009765625 c 0
 402.666015625 -20.333984375 385.666015625 -22.333984375 368.999023438 -23.0009765625 c 0
 352.33203125 -23.66796875 332.999023438 -24.0009765625 310.999023438 -24.0009765625 c 0
 274.999023438 -24.0009765625 241.666015625 -18.333984375 210.999023438 -7.0009765625 c 0
 182.33203125 4.33203125 157.999023438 20.4990234375 138 41.4990234375 c 0
 118 62.4990234375 102.666015625 87.666015625 92 116.999023438 c 0
 81.33203125 146.33203125 76 177.999023438 76 211.999023438 c 2
 76 217.999023438 l 2
 76 250.666015625 75.666015625 281.333007812 75 310 c 0
 75 330.666992188 75.5 356 76.5 386 c 0
 77.5 416 79.166015625 440.833007812 81.5 460.5 c 0
 83.83203125 480.166992188 87.33203125 501.333984375 92 524.000976562 c 0
 96.666015625 547.333984375 102.666015625 567.666992188 110 585 c 0
 127.33203125 628.333007812 156.33203125 661.333007812 196.999023438 684 c 0
 240.999023438 706.666992188 294.33203125 718 356.999023438 718 c 0
 388.33203125 718 417.666015625 713.333007812 444.998046875 704 c 0
 471.666015625 694.666992188 495.166015625 680.666992188 515.498046875 662 c 0
 535.831054688 643.333007812 552.498046875 619.5 565.498046875 590.5 c 0
 578.498046875 561.5 586.666015625 528.328125 589.998046875 490.995117188 c 2
EndSplineSet
EndChar

StartChar: one
Encoding: 49 49 17
Width: 670
GlyphClass: 2
Flags: W
HStem: -9.00098 110.501<124.326 271.998 403.002 586.561> -5.00098 114.001<80.4389 271.998 403.002 471.524>
VStem: 271.998 131.004<107 552.809> 282.999 123.003<266.377 552.809>
LayerCount: 2
Fore
SplineSet
603.001953125 49.9990234375 m 1xa0
 603.001953125 46.9990234375 l 2
 603.001953125 31.666015625 598.33203125 18.666015625 588.999023438 7.9990234375 c 0
 578.999023438 -3.333984375 561.999023438 -9.0009765625 537.999023438 -9.0009765625 c 0xa0
 285.33203125 -7.0009765625 146.665039062 -5.66796875 121.998046875 -5.0009765625 c 0
 103.331054688 -5.0009765625 89.3310546875 0.33203125 79.998046875 10.9990234375 c 0
 71.3310546875 21.666015625 66.998046875 34.666015625 66.998046875 49.9990234375 c 2
 66.998046875 52.9990234375 l 2
 66.998046875 67.666015625 70.998046875 80.3330078125 78.998046875 91 c 0
 88.3310546875 103 102.998046875 109 122.998046875 109 c 0
 150.998046875 109 200.665039062 108.333007812 271.998046875 107 c 1x60
 271.998046875 127 271.665039062 143.666992188 270.998046875 157 c 0
 270.331054688 163 269.998046875 180.333007812 269.998046875 209 c 0
 269.998046875 234.333007812 270.331054688 255 270.998046875 271 c 0
 270.998046875 289 272.331054688 325 274.998046875 379 c 0
 279.665039062 480.333007812 282.33203125 539.333007812 282.999023438 556 c 1
 239.666015625 526 206.666015625 507 183.999023438 499 c 0
 175.999023438 497 170.666015625 496 167.999023438 496 c 0
 155.999023438 496 143.999023438 501 131.999023438 511 c 0
 115.999023438 524.333007812 107.999023438 538 107.999023438 552 c 0
 107.999023438 565.333007812 110.999023438 576.833007812 116.999023438 586.5 c 0
 122.999023438 596.166992188 132.666015625 606 145.999023438 616 c 0
 164.666015625 630 189.333007812 648.666992188 220 672 c 1
 232.666992188 674 245.333984375 683 258.000976562 699 c 0
 269.333984375 707 281.000976562 714.333007812 293.000976562 721 c 0
 303.909179688 727.060546875 314.267578125 730.090820312 324.07421875 730.090820312 c 0
 325.055664062 730.090820312 326.03125 730.060546875 327.000976562 730 c 0
 345.66796875 730 364.334960938 723.333007812 383.001953125 710 c 0
 393.001953125 702.666992188 400.501953125 696 405.501953125 690 c 0
 410.501953125 684 413.001953125 678 413.001953125 672 c 2
 413.001953125 671 l 2
 412.334960938 655.666992188 410.001953125 603.166992188 406.001953125 513.5 c 0x50
 402.001953125 423.833007812 400.001953125 371.333007812 400.001953125 356 c 0
 400.001953125 292 400.334960938 238.666992188 401.001953125 196 c 0
 401.001953125 174 401.668945312 143 403.001953125 103 c 1
 439.001953125 102.333007812 462.001953125 102 472.001953125 102 c 0
 481.334960938 102 493.834960938 101.833007812 509.501953125 101.5 c 0
 525.168945312 101.166992188 535.3359375 101 540.002929688 101 c 0
 562.002929688 101 577.669921875 96.1669921875 587.002929688 86.5 c 0
 596.3359375 76.8330078125 601.668945312 65 603.001953125 51 c 2
 603.001953125 49.9990234375 l 1xa0
EndSplineSet
EndChar

StartChar: two
Encoding: 50 50 18
Width: 670
GlyphClass: 2
Flags: W
HStem: -18.0029 108.432<203.591 517.107> -12.0029 113.999<520.311 577.623> 506.999 21G<151.667 156.667> 612.998 109.001<263.888 427.109>
VStem: 452 126<456.851 587.935>
LayerCount: 2
Fore
SplineSet
519.998046875 101 m 1xb8
 526.665039062 109.666992188 533.66796875 109.99609375 541.000976562 101.99609375 c 0
 543.000976562 101.99609375 546.833984375 101.829101562 552.500976562 101.49609375 c 0
 558.16796875 101.163085938 562.66796875 100.163085938 566.000976562 98.49609375 c 0
 569.333984375 96.8291015625 572.666015625 94.99609375 576 92.99609375 c 0
 581.333007812 89.6630859375 585 85.6630859375 587 80.99609375 c 0
 591 72.99609375 593 63.6630859375 593 52.99609375 c 0
 593 33.6630859375 588 17.330078125 578 3.9970703125 c 0
 570 -6.669921875 559.666015625 -12.0029296875 547 -12.0029296875 c 0x78
 499.666015625 -12.0029296875 423.666015625 -14.0029296875 319 -18.0029296875 c 0
 283.666015625 -19.3359375 247.333984375 -20.0029296875 210.000976562 -20.0029296875 c 0
 175.333984375 -20.0029296875 148.333984375 -18.669921875 129 -16.0029296875 c 0
 118.333984375 -14.669921875 109 -10.3369140625 101 -3.00390625 c 0
 95 2.3291015625 90.333984375 9.3291015625 87 17.99609375 c 0
 80.333984375 35.3291015625 77 59.3291015625 77 89.99609375 c 0
 77 120.663085938 83.333984375 151.663085938 96 182.99609375 c 0
 108.66796875 214.329101562 127.66796875 244.49609375 153.000976562 273.49609375 c 0
 178.333984375 302.49609375 208.666015625 325.99609375 244 343.99609375 c 0
 322 381.99609375 372 408.663085938 394 423.99609375 c 0
 420.666015625 442.663085938 438 462.330078125 446 482.997070312 c 0
 450 495.6640625 452 511.331054688 452 529.998046875 c 0
 452 559.331054688 443 580.331054688 425 592.998046875 c 0
 405.666015625 606.331054688 376.666015625 612.998046875 338 612.998046875 c 0
 312 612.998046875 287.166015625 605.665039062 263.5 590.998046875 c 0
 239.833007812 576.331054688 221.333007812 559.998046875 208 541.998046875 c 0
 201.333007812 532.665039062 194.333007812 524.83203125 187 518.499023438 c 0
 179.666015625 512.166015625 172 508.666015625 164 507.999023438 c 0
 161.333007812 507.999023438 158.333007812 507.666015625 155 506.999023438 c 0
 148.333007812 506.999023438 137.33203125 510.33203125 122 516.999023438 c 0
 107.33203125 524.999023438 98 536.33203125 94 550.999023438 c 0
 93.33203125 554.999023438 93 558.666015625 93 561.999023438 c 0
 93 573.33203125 96.666015625 586.999023438 104 602.999023438 c 0
 111.33203125 616.999023438 122 630.83203125 136 644.499023438 c 0
 150 658.166015625 166 670.999023438 184 682.999023438 c 0
 203.333007812 694.999023438 226.333007812 704.499023438 253 711.499023438 c 0
 279.666015625 718.499023438 306.666015625 721.999023438 334 721.999023438 c 0
 416 721.999023438 477.333007812 704.999023438 518 670.999023438 c 0
 558 636.999023438 578 585.999023438 578 517.999023438 c 0
 578 461.999023438 563 416.666015625 533 381.999023438 c 0
 511 357.33203125 471 330.33203125 413 300.999023438 c 0
 398.333007812 293.666015625 373 281.666015625 337 264.999023438 c 0
 307 250.999023438 282 233.83203125 262 213.499023438 c 0
 242 193.166015625 227.333007812 172.333007812 218 151 c 0
 210.666015625 133 205.666015625 113.666992188 203 93 c 1
 236.716796875 91.28515625 268.962890625 90.4287109375 299.740234375 90.4287109375 c 0
 304.868164062 90.4287109375 309.954101562 90.4521484375 314.998046875 90.5 c 0
 350.33203125 90.8330078125 377.665039062 91.3330078125 396.998046875 92 c 0
 416.998046875 93.3330078125 457.998046875 96.3330078125 519.998046875 101 c 1xb8
EndSplineSet
EndChar

StartChar: three
Encoding: 51 51 19
Width: 670
GlyphClass: 2
Flags: W
HStem: -24.0166 108.017<252.507 412.542> 306 125<214.72 378.949> 520.002 21G<154.501 161.834> 613.001 109.001<247.846 412.21>
VStem: 438.502 126.997<479.219 589.309> 463.5 124<130.061 255.137>
LayerCount: 2
Fore
SplineSet
576.5 279.5 m 0xf8
 583.833007812 257.833007812 587.5 232.330078125 587.5 202.997070312 c 0
 587.5 133.6640625 565.166992188 78.3310546875 520.5 36.998046875 c 0
 475.23046875 -3.6787109375 410.268554688 -24.0166015625 325.61328125 -24.0166015625 c 0
 324.247070312 -24.0166015625 322.875976562 -24.01171875 321.5 -24.0009765625 c 0
 294.166992188 -24.0009765625 267.166992188 -20.333984375 240.5 -13.0009765625 c 0
 213.833007812 -5.66796875 191.333007812 3.6650390625 173 14.998046875 c 0
 154.666992188 26.3310546875 138.5 38.998046875 124.5 52.998046875 c 0
 110.5 66.998046875 100 80.8310546875 93 94.498046875 c 0
 86 108.165039062 82.5 120.998046875 82.5 132.998046875 c 0
 82.5 136.998046875 83.1669921875 140.998046875 84.5 144.998046875 c 0
 87.8330078125 161.665039062 96.8330078125 173.33203125 111.5 179.999023438 c 0
 122.166992188 185.33203125 132.166992188 187.999023438 141.5 187.999023438 c 0
 161.5 187.999023438 179.5 177.33203125 195.5 155.999023438 c 0
 210.166992188 136.666015625 229.166992188 119.833007812 252.5 105.5 c 0
 275.833007812 91.1669921875 300.5 84 326.5 84 c 0
 367.166992188 84 400.166992188 93.8330078125 425.5 113.5 c 0
 450.833007812 133.166992188 463.5 158 463.5 188 c 0xf4
 463.5 207.333007812 460.166992188 223.833007812 453.5 237.5 c 0
 446.833007812 251.166992188 436.333007812 263.166992188 422 273.5 c 0
 407.666992188 283.833007812 387.333984375 291.833007812 361.000976562 297.5 c 0
 334.66796875 303.166992188 302.500976562 306 264.500976562 306 c 0
 245.16796875 306 229.16796875 312.666992188 216.500976562 326 c 0
 203.16796875 339.333007812 196.500976562 354.333007812 196.500976562 371 c 0
 196.500976562 387.666992188 201.16796875 401.666992188 210.500976562 413 c 0
 221.16796875 425 236.500976562 431 256.500976562 431 c 0
 315.16796875 431 360.834960938 440.666992188 393.501953125 460 c 0
 423.501953125 478 438.501953125 504 438.501953125 538 c 2
 438.501953125 541 l 1
 438.501953125 545 l 2
 438.501953125 567.666992188 429.168945312 584.333984375 410.501953125 595.000976562 c 0
 388.501953125 607.000976562 356.501953125 613.000976562 314.501953125 613.000976562 c 0
 301.834960938 613.000976562 288.16796875 611.000976562 273.500976562 607.000976562 c 0
 269.500976562 605.66796875 264.833984375 603.16796875 259.500976562 599.500976562 c 0
 254.16796875 595.833984375 250.000976562 592.833984375 247.000976562 590.500976562 c 0
 244.000976562 588.16796875 240.000976562 584.334960938 235.000976562 579.001953125 c 0
 230.000976562 573.668945312 226.500976562 569.668945312 224.500976562 567.001953125 c 0
 220.500976562 554.334960938 216.833984375 549.66796875 213.500976562 553.000976562 c 1
 200.16796875 535.66796875 186.500976562 525.334960938 172.500976562 522.001953125 c 0
 168.500976562 520.668945312 164.16796875 520.001953125 159.500976562 520.001953125 c 0
 149.500976562 520.001953125 139.16796875 523.001953125 128.500976562 529.001953125 c 0
 113.833984375 536.334960938 104.833984375 548.001953125 101.500976562 564.001953125 c 0
 100.833984375 568.001953125 100.500976562 572.001953125 100.500976562 576.001953125 c 0
 100.500976562 588.001953125 103.833984375 601.001953125 110.500976562 615.001953125 c 0
 124.500976562 643.668945312 146.16796875 668.001953125 175.500976562 688.001953125 c 0
 190.833984375 698.668945312 210.166992188 707.001953125 233.5 713.001953125 c 0
 256.833007812 719.001953125 282.166015625 722.001953125 309.499023438 722.001953125 c 0
 397.499023438 722.001953125 462.499023438 705.668945312 504.499023438 673.001953125 c 0
 545.166015625 640.334960938 565.499023438 592.66796875 565.499023438 530.000976562 c 2
 565.499023438 526.000976562 l 1
 565.499023438 523.000976562 l 2
 565.499023438 504.333984375 562.666015625 486.833984375 556.999023438 470.500976562 c 0
 551.33203125 454.16796875 543.665039062 440.334960938 533.998046875 429.001953125 c 0
 524.331054688 417.668945312 512.831054688 407.668945312 499.498046875 399.001953125 c 0
 486.165039062 390.334960938 472.498046875 383.66796875 458.498046875 379.000976562 c 1
 469.165039062 375.66796875 478.83203125 372.334960938 487.499023438 369.001953125 c 0
 508.166015625 360.334960938 526.333007812 348.66796875 542 334.000976562 c 0
 557.666992188 319.333984375 569.166992188 301.166992188 576.5 279.5 c 0xf8
EndSplineSet
EndChar

StartChar: four
Encoding: 52 52 20
Width: 670
GlyphClass: 2
Flags: W
HStem: -23 21G<463 478.333> 218.999 90.001<205.216 406.999 508.001 576.169>
VStem: 400.001 98.999<456.567 587.448> 405.999 102.002<37.313 218 309 587.448> 406.999 109.002<-7.4969 213.685>
LayerCount: 2
Fore
SplineSet
514.000976562 59 m 0xd0
 515.333984375 51 516.000976562 43.6669921875 516.000976562 37 c 0xc8
 516.000976562 23.6669921875 513.333984375 12 508.000976562 2 c 0xd0
 499.333984375 -14.6669921875 486.666992188 -23 470 -23 c 0
 456 -23 442.166992188 -17.8330078125 428.5 -7.5 c 0
 414.833007812 2.8330078125 407.666015625 13.666015625 406.999023438 24.9990234375 c 0xc8
 406.33203125 32.9990234375 405.999023438 45.666015625 405.999023438 62.9990234375 c 2
 405.999023438 138.999023438 l 2xd0
 405.999023438 166.33203125 406.33203125 192.999023438 406.999023438 218.999023438 c 1xc8
 361.999023438 218.999023438 l 2
 263.33203125 218.999023438 193.665039062 214.666015625 152.998046875 205.999023438 c 0
 148.331054688 204.666015625 143.331054688 204.166015625 137.998046875 204.499023438 c 0
 132.665039062 204.83203125 127.33203125 205.665039062 121.999023438 206.998046875 c 0
 112.666015625 210.331054688 105.166015625 215.498046875 99.4990234375 222.498046875 c 0
 93.83203125 229.498046875 89.4990234375 237.498046875 86.4990234375 246.498046875 c 0
 83.4990234375 255.498046875 81.9990234375 264.665039062 81.9990234375 273.998046875 c 0
 81.9990234375 284.665039062 83.666015625 294.665039062 86.9990234375 303.998046875 c 0
 93.666015625 323.331054688 111.666015625 353.831054688 140.999023438 395.498046875 c 0
 170.33203125 437.165039062 208.999023438 488.998046875 256.999023438 550.998046875 c 0
 299.666015625 605.665039062 333.666015625 650.33203125 358.999023438 684.999023438 c 0
 368.33203125 697.666015625 378.999023438 707.499023438 390.999023438 714.499023438 c 0
 402.999023438 721.499023438 414.666015625 724.999023438 425.999023438 724.999023438 c 2
 432.999023438 724.999023438 l 2
 444.999023438 724.999023438 455.999023438 722.666015625 465.999023438 717.999023438 c 0
 478.666015625 711.33203125 486.333007812 699.999023438 489 683.999023438 c 2
 489 682.999023438 l 1
 493 659.666015625 496.333007812 624.166015625 499 576.499023438 c 0xe0
 501.666992188 528.83203125 503.333984375 488.33203125 504.000976562 454.999023438 c 0
 504.66796875 405.666015625 505.66796875 356.666015625 507.000976562 307.999023438 c 1
 517.000976562 307.33203125 528.000976562 306.999023438 540.000976562 306.999023438 c 0
 557.333984375 306.999023438 569.500976562 303.166015625 576.500976562 295.499023438 c 0
 583.500976562 287.83203125 587.333984375 277.999023438 588.000976562 265.999023438 c 2
 588.000976562 265 l 2
 588.000976562 251 584.66796875 240 578.000976562 232 c 0
 570.000976562 222 557.333984375 217 540.000976562 217 c 0
 528.66796875 217 518.000976562 217.333007812 508.000976562 218 c 1
 509.333984375 125.333007812 511.333984375 72.3330078125 514.000976562 59 c 0xd0
339.000976562 309 m 2
 406.999023438 309 l 1xc8
 406.999023438 424.333007812 404.66796875 517.666015625 400.000976562 588.999023438 c 1xe0
 305.333984375 469.666015625 240.000976562 375.333007812 204.000976562 306 c 1
 241.333984375 308 286.333984375 309 339.000976562 309 c 2
EndSplineSet
EndChar

StartChar: five
Encoding: 53 53 21
Width: 670
GlyphClass: 2
Flags: W
HStem: -18.002 109.001<229.765 391.839> 407.998 113.043<266.316 435.675> 594.995 112.998<311.603 572.12> 605.995 103.998<205.501 534.887>
VStem: 83.501 119<466.431 602.995> 473.498 124.003<181.147 368.764>
LayerCount: 2
Fore
SplineSet
88.5009765625 561 m 0xdc
 89.833984375 581.666992188 90.4951171875 596.993164062 90.4951171875 606.993164062 c 1
 83.7734375 617.9921875 80.4130859375 630.672851562 80.4130859375 645.033203125 c 0
 80.4130859375 658.096679688 80.94140625 681.393554688 100.49609375 698.993164062 c 0
 109.829101562 707.66015625 120.49609375 711.993164062 132.49609375 711.993164062 c 0
 157.163085938 711.993164062 219.163085938 711.326171875 318.497070312 709.993164062 c 0xdc
 419.163085938 708.66015625 493.497070312 707.993164062 541.497070312 707.993164062 c 0
 554.163085938 707.993164062 564.497070312 702.66015625 572.497070312 691.993164062 c 0
 582.497070312 678.66015625 587.497070312 662.327148438 587.497070312 642.994140625 c 0
 587.497070312 622.994140625 581.829101562 609.661132812 570.497070312 602.994140625 c 0
 567.163085938 600.994140625 563.830078125 599.327148438 560.497070312 597.994140625 c 0
 557.165039062 596.661132812 552.665039062 595.828125 546.997070312 595.495117188 c 0
 541.330078125 595.162109375 537.330078125 594.995117188 534.997070312 594.995117188 c 0xec
 532.665039062 594.995117188 528.997070312 595.162109375 523.997070312 595.495117188 c 0
 518.997070312 595.828125 515.830078125 595.995117188 514.497070312 595.995117188 c 1
 505.165039062 595.995117188 487.831054688 597.328125 462.498046875 599.995117188 c 0
 435.831054688 601.995117188 412.331054688 603.495117188 391.998046875 604.495117188 c 0
 371.665039062 605.495117188 344.333007812 605.995117188 309.999023438 605.995117188 c 0
 275.666015625 605.995117188 240.833007812 604.995117188 205.500976562 602.995117188 c 1
 203.366210938 562.998046875 202.299804688 535.798828125 202.299804688 521.3984375 c 0
 202.299804688 517.796875 202.366210938 514.99609375 202.500976562 512.995117188 c 0
 202.500976562 500.995117188 202.333007812 492.495117188 202.000976562 487.495117188 c 0
 201.666992188 482.495117188 201.833984375 475.328125 202.500976562 465.995117188 c 1
 220.500976562 479.328125 242.168945312 490.995117188 267.500976562 500.995117188 c 0
 302.500976562 514.358398438 341.751953125 521.041015625 385.254882812 521.041015625 c 0
 387.327148438 521.041015625 389.409179688 521.025390625 391.500976562 520.995117188 c 0
 426.168945312 520.995117188 457.168945312 515.328125 484.500976562 503.995117188 c 0
 509.833984375 492.662109375 530.666992188 476.829101562 547.000976562 456.49609375 c 0
 563.333007812 436.163085938 575.833007812 412.830078125 584.500976562 386.497070312 c 0
 593.166992188 360.1640625 597.500976562 331.6640625 597.500976562 300.997070312 c 0
 597.500976562 251.6640625 591.166992188 206.831054688 578.500976562 166.498046875 c 0
 565.833007812 126.165039062 547.666015625 92.498046875 523.999023438 65.498046875 c 0
 500.333007812 38.498046875 470.833007812 17.998046875 435.499023438 3.998046875 c 0
 399.499023438 -10.6689453125 360.499023438 -18.001953125 318.499023438 -18.001953125 c 0
 285.166015625 -18.001953125 254.166015625 -14.6689453125 225.499023438 -8.001953125 c 0
 197.499023438 -1.3349609375 174.833007812 7.33203125 157.499023438 17.9990234375 c 0
 140.166015625 28.666015625 125.499023438 40.3330078125 113.499023438 53 c 0
 101.499023438 65.6669921875 91.4990234375 79 83.4990234375 93 c 0
 76.166015625 109 72.4990234375 122.666992188 72.4990234375 134 c 0
 72.4990234375 138 73.166015625 142 74.4990234375 146 c 0
 77.83203125 160.666992188 87.1650390625 172 102.498046875 180 c 0
 110.498046875 183.333007812 116.998046875 185.666015625 121.998046875 186.999023438 c 0
 126.998046875 188.33203125 131.331054688 188.999023438 134.998046875 188.999023438 c 0
 138.665039062 188.999023438 141.498046875 188.666015625 143.498046875 187.999023438 c 0
 152.165039062 187.33203125 160.165039062 183.665039062 167.498046875 176.998046875 c 0
 173.498046875 171.665039062 179.831054688 164.33203125 186.498046875 154.999023438 c 0
 216.498046875 112.33203125 256.831054688 90.9990234375 307.498046875 90.9990234375 c 0
 358.165039062 90.9990234375 398.165039062 108.33203125 427.498046875 142.999023438 c 0
 458.165039062 178.999023438 473.498046875 227.666015625 473.498046875 288.999023438 c 0
 473.498046875 326.33203125 464.165039062 355.665039062 445.498046875 376.998046875 c 0
 428.165039062 397.665039062 400.833007812 407.998046875 363.499023438 407.998046875 c 0
 346.166015625 407.998046875 327.833007812 405.998046875 308.500976562 401.998046875 c 0
 299.166992188 399.998046875 286.166992188 395.331054688 269.500976562 387.998046875 c 0
 265.500976562 385.998046875 260.333007812 382.665039062 254.000976562 377.998046875 c 0
 247.666992188 373.331054688 243.500976562 369.998046875 241.500976562 367.998046875 c 0
 230.166992188 358.665039062 220.833984375 350.665039062 213.500976562 343.998046875 c 0
 198.168945312 331.331054688 180.500976562 323.998046875 160.500976562 321.998046875 c 2
 153.500976562 321.998046875 l 2
 144.168945312 321.998046875 135.16796875 323.998046875 126.500976562 327.998046875 c 0
 112.500976562 333.998046875 101.833984375 346.665039062 94.5009765625 365.998046875 c 0
 88.5009765625 382.665039062 84.833984375 403.33203125 83.5009765625 427.999023438 c 0
 83.1669921875 433.33203125 83.0009765625 438.666015625 83.0009765625 444 c 0
 83.0009765625 449.333007812 83.1669921875 454.666015625 83.5009765625 460 c 0
 83.5009765625 483.333007812 85.16796875 517 88.5009765625 561 c 0xdc
EndSplineSet
EndChar

StartChar: six
Encoding: 54 54 22
Width: 670
GlyphClass: 2
Flags: W
HStem: -22.002 107.997<261.312 402.935> 379.996 114.002<257.445 438.642>
VStem: 70 116<167.545 324.488> 476.999 123.001<163.55 341.372>
LayerCount: 2
Fore
SplineSet
584.999023438 361 m 0
 594.999023438 329.666992188 600 293.331054688 600 251.998046875 c 0
 600 213.998046875 593.333007812 178.331054688 580 144.998046875 c 0
 554 76.998046875 508.666992188 28.3310546875 444 -1.001953125 c 0
 411.478515625 -15.03125 376.823242188 -22.0458984375 340.032226562 -22.0458984375 c 0
 338.359375 -22.0458984375 336.681640625 -22.03125 335 -22.001953125 c 0
 288.333007812 -22.001953125 247 -14.001953125 211 1.998046875 c 0
 177 18.6650390625 149.833007812 41.998046875 129.5 71.998046875 c 0
 109.166992188 101.998046875 94.1669921875 136.831054688 84.5 176.498046875 c 0
 74.8330078125 216.165039062 70 259.665039062 70 306.998046875 c 0
 70 366.998046875 75.8330078125 420.498046875 87.5 467.498046875 c 0
 99.1669921875 514.498046875 114.833984375 553.831054688 134.500976562 585.498046875 c 0
 154.16796875 617.165039062 179.000976562 643.665039062 209.000976562 664.998046875 c 0
 240.333984375 686.998046875 274.333984375 703.665039062 311.000976562 714.998046875 c 0
 347.66796875 726.331054688 388.000976562 733.6640625 432.000976562 736.997070312 c 2
 443.000976562 736.997070312 l 2
 458.333984375 736.997070312 471.666992188 734.330078125 483 728.997070312 c 0
 498.333007812 721.6640625 507.333007812 709.997070312 510 693.997070312 c 2
 510 689.997070312 l 2
 510 679.997070312 505 669.6640625 495 658.997070312 c 0
 484.333007812 648.330078125 472 640.997070312 458 636.997070312 c 0
 450 634.997070312 437.666992188 632.497070312 421 629.497070312 c 0
 404.333007812 626.497070312 390.333007812 623.6640625 379 620.997070312 c 0
 367.666992188 618.330078125 354.666992188 614.330078125 340 608.997070312 c 0
 310.666992188 598.330078125 281 577.997070312 251 547.997070312 c 0
 235.666992188 531.997070312 221.666992188 510.330078125 209 482.997070312 c 0
 203 468.997070312 197.666992188 455.997070312 193 443.997070312 c 1
 211 456.6640625 231.333007812 466.6640625 254 473.997070312 c 0
 291.333007812 486.6640625 333.333007812 493.331054688 380 493.998046875 c 0
 415.333007812 493.998046875 446.666015625 489.331054688 473.999023438 479.998046875 c 0
 499.999023438 470.665039062 522.499023438 456.33203125 541.499023438 436.999023438 c 0
 560.499023438 417.666015625 574.999023438 392.333007812 584.999023438 361 c 0
285 94.9970703125 m 0
 300.333007812 88.9970703125 316.666015625 85.9951171875 333.999023438 85.9951171875 c 2
 335.999023438 85.9951171875 l 1
 336.999023438 85.9951171875 l 2
 360.33203125 85.9951171875 382.999023438 93.662109375 404.999023438 108.995117188 c 0
 426.999023438 124.328125 444.499023438 143.828125 457.499023438 167.495117188 c 0
 470.499023438 191.162109375 476.999023438 215.329101562 476.999023438 239.99609375 c 0
 476.999023438 297.329101562 465.999023438 335.329101562 443.999023438 353.99609375 c 0
 432.666015625 363.329101562 419.833007812 369.99609375 405.5 373.99609375 c 0
 391.166992188 377.99609375 373 379.99609375 351 379.99609375 c 0
 317 379.99609375 285.333007812 372.49609375 256 357.49609375 c 0
 226.666992188 342.49609375 203 323.329101562 185 299.99609375 c 1
 185 274.663085938 185.333007812 253.663085938 186 236.99609375 c 0
 188.666992188 208.99609375 198.333984375 181.663085938 215.000976562 154.99609375 c 0
 223.66796875 141.663085938 233.66796875 129.830078125 245.000976562 119.497070312 c 0
 256.333984375 109.1640625 269.666992188 100.997070312 285 94.9970703125 c 0
EndSplineSet
EndChar

StartChar: seven
Encoding: 55 55 23
Width: 670
GlyphClass: 2
Flags: W
HStem: -23 21G<160 167.667> 601 113.001<121.735 450.001>
LayerCount: 2
Fore
SplineSet
263.001953125 601 m 0
 197.001953125 599.666992188 154.333984375 596.669921875 135.000976562 592.002929688 c 0
 131.000976562 590.669921875 126.500976562 590.002929688 121.500976562 590.002929688 c 0
 116.500976562 590.002929688 111.333984375 591.002929688 106.000976562 593.002929688 c 0
 97.333984375 596.3359375 90.6669921875 601.3359375 86 608.002929688 c 0
 76.6669921875 620.002929688 71.6669921875 633.669921875 71 649.002929688 c 1
 71 642.3359375 71 642.668945312 71 650.001953125 c 0
 71 664.001953125 75 675.668945312 83 685.001953125 c 0
 91 694.334960938 104.666992188 700.66796875 124 704.000976562 c 0
 160 710.66796875 220.333007812 714.000976562 305 714.000976562 c 0
 339.666992188 714.000976562 387.333984375 712.66796875 448.000976562 710.000976562 c 0
 505.333984375 708.000976562 535.333984375 707.000976562 538.000976562 707.000976562 c 0
 546.66796875 707.000976562 555.16796875 705.16796875 563.500976562 701.500976562 c 0
 571.833984375 697.833984375 579.666992188 692.000976562 587 684.000976562 c 0
 594.333007812 675.333984375 598.333007812 664.000976562 599 650.000976562 c 0
 599 638.000976562 595.333007812 624.66796875 588 610.000976562 c 0
 578.666992188 590.000976562 561.666992188 560.500976562 537 521.500976562 c 0
 512.333007812 482.500976562 486.333007812 442.66796875 459 402.000976562 c 0
 430.333007812 361.333984375 395.333007812 307.166992188 354 239.5 c 0
 312.666992188 171.833007812 273.666992188 102.666015625 237 31.9990234375 c 0
 227.666992188 12.666015625 214.666992188 -1.6669921875 198 -11 c 0
 185.333007812 -19 173.333007812 -23 162 -23 c 0
 158 -23 154 -22.6669921875 150 -22 c 0
 132 -18 119.333007812 -8 112 8 c 0
 108.666992188 15.3330078125 107 23.166015625 107 31.4990234375 c 0
 107 39.83203125 109.333007812 48.9990234375 114 58.9990234375 c 0
 148 125.666015625 185.666992188 191.999023438 227 257.999023438 c 0
 269.666992188 323.999023438 304.833984375 376.33203125 332.500976562 414.999023438 c 0
 360.16796875 453.666015625 384.500976562 489.333007812 405.500976562 522 c 0
 426.500976562 554.666992188 441.333984375 581 450.000976562 601 c 1
 421.333984375 601.666015625 391.41796875 602 360.251953125 602 c 0
 329.084960938 602 296.66796875 601.666015625 263.001953125 601 c 0
EndSplineSet
EndChar

StartChar: eight
Encoding: 56 56 24
Width: 670
GlyphClass: 2
Flags: W
HStem: -28.001 110<239.184 420.638> 621.999 96.002<256.764 393.08>
VStem: 64.499 111.003<137.082 263.615> 91.499 121.003<482.059 579.145> 444.501 117.001<478.907 573.656> 488.502 116.999<140 269.94>
LayerCount: 2
Fore
SplineSet
253.501953125 96.9990234375 m 0xe4
 276.834960938 86.9990234375 301.834960938 81.9990234375 328.501953125 81.9990234375 c 0
 347.168945312 81.9990234375 366.001953125 84.666015625 385.001953125 89.9990234375 c 0
 404.001953125 95.33203125 421.334960938 102.999023438 437.001953125 112.999023438 c 0
 452.668945312 122.999023438 465.168945312 135.666015625 474.501953125 150.999023438 c 0
 483.834960938 166.33203125 488.501953125 182.999023438 488.501953125 200.999023438 c 0
 488.501953125 210.999023438 487.501953125 220.33203125 485.501953125 228.999023438 c 0
 483.501953125 237.666015625 479.501953125 247.666015625 473.501953125 258.999023438 c 0
 467.501953125 270.33203125 459.168945312 280.999023438 448.501953125 290.999023438 c 0
 437.834960938 300.999023438 423.001953125 311.33203125 404.001953125 321.999023438 c 0
 385.001953125 332.666015625 362.501953125 342.333007812 336.501953125 351 c 1
 288.501953125 339 249.501953125 318.666992188 219.501953125 290 c 0
 190.168945312 261.333007812 175.501953125 230.666015625 175.501953125 197.999023438 c 0
 175.501953125 175.999023438 182.501953125 155.999023438 196.501953125 137.999023438 c 0
 211.834960938 119.999023438 230.834960938 106.33203125 253.501953125 96.9990234375 c 0xe4
246.000976562 591.499023438 m 0
 223.666992188 571.166015625 212.501953125 549.333007812 212.501953125 526 c 0
 212.501953125 507.333007812 222.168945312 490.666015625 241.501953125 475.999023438 c 0
 261.501953125 460.666015625 295.168945312 444.999023438 342.501953125 428.999023438 c 1
 369.834960938 439.666015625 393.668945312 453.666015625 414.000976562 470.999023438 c 0
 434.333984375 488.33203125 444.500976562 503.33203125 444.500976562 515.999023438 c 0xd8
 444.500976562 532.666015625 439.333984375 548.999023438 429.000976562 564.999023438 c 0
 418.668945312 580.999023438 404.168945312 594.499023438 385.500976562 605.499023438 c 0
 366.833984375 616.499023438 347.166992188 621.999023438 326.500976562 621.999023438 c 2
 324.500976562 621.999023438 l 2
 294.500976562 621.999023438 268.333007812 611.83203125 246.000976562 591.499023438 c 0
602.000976562 246 m 0
 604.333984375 234 605.500976562 221.33203125 605.500976562 207.999023438 c 0
 605.500976562 185.999023438 602.500976562 164.33203125 596.500976562 142.999023438 c 0
 590.500976562 121.666015625 580.500976562 100.499023438 566.500976562 79.4990234375 c 0
 552.500976562 58.4990234375 535.166992188 40.33203125 514.500976562 24.9990234375 c 0
 493.833007812 9.666015625 466.666015625 -3.0009765625 432.999023438 -13.0009765625 c 0
 399.333007812 -23.0009765625 362.665039062 -28.0009765625 322.998046875 -28.0009765625 c 0
 283.331054688 -28.0009765625 247.831054688 -23.333984375 216.498046875 -14.0009765625 c 0
 186.498046875 -4.66796875 162.331054688 7.4990234375 143.998046875 22.4990234375 c 0
 125.665039062 37.4990234375 110.33203125 55.166015625 97.9990234375 75.4990234375 c 0
 85.666015625 95.83203125 76.9990234375 116.33203125 71.9990234375 136.999023438 c 0
 66.9990234375 157.666015625 64.4990234375 179.333007812 64.4990234375 202 c 0xe4
 64.4990234375 224.666992188 70.4990234375 249.166992188 82.4990234375 275.5 c 0
 94.4990234375 301.833007812 112.166015625 326.333007812 135.499023438 349 c 0
 151.499023438 365 168.833007812 377.666992188 187.499023438 387 c 1
 160.833007812 402.333007812 139.499023438 420.666015625 123.499023438 441.999023438 c 0
 102.166015625 469.999023438 91.4990234375 498.666015625 91.4990234375 527.999023438 c 0
 91.4990234375 536.666015625 92.166015625 545.666015625 93.4990234375 554.999023438 c 0
 94.83203125 564.33203125 97.6650390625 575.33203125 101.998046875 587.999023438 c 0
 106.331054688 600.666015625 111.831054688 612.83203125 118.498046875 624.499023438 c 0
 125.165039062 636.166015625 134.33203125 647.833007812 145.999023438 659.5 c 0
 157.666015625 671.166992188 170.833007812 681.000976562 185.500976562 689.000976562 c 0
 202.166992188 697.66796875 222.500976562 704.66796875 246.500976562 710.000976562 c 0
 270.500976562 715.333984375 296.833007812 718.000976562 325.500976562 718.000976562 c 0
 354.166992188 718.000976562 380.500976562 715.333984375 404.500976562 710.000976562 c 0
 428.500976562 704.66796875 448.833007812 698.000976562 465.500976562 690.000976562 c 0
 482.166992188 681.333984375 496.333984375 671.166992188 508.000976562 659.5 c 0
 519.668945312 647.833007812 528.834960938 636.166015625 535.501953125 624.499023438 c 0
 542.168945312 612.83203125 547.501953125 600.499023438 551.501953125 587.499023438 c 0
 555.501953125 574.499023438 558.168945312 563.166015625 559.501953125 553.499023438 c 0
 560.834960938 543.83203125 561.501953125 534.33203125 561.501953125 524.999023438 c 0
 561.501953125 515.666015625 560.334960938 506.833007812 558.001953125 498.5 c 0
 555.668945312 490.166992188 552.836914062 482.666015625 549.502929688 475.999023438 c 0
 546.169921875 469.33203125 541.501953125 462.5 535.501953125 455.5 c 0
 529.501953125 448.5 524.002929688 442.666992188 519.002929688 438 c 0
 514.002929688 433.333007812 507.669921875 428 500.002929688 422 c 0
 492.336914062 416 486.168945312 411.666992188 481.501953125 409 c 0
 476.834960938 406.333007812 470.834960938 402.333007812 463.501953125 397 c 1
 482.168945312 389 498.501953125 380 512.501953125 370 c 0
 531.834960938 356.666992188 547.334960938 343.166992188 559.001953125 329.5 c 0
 570.668945312 315.833007812 580.168945312 301.5 587.501953125 286.5 c 0
 594.834960938 271.5 599.668945312 258 602.000976562 246 c 0
EndSplineSet
EndChar

StartChar: nine
Encoding: 57 57 25
Width: 670
GlyphClass: 2
Flags: W
HStem: -22.9951 21G<194.667 203.667> 223.002 113.005<246.64 428.074> 630.006 108.993<263.431 410.932>
VStem: 70 122.002<391.618 557.824> 486.002 113.998<379.658 542.364>
LayerCount: 2
Fore
SplineSet
212 555.004882812 m 0
 198.66796875 532.337890625 192.001953125 509.006835938 192.001953125 485.006835938 c 0
 192.001953125 385.673828125 239 336.006835938 333 336.006835938 c 0
 363 336.006835938 392.001953125 342.006835938 420.001953125 354.006835938 c 0
 448.001953125 366.006835938 470.001953125 381.33984375 486.001953125 400.006835938 c 1
 486.001953125 409.006835938 l 2
 486.001953125 427.006835938 485.001953125 450.673828125 483.001953125 480.006835938 c 0
 480.3359375 508.006835938 470.66796875 535.33984375 454.000976562 562.006835938 c 0
 445.333984375 575.33984375 435.500976562 587.172851562 424.500976562 597.505859375 c 0
 413.500976562 607.838867188 400.16796875 615.838867188 384.500976562 621.505859375 c 0
 368.833984375 627.172851562 352.66796875 630.005859375 336 630.005859375 c 2
 333 630.005859375 l 2
 309 630.005859375 286.16796875 623.172851562 264.5 609.505859375 c 0
 242.833007812 595.838867188 225.333007812 577.671875 212 555.004882812 c 0
212 -22 m 0
 208.66796875 -22 205.333984375 -22.328125 202.000976562 -22.9951171875 c 0
 187.333984375 -22.9951171875 174.333984375 -19.9951171875 163.000976562 -13.9951171875 c 0
 147.66796875 -6.662109375 139.000976562 5.0048828125 137.000976562 21.0048828125 c 0
 137.000976562 22.337890625 136.66796875 23.337890625 136.000976562 24.0048828125 c 0
 136.000976562 34.671875 141.16796875 45.171875 151.500976562 55.5048828125 c 0
 161.833984375 65.837890625 173.333984375 73.0048828125 186.000976562 77.0048828125 c 0
 194.000976562 79.0048828125 207.16796875 81.671875 225.500976562 85.0048828125 c 0
 243.833984375 88.337890625 260.000976562 91.6708984375 274.000976562 95.00390625 c 0
 288.000976562 98.3369140625 303.333984375 102.669921875 320.000976562 108.002929688 c 0
 355.333984375 120.002929688 386.333984375 139.002929688 413.000976562 165.002929688 c 0
 430.333984375 183.002929688 446.000976562 203.669921875 460.000976562 227.002929688 c 0
 465.333984375 236.3359375 470.000976562 245.668945312 474.000976562 255.001953125 c 1
 459.333984375 247.001953125 443.333984375 240.668945312 426.000976562 236.001953125 c 0
 393.333984375 228.001953125 353.000976562 223.668945312 305.000976562 223.001953125 c 0
 271.000976562 223.001953125 238.66796875 230.001953125 208.000976562 244.001953125 c 0
 178.66796875 258.001953125 154.16796875 276.668945312 134.500976562 300.001953125 c 0
 114.833984375 323.334960938 99.1669921875 350.16796875 87.5 380.500976562 c 0
 75.8330078125 410.833984375 70 441.666992188 70 473 c 0
 70 511 76.5 546.5 89.5 579.5 c 0
 102.5 612.5 120.166992188 640.666992188 142.5 664 c 0
 164.833007812 687.333007812 192.666015625 705.666015625 226 718.999023438 c 0
 260 732.33203125 296 738.999023438 334 738.999023438 c 0
 428 738.999023438 496.33203125 706.999023438 539 642.999023438 c 0
 579 582.999023438 599.33203125 498.33203125 600 388.999023438 c 0
 600 331.666015625 593.33203125 280.999023438 580 236.999023438 c 0
 566.666015625 192.999023438 548.833007812 155.83203125 526.5 125.499023438 c 0
 504.16796875 95.166015625 476.66796875 69.3330078125 444 48 c 0
 410 26.6669921875 373.833007812 10.5 335.5 -0.5 c 0
 297.16796875 -11.5 256 -18.6669921875 212 -22 c 0
EndSplineSet
EndChar

StartChar: colon
Encoding: 58 58 26
Width: 670
GlyphClass: 2
Flags: W
HStem: 27.001 180<277.159 391.079> 295.001 179<287.565 387.156>
VStem: 258 155<49.1377 186.712 322.001 455.644>
LayerCount: 2
Fore
SplineSet
410 404 m 0
 410 384.666992188 407 364.668945312 401 344.001953125 c 0
 397 327.334960938 388 314.66796875 374 306.000976562 c 0
 362 298.66796875 350 295.000976562 338 295.000976562 c 2
 335 295.000976562 l 2
 315 296.333984375 299 300.333984375 287 307.000976562 c 0
 270.333007812 317.000976562 261 332.000976562 259 352.000976562 c 1
 257.666992188 364.000976562 257 376.000976562 257 388.000976562 c 0
 257 400.66796875 257.333007812 412.334960938 258 423.001953125 c 0
 258.666992188 433.668945312 262 443.001953125 268 451.001953125 c 0
 274 458.334960938 281.333007812 463.66796875 290 467.000976562 c 0
 298.666992188 470.333984375 306.333984375 472.333984375 313.000976562 473.000976562 c 0
 319.66796875 473.66796875 324.66796875 474.000976562 328.000976562 474.000976562 c 0
 339.333984375 474.000976562 349.000976562 473.333984375 357.000976562 472.000976562 c 0
 364.333984375 470.66796875 371.666992188 468.000976562 379 464.000976562 c 0
 387 460.000976562 394 454.000976562 400 446.000976562 c 0
 405.333007812 438.000976562 408.333007812 428.66796875 409 418.000976562 c 0
 409.666992188 413.333984375 410 408.666992188 410 404 c 0
413 124.001953125 m 0
 413 108.001953125 410.66796875 91.6689453125 406.000976562 75.001953125 c 0
 402.000976562 58.3349609375 391.66796875 46.001953125 375.000976562 38.001953125 c 0
 361.000976562 31.3349609375 347.66796875 27.66796875 335.000976562 27.0009765625 c 0
 318.333984375 27.0009765625 302.000976562 32.0009765625 286.000976562 42.0009765625 c 0
 270.000976562 52.0009765625 261.333984375 66.0009765625 260.000976562 84.0009765625 c 0
 259.333984375 102.66796875 258.666992188 113.334960938 258 116.001953125 c 0
 258 118.668945312 258.333007812 124.668945312 259 134.001953125 c 0
 259.666992188 143.334960938 260.333984375 150.66796875 261.000976562 156.000976562 c 0
 261.000976562 166.66796875 264.000976562 176.000976562 270.000976562 184.000976562 c 0
 276.000976562 192.000976562 284.000976562 197.333984375 294.000976562 200.000976562 c 0
 307.333984375 204.66796875 320.333984375 207.000976562 333.000976562 207.000976562 c 0
 345.000976562 207.000976562 355.66796875 205.66796875 365.000976562 203.000976562 c 0
 374.333984375 200.333984375 383.666992188 194.333984375 393 185.000976562 c 0
 402.333007812 176.333984375 408 165.333984375 410 152.000976562 c 0
 412 142.66796875 413 133.334960938 413 124.001953125 c 0
EndSplineSet
EndChar

StartChar: semicolon
Encoding: 59 59 27
Width: 670
GlyphClass: 2
Flags: W
HStem: 253 180.001<308.717 417.135>
VStem: 287.025 153<275.988 416.875>
LayerCount: 2
Fore
SplineSet
440.025390625 363 m 2
 440.025390625 343.666992188 437.024414062 323.333984375 431.024414062 302.000976562 c 0
 427.024414062 285.333984375 418.024414062 272.666992188 404.024414062 264 c 0
 392.024414062 256.666992188 380.024414062 253 368.024414062 253 c 0
 358.69140625 253 348.357421875 255 337.025390625 259 c 0
 325.692382812 263 315.359375 269 306.025390625 277 c 0
 296.025390625 286.333007812 290.359375 297.333007812 289.025390625 310 c 1
 287.693359375 322 287.025390625 334.333007812 287.025390625 347 c 0
 287.025390625 359.666992188 287.359375 371 288.025390625 381 c 0
 288.693359375 391.666992188 292.025390625 401 298.025390625 409 c 0
 304.025390625 417 311.359375 422.333007812 320.025390625 425 c 0
 334.693359375 429.666992188 348.693359375 432.333984375 362.025390625 433.000976562 c 0
 372.025390625 433.000976562 380.359375 432.000976562 387.025390625 430.000976562 c 0
 394.359375 428.66796875 402.025390625 426.000976562 410.025390625 422.000976562 c 0
 418.025390625 418.000976562 424.693359375 412.333984375 430.025390625 405.000976562 c 0
 435.359375 396.333984375 438.692382812 386.666992188 440.025390625 376 c 2
 440.025390625 363 l 2
420.024414062 79 m 2
 420.025390625 73 l 2
 418.025390625 51 396.357421875 -36.6669921875 355.025390625 -190 c 0
 350.357421875 -206.666992188 341.69140625 -219 329.024414062 -227 c 0
 317.69140625 -234.333007812 306.357421875 -238 295.025390625 -238 c 0
 277.692382812 -238 262.025390625 -233 248.025390625 -223 c 0
 235.9921875 -214.133789062 229.974609375 -202.258789062 229.974609375 -187.375976562 c 0
 229.974609375 -168.400390625 240.478515625 -113.73046875 250.025390625 -65.9990234375 c 0
 263.357421875 0.0009765625 274.025390625 49.333984375 282.025390625 82.0009765625 c 0
 284.692382812 93.333984375 288.359375 103.000976562 293.025390625 111.000976562 c 0
 298.359375 119.000976562 304.359375 124.000976562 311.025390625 126.000976562 c 0
 320.359375 129.333984375 329.359375 131.333984375 338.025390625 132.000976562 c 0
 341.359375 132.000976562 344.692382812 131.66796875 348.025390625 131.000976562 c 0
 362.025390625 131.000976562 376.357421875 127.66796875 391.025390625 121.000976562 c 0
 400.357421875 117.000976562 407.69140625 110.66796875 413.024414062 102.000976562 c 0
 417.69140625 95.333984375 420.024414062 87.6669921875 420.024414062 79 c 2
EndSplineSet
EndChar

StartChar: less
Encoding: 60 60 28
Width: 670
GlyphClass: 2
Flags: W
HStem: -25 21G<525.667 532.667>
LayerCount: 2
Fore
SplineSet
531 -25 m 0
 520.333007812 -25 508.333007812 -22.662109375 495 -17.9951171875 c 0
 477 -12.662109375 455.333007812 -0.662109375 430 18.0048828125 c 0
 404.666992188 36.671875 377.666992188 58.671875 349 84.0048828125 c 0
 320.333007812 109.337890625 292 135.004882812 264 161.004882812 c 0
 236 187.004882812 206.666992188 213.671875 176 241.004882812 c 0
 145.333007812 268.337890625 119.333007812 290.004882812 98 306.004882812 c 0
 87.3330078125 314.004882812 80 325.004882812 76 339.004882812 c 0
 74.6669921875 345.004882812 74 351.671875 74 359.004882812 c 0
 74 365.671875 75 372.671875 77 380.004882812 c 0
 81 394.004882812 88.3330078125 404.004882812 99 410.004882812 c 0
 136.333007812 438.004882812 180.666015625 473.004882812 231.999023438 515.004882812 c 0
 282.666015625 557.671875 329.333007812 596.004882812 372 630.004882812 c 0
 414.666992188 664.671875 453 692.004882812 487 712.004882812 c 0
 500.333007812 720.671875 513.666015625 725.004882812 526.999023438 725.004882812 c 0
 536.999023438 725.004882812 545.666015625 722.671875 552.999023438 718.004882812 c 0
 567.666015625 709.337890625 578.333007812 697.670898438 585 683.00390625 c 0
 588.333007812 676.336914062 590 669.00390625 590 661.00390625 c 0
 590 653.00390625 587.666992188 644.670898438 583 636.00390625 c 0
 575 622.670898438 558.666992188 607.670898438 534 591.00390625 c 0
 497.333007812 565.00390625 444 524.670898438 374 470.00390625 c 0
 304 415.336914062 256.666992188 378.669921875 232 360.002929688 c 1
 254.666992188 342.002929688 280.666992188 319.669921875 310 293.002929688 c 0
 340 266.3359375 367 241.668945312 391 219.001953125 c 0
 415 196.334960938 441 173.001953125 469 149.001953125 c 0
 497 125.001953125 521.666992188 106.334960938 543 93.001953125 c 0
 565 79.001953125 580 65.6689453125 588 53.001953125 c 0
 593.333007812 45.001953125 596 36.6689453125 596 28.001953125 c 0
 596 21.3349609375 594.666992188 14.66796875 592 8.0009765625 c 0
 583.333007812 -10.666015625 566 -21.3330078125 540 -24 c 0
 537.333007812 -24.6669921875 534.333007812 -25 531 -25 c 0
EndSplineSet
EndChar

StartChar: equal
Encoding: 61 61 29
Width: 670
GlyphClass: 2
Flags: W
HStem: 235 107<147.504 524.621> 435 106<149.565 524.621>
LayerCount: 2
Fore
SplineSet
484 541 m 0
 503.333007812 541 517 536.333007812 525 527 c 0
 533 517.666992188 537.66796875 506 539 492 c 2
 539 491 l 2
 539 483.666992188 538.333007812 477 537 471 c 0
 535.66796875 465 533 459 529 453 c 0
 525 447 518.66796875 442 510 438 c 0
 504 435.333007812 497.66796875 434.333007812 491 435 c 2
 483 435 l 2
 459 435.666992188 434.333007812 436 409 436 c 2
 299 433 l 2
 252.333007812 431.666992188 218 431 196 431 c 0
 176.66796875 431 161 436 149 446 c 0
 137 456 131 468.666992188 131 484 c 2
 131 487 l 2
 131 501 135.66796875 513.666992188 145 525 c 0
 155 535.666992188 169.333007812 541 188 541 c 2
 192 541 l 2
 231.599609375 539.799804688 274.91796875 539.200195312 321.95703125 539.200195312 c 0
 353.318359375 539.200195312 386.33203125 539.466796875 421 540 c 0
 455.66796875 540.666992188 476.66796875 541 484 541 c 0
491 239 m 2
 483 239 l 2
 467.66796875 239.666992188 453.66796875 240 441 240 c 0
 413 240 370 239.333007812 312 238 c 0
 254 236 214.66796875 235 194 235 c 0
 173.333007812 235 157.666015625 240.333007812 147 251 c 0
 136.33203125 261.666992188 131 274.666992188 131 290 c 2
 131 292 l 2
 131 306 136.33203125 318 147 328 c 0
 157.666015625 337.333007812 172.666015625 342 192 342 c 2
 210 342 l 2
 224.228515625 341.77734375 239.94140625 341.666015625 257.13671875 341.666015625 c 0
 291.5 341.666015625 331.7890625 342.110351562 378 342.999023438 c 2
 484 344.999023438 l 2
 503.33203125 344.999023438 517 340.33203125 525 330.999023438 c 0
 533 321.666015625 537.666015625 309.999023438 539 295.999023438 c 2
 539 294.999023438 l 2
 539 287.666015625 538.33203125 281.333007812 537 276 c 0
 535.666015625 270 533 264 529 258 c 0
 525 251.333007812 518.666015625 246 510 242 c 0
 504.666015625 240 498.333007812 239 491 239 c 2
EndSplineSet
EndChar

StartChar: greater
Encoding: 62 62 30
Width: 670
GlyphClass: 2
Flags: W
HStem: -18 21G<138.334 149.667>
LayerCount: 2
Fore
SplineSet
143.000976562 -18 m 0
 133.66796875 -18 124.999023438 -15.6708984375 116.999023438 -11.00390625 c 0
 109.666015625 -6.3369140625 102.999023438 -1.00390625 96.9990234375 4.99609375 c 0
 91.666015625 10.99609375 87.666015625 17.6630859375 84.9990234375 24.99609375 c 0
 81.666015625 31.6630859375 79.666015625 38.6630859375 78.9990234375 45.99609375 c 0
 78.9990234375 53.99609375 81.666015625 62.3291015625 86.9990234375 70.99609375 c 0
 94.9990234375 84.3291015625 110.999023438 99.3291015625 134.999023438 115.99609375 c 0
 171.666015625 141.99609375 225.333007812 182.329101562 296 236.99609375 c 0
 366 291.663085938 413.333007812 328.330078125 438 346.997070312 c 1
 415.333007812 364.997070312 389 387.330078125 359 413.997070312 c 0
 329 440.6640625 302.333007812 465.331054688 279 487.998046875 c 0
 255 510.665039062 229 533.998046875 201 557.998046875 c 0
 173 581.998046875 148.333007812 600.665039062 127 613.998046875 c 0
 105 627.998046875 90 641.331054688 82 653.998046875 c 0
 76.6669921875 661.998046875 74 670.665039062 74 679.998046875 c 0
 74 686.665039062 75.3330078125 692.998046875 78 698.998046875 c 0
 86.6669921875 717.665039062 104 728.33203125 130 730.999023438 c 0
 133.333007812 731.666015625 136.333007812 731.999023438 139 731.999023438 c 0
 149.666992188 731.999023438 161.666992188 729.666015625 175 724.999023438 c 0
 193 719.666015625 214.666992188 707.666015625 240 688.999023438 c 0
 265.333007812 670.33203125 292.333007812 648.33203125 321 622.999023438 c 0
 349.666992188 597.666015625 378 571.999023438 406 545.999023438 c 0
 434 519.999023438 463.333007812 493.33203125 494 465.999023438 c 0
 524.666992188 438.666015625 550.666992188 417.333007812 572 402 c 0
 582.666992188 394 590 382.666992188 594 368 c 0
 595.333007812 362 596 355.333007812 596 348 c 0
 596 341.333007812 595 334.333007812 593 327 c 0
 589 313 581.666992188 303 571 297 c 0
 533.666992188 269.666992188 489.333984375 234.666992188 438.000976562 192 c 0
 387.333984375 149.333007812 340.666992188 111 298 77 c 0
 255.333007812 43 217 15.6669921875 183 -5 c 0
 169.666992188 -13.6669921875 156.333984375 -18 143.000976562 -18 c 0
EndSplineSet
EndChar

StartChar: question
Encoding: 63 63 31
Width: 670
GlyphClass: 2
Flags: W
HStem: -26.002 178.001<254.893 371.37> 508.999 21G<175.334 190.001> 625 109.069<276.464 405.065>
VStem: 219.004 187<7.88811 117.73> 252.004 125.996<216.992 316.186> 430.039 124.961<484.855 602.144>
LayerCount: 2
Fore
SplineSet
322 201 m 0xec
 316 201 309.669921875 201.665039062 303.00390625 202.998046875 c 0
 269.669921875 211.665039062 252.669921875 232.33203125 252.00390625 264.999023438 c 0
 252.00390625 274.33203125 253.669921875 284.33203125 257.00390625 294.999023438 c 0
 261.669921875 314.33203125 268.669921875 332.33203125 278.00390625 348.999023438 c 0
 287.3359375 365.666015625 297.668945312 379.999023438 309.001953125 391.999023438 c 0
 319.668945312 403.999023438 331.001953125 414.999023438 343.001953125 424.999023438 c 0
 355.001953125 435.666015625 366.3359375 445.333007812 377.001953125 454 c 0
 387.668945312 462.666992188 397.001953125 471.666992188 405.001953125 481 c 0
 421.692382812 498.975585938 430.0390625 517.568359375 430.0390625 536.779296875 c 0
 430.0390625 554.662109375 428.403320312 586.278320312 405.000976562 605 c 0
 387.8203125 618.36328125 363.046875 625.045898438 330.6796875 625.045898438 c 0
 329.13671875 625.045898438 327.578125 625.030273438 326.000976562 625 c 0
 318.000976562 625 310.333984375 623.333007812 303.000976562 620 c 0
 295.000976562 616 287.66796875 611.666992188 281.000976562 607 c 0
 275.000976562 602.333007812 268.333984375 595.666015625 261.000976562 586.999023438 c 0
 253.66796875 578.33203125 248.000976562 570.999023438 244.000976562 564.999023438 c 0
 240.000976562 558.999023438 234.66796875 551.666015625 228.000976562 542.999023438 c 0
 222.000976562 533.666015625 215.333984375 525.999023438 208.000976562 519.999023438 c 0
 201.333984375 513.999023438 194.000976562 510.33203125 186.000976562 508.999023438 c 2
 177.000976562 508.999023438 l 2
 173.66796875 508.999023438 169.66796875 509.666015625 165.000976562 510.999023438 c 0
 160.333984375 512.33203125 153.66796875 514.665039062 145 517.998046875 c 0
 130.333007812 525.998046875 121 537.331054688 117 551.998046875 c 2
 115 563.998046875 l 2
 115 575.331054688 118.666992188 588.998046875 126 604.998046875 c 0
 133.333007812 619.665039062 142.666015625 633.665039062 154 646.998046875 c 0
 165.33203125 660.998046875 179 674.665039062 195 687.998046875 c 0
 211 701.998046875 230 713.331054688 252 721.998046875 c 0
 272.426757812 730.045898438 294.00390625 734.069335938 316.731445312 734.069335938 c 0
 318.48046875 734.069335938 320.236328125 734.045898438 322 733.998046875 c 0
 397.33203125 733.998046875 455 716.331054688 495 680.998046875 c 0
 535 645.665039062 555 592.665039062 555 521.998046875 c 0
 555 502.665039062 551.666015625 484.998046875 545 468.998046875 c 0
 539 452.998046875 531 438.998046875 521 426.998046875 c 0
 511 415.665039062 500 405.33203125 488 395.999023438 c 2
 452 367.999023438 l 2
 440 358.666015625 429 349.333007812 419 340 c 0
 409 330.666992188 400.33203125 319 393 305 c 0
 385.666015625 291.666992188 380.666015625 276.666992188 378 260 c 0
 374.666015625 240 367.333007812 224.666992188 356 214 c 0
 347.333007812 205.333007812 336 201 322 201 c 0xec
305.00390625 -26.001953125 m 2
 281.669921875 -26.001953125 262.00390625 -18.0029296875 246.00390625 -2.0029296875 c 0
 228.00390625 16.6640625 219.00390625 38.3310546875 219.00390625 62.998046875 c 0
 219.00390625 87.6650390625 228.669921875 108.33203125 248.00390625 124.999023438 c 0
 268.669921875 142.999023438 292.336914062 151.999023438 319.00390625 151.999023438 c 0
 343.671875 151.999023438 364.00390625 143.999023438 380.00390625 127.999023438 c 0
 397.336914062 110.666015625 406.00390625 89.9990234375 406.00390625 65.9990234375 c 0xf4
 406.00390625 41.33203125 397.671875 20.6650390625 381.00390625 3.998046875 c 0
 364.336914062 -12.6689453125 342.669921875 -22.6689453125 316.00390625 -26.001953125 c 2
 305.00390625 -26.001953125 l 2
EndSplineSet
EndChar

StartChar: at
Encoding: 64 64 32
Width: 670
GlyphClass: 2
Flags: W
HStem: -141.995 110<268.143 421.131> 105.006 104.999<297.361 357.78> 369.005 101.001<309.14 409.622> 601.005 113.998<290.093 428.154>
VStem: 65 110.996<95.6791 430.758> 188 100.998<212.861 350.422> 370 104.799<217.922 335.271> 507.997 97.0029<192.56 481.464>
LayerCount: 2
Fore
SplineSet
408 148 m 1
 388.66796875 119.333007812 361 105.005859375 325 105.005859375 c 0
 281.66796875 105.005859375 248 118.672851562 224 146.005859375 c 0
 200 173.338867188 188 214.005859375 188 268.005859375 c 0
 188 294.672851562 191 319.005859375 197 341.005859375 c 0
 203 363.672851562 211 383.005859375 221 399.005859375 c 0
 231.66796875 415.005859375 244 428.672851562 258 440.005859375 c 0
 283.333007812 460.005859375 313 470.005859375 347 470.005859375 c 0
 367.66796875 470.005859375 388 466.338867188 408 459.005859375 c 0
 425.333007812 452.338867188 439 443.005859375 449 431.005859375 c 0
 457 421.672851562 461 412.672851562 461 404.005859375 c 0
 461 399.338867188 459.66796875 394.338867188 457 389.005859375 c 0
 454.333007812 383.672851562 450.666015625 378.672851562 446 374.005859375 c 0
 441.33203125 369.338867188 436 366.005859375 430 364.005859375 c 0
 421.33203125 361.338867188 414.665039062 360.005859375 409.998046875 360.005859375 c 0
 401.998046875 360.005859375 392.33203125 361.338867188 380.998046875 364.005859375 c 0
 377.665039062 364.672851562 372.665039062 366.005859375 365.998046875 368.005859375 c 0
 358.665039062 369.338867188 351.665039062 369.671875 344.998046875 369.004882812 c 0
 338.33203125 368.337890625 331.6640625 366.004882812 324.997070312 362.004882812 c 0
 318.330078125 358.004882812 312.330078125 352.671875 306.997070312 346.004882812 c 0
 301.6640625 339.337890625 297.33203125 330.337890625 293.998046875 319.004882812 c 0
 290.665039062 307.671875 288.998046875 294.671875 288.998046875 280.004882812 c 0
 288.998046875 272.004882812 289.665039062 264.337890625 290.998046875 257.004882812 c 0
 291.665039062 249.671875 293.33203125 242.004882812 296 234.004882812 c 0
 301.33203125 218.004882812 310 210.004882812 322 210.004882812 c 0
 329.33203125 210.004882812 336 211.337890625 342 214.004882812 c 0
 348 216.671875 352.666015625 221.338867188 356 228.005859375 c 0
 364 242.672851562 368.666015625 268.005859375 370 304.005859375 c 0
 370.666015625 320.005859375 381.666015625 332.338867188 403 341.005859375 c 0
 414.2578125 345.74609375 424.462890625 348.116210938 433.614257812 348.116210938 c 0
 434.758789062 348.116210938 435.887695312 348.079101562 437 348.004882812 c 0
 445 348.004882812 452 347.004882812 458 345.004882812 c 0
 471.33203125 339.671875 478.33203125 330.004882812 479 316.004882812 c 0
 479 314.671875 478.666015625 313.338867188 478 312.005859375 c 0
 475.865234375 293.340820312 474.798828125 277.021484375 474.798828125 263.048828125 c 0
 474.798828125 259.5546875 474.865234375 256.20703125 475 253.005859375 c 0
 475 234.338867188 476.666015625 219.005859375 480 207.005859375 c 0
 481.33203125 202.338867188 482.665039062 199.005859375 483.998046875 197.005859375 c 0
 485.998046875 193.672851562 488.665039062 192.005859375 491.998046875 192.005859375 c 0
 493.33203125 193.338867188 494.6640625 195.338867188 495.997070312 198.005859375 c 0
 499.330078125 206.005859375 501.997070312 216.338867188 503.997070312 229.005859375 c 0
 506.6640625 253.005859375 507.997070312 275.005859375 507.997070312 295.005859375 c 0
 507.997070312 328.338867188 506.330078125 359.338867188 502.997070312 388.005859375 c 0
 500.330078125 416.005859375 496.6640625 440.005859375 491.99609375 460.005859375 c 0
 487.329101562 480.005859375 481.662109375 497.672851562 474.99609375 513.005859375 c 0
 467.662109375 529.005859375 461.329101562 541.672851562 455.99609375 551.005859375 c 0
 449.99609375 560.338867188 442.6640625 568.338867188 433.99609375 575.005859375 c 0
 425.329101562 581.672851562 417.99609375 586.672851562 411.99609375 590.005859375 c 0
 405.99609375 593.338867188 398.99609375 595.671875 390.99609375 597.004882812 c 0
 382.99609375 599.004882812 376.6640625 600.004882812 371.99609375 600.004882812 c 0
 367.99609375 600.004882812 362.6640625 600.337890625 355.99609375 601.004882812 c 0
 331.99609375 601.004882812 309.329101562 593.337890625 287.99609375 578.004882812 c 0
 266.6640625 562.671875 247.6640625 540.671875 230.99609375 512.004882812 c 0
 214.329101562 483.337890625 200.99609375 447.670898438 190.99609375 405.00390625 c 0
 180.99609375 362.336914062 175.99609375 315.336914062 175.99609375 264.00390625 c 0
 175.99609375 219.336914062 179.329101562 179.336914062 185.99609375 144.00390625 c 0
 192.6640625 108.670898438 201.330078125 80.337890625 211.997070312 59.0048828125 c 0
 222.6640625 37.671875 234.997070312 20.0048828125 248.997070312 6.0048828125 c 0
 262.997070312 -7.9951171875 276.6640625 -17.9951171875 289.997070312 -23.9951171875 c 0
 303.330078125 -29.328125 317.997070312 -31.9951171875 333.997070312 -31.9951171875 c 0
 349.997070312 -31.9951171875 364.6640625 -30.328125 377.997070312 -26.9951171875 c 0
 391.330078125 -23.662109375 402.330078125 -19.9951171875 410.997070312 -15.9951171875 c 0
 419.6640625 -11.9951171875 427.6640625 -6.328125 434.997070312 1.0048828125 c 0
 442.997070312 8.337890625 449.330078125 15.337890625 453.997070312 22.0048828125 c 0
 458.6640625 28.671875 463.997070312 36.671875 469.997070312 46.0048828125 c 0
 472.6640625 51.337890625 474.997070312 55.337890625 476.997070312 58.0048828125 c 0
 478.997070312 60.671875 481.6640625 64.0048828125 484.997070312 68.0048828125 c 0
 487.6640625 72.0048828125 490.33203125 75.337890625 492.998046875 78.0048828125 c 0
 495.665039062 80.0048828125 498.998046875 82.0048828125 502.998046875 84.0048828125 c 0
 506.998046875 86.0048828125 511.665039062 87.0048828125 516.998046875 87.0048828125 c 0
 521.665039062 87.0048828125 526.665039062 86.0048828125 531.998046875 84.0048828125 c 0
 538.665039062 81.337890625 544.33203125 78.0048828125 549 74.0048828125 c 0
 553.666015625 70.0048828125 557.333007812 65.0048828125 560 59.0048828125 c 0
 562.66796875 53.671875 563.66796875 48.0048828125 563 42.0048828125 c 0
 563 30.671875 560 17.0048828125 554 1.0048828125 c 0
 550 -8.9951171875 546.333007812 -17.662109375 543 -24.9951171875 c 0
 539 -32.328125 533.66796875 -41.328125 527 -51.9951171875 c 0
 520.333007812 -62.662109375 513 -71.9951171875 505 -79.9951171875 c 0
 497 -87.9951171875 487.333007812 -95.9951171875 476 -103.995117188 c 0
 464 -111.995117188 451 -118.995117188 437 -124.995117188 c 0
 423 -130.328125 407 -134.328125 389 -136.995117188 c 0
 371 -140.328125 352.333007812 -141.995117188 333 -141.995117188 c 2
 327 -141.995117188 l 2
 289.66796875 -141.995117188 255 -132.662109375 223 -113.995117188 c 0
 190.333007812 -95.328125 162.333007812 -69.9951171875 139 -37.9951171875 c 0
 115.666992188 -5.9951171875 97.6669921875 33.0048828125 85 79.0048828125 c 0
 71.6669921875 125.004882812 65 174.671875 65 228.004882812 c 0
 65 287.337890625 69.6669921875 342.670898438 79 394.00390625 c 0
 88.3330078125 445.336914062 101.333007812 490.669921875 118 530.002929688 c 0
 135.333007812 568.669921875 155.666015625 602.002929688 179 630.002929688 c 0
 202.33203125 658.002929688 228.33203125 679.002929688 257 693.002929688 c 0
 285.666015625 707.002929688 316.333007812 714.3359375 349 715.002929688 c 0
 372.333007812 715.002929688 393.333007812 713.002929688 412 709.002929688 c 0
 431.333007812 705.669921875 450 699.669921875 468 691.002929688 c 0
 486 681.669921875 502 669.669921875 516 655.002929688 c 0
 530 640.3359375 542.66796875 622.002929688 554 600.002929688 c 0
 565.333007812 578.002929688 574.666015625 552.3359375 582 523.002929688 c 0
 597.33203125 461.669921875 605 385.002929688 605 293.002929688 c 0
 605 242.3359375 597.666015625 197.668945312 583 159.001953125 c 0
 575 138.334960938 563.33203125 121.66796875 548 109.000976562 c 0
 532.666015625 96.333984375 514.333007812 89.6669921875 493 89 c 0
 462.333007812 89 439 99.3330078125 423 120 c 0
 417 128 412 137.333007812 408 148 c 1
EndSplineSet
EndChar

StartChar: A
Encoding: 65 65 33
Width: 670
GlyphClass: 2
Flags: W
HStem: -5.99902 21G<94.999 102.999 562.668 568.668> 251.001 91.998<272.713 428.998>
LayerCount: 2
Fore
SplineSet
269.998046875 331.999023438 m 1
 327.998046875 337.999023438 380.998046875 341.666015625 428.998046875 342.999023438 c 1
 378.998046875 568.999023438 l 1
 350.331054688 520.33203125 313.998046875 441.33203125 269.998046875 331.999023438 c 1
158.002929688 49 m 0
 150.669921875 25 139.33203125 8.9990234375 123.999023438 0.9990234375 c 0
 115.33203125 -3.66796875 106.999023438 -5.9990234375 98.9990234375 -5.9990234375 c 0
 90.9990234375 -5.9990234375 83.33203125 -4.333984375 75.9990234375 -1.0009765625 c 0
 63.9990234375 4.33203125 55.33203125 12.6650390625 49.9990234375 23.998046875 c 0
 45.9990234375 32.6650390625 43.9990234375 42.1650390625 43.9990234375 52.498046875 c 0
 43.9990234375 62.8310546875 45.33203125 73.998046875 47.9990234375 85.998046875 c 0
 51.9990234375 106.665039062 70.33203125 154.665039062 102.999023438 229.998046875 c 1
 93.666015625 238.665039062 88.3330078125 249.33203125 87 261.999023438 c 2
 87 263.999023438 l 2
 87 275.33203125 92.6669921875 285.999023438 104 295.999023438 c 0
 113.333007812 304.666015625 125 311.333007812 139 316 c 1
 225 498.666992188 291.666992188 621 339 683 c 0
 350.333007812 697 361 707.333007812 371 714 c 0
 381 721.333007812 392.333007812 725 405 725 c 2
 413 725 l 2
 426.333007812 725 438.333007812 722 449 716 c 0
 463.666992188 708 472.666992188 695.333007812 476 678 c 0
 490.666992188 598 514.666992188 485 548 339 c 0
 566.666992188 257.666992188 581.333984375 197.833984375 592.000976562 159.500976562 c 0
 602.66796875 121.16796875 610.66796875 97.66796875 616.000976562 89.0009765625 c 0
 622.66796875 77.0009765625 626.000976562 65.66796875 626.000976562 55.0009765625 c 2
 626.000976562 49 l 2
 624.66796875 37 620.500976562 26.66796875 613.500976562 18.0009765625 c 0
 606.500976562 9.333984375 598.333984375 2.9990234375 589.000976562 -1.0009765625 c 0
 577.66796875 -4.333984375 570.334960938 -5.9990234375 567.001953125 -5.9990234375 c 0
 558.334960938 -5.9990234375 549.66796875 -3.66796875 541.000976562 0.9990234375 c 0
 525.66796875 8.9990234375 513.334960938 24.66796875 504.001953125 48.0009765625 c 0
 494.668945312 69.333984375 477.001953125 137.000976562 451.001953125 251.000976562 c 1
 367.668945312 247.66796875 292.3359375 241.000976562 225.002929688 231.000976562 c 1
 202.3359375 178.333984375 180.002929688 117.666992188 158.002929688 49 c 0
EndSplineSet
EndChar

StartChar: B
Encoding: 66 66 34
Width: 670
GlyphClass: 2
Flags: W
HStem: -23 21G<148.333 155.666> -9.65137 90.1543<240.37 280.727> 285.003 96.4492<192 383.74> 605.004 103.999<196.532 388>
VStem: 68 121<82.114 137.826 144.104 285.003 383.002 598.597> 443 119<431.807 557.715> 480 124<157.259 228.28>
LayerCount: 2
Fore
SplineSet
71 41 m 2xba
 72.3330078125 60.3330078125 73.3330078125 93.3369140625 74 140.00390625 c 0
 74 227.336914062 72 324.00390625 68 430.00390625 c 1
 66.6669921875 473.336914062 66 502.50390625 66 517.50390625 c 0
 66 532.50390625 66.5 552.50390625 67.5 577.50390625 c 0
 68.5 602.50390625 69 620.00390625 69 630.00390625 c 0
 69.6669921875 650.670898438 75.833984375 666.50390625 87.5009765625 677.50390625 c 0
 99.16796875 688.50390625 113.66796875 694.00390625 131.000976562 694.00390625 c 2
 134.000976562 694.00390625 l 1
 152 699.336914062 174.333984375 703.336914062 201 706.00390625 c 0
 211.66796875 707.336914062 223.16796875 708.169921875 235.5 708.502929688 c 0
 247.833984375 708.8359375 257.333984375 709.002929688 264 709.002929688 c 2
 286 709.002929688 l 1
 298 709.002929688 l 2
 349.333984375 709.002929688 395.333984375 700.669921875 436 684.002929688 c 0
 476 666.669921875 506.66796875 642.002929688 528 610.002929688 c 0
 550.66796875 576.669921875 562 537.669921875 562 493.002929688 c 0xbc
 562 455.002929688 552.66796875 422.002929688 534 394.002929688 c 0
 519.333984375 372.669921875 501 355.669921875 479 343.002929688 c 1
 493.66796875 336.3359375 508 328.668945312 522 320.001953125 c 0
 544.66796875 305.334960938 564 288.66796875 580 270.000976562 c 0
 596 251.333984375 604 233.000976562 604 215.000976562 c 2
 604 214.000976562 l 2
 604 188.000976562 597.16796875 162.333984375 583.5 137.000976562 c 0
 569.833984375 111.66796875 550.166992188 88.5009765625 524.5 67.5009765625 c 0
 498.83203125 46.5009765625 464.666015625 28.66796875 421.999023438 14.0009765625 c 0
 379.33203125 -0.666015625 332.33203125 -9.9990234375 280.999023438 -13.9990234375 c 1
 275.202148438 -11.1005859375 269.341796875 -9.6513671875 263.41796875 -9.6513671875 c 0x7a
 255.71875 -9.6513671875 247.912109375 -12.1005859375 239.999023438 -16.9990234375 c 1
 205.33203125 -19.666015625 183.999023438 -21.3330078125 175.999023438 -22 c 0
 167.33203125 -22.6669921875 159.33203125 -23 151.999023438 -23 c 0
 144.666015625 -23 137.333007812 -22.3330078125 130 -21 c 2
 128 -21 l 2
 111.333007812 -21 97.3330078125 -15.3330078125 86 -4 c 0
 76 6 71 19 71 35 c 2
 71 41 l 2xba
189 403.00390625 m 2
 189 383.001953125 l 1
 218.33203125 382.334960938 245 381.834960938 269 381.501953125 c 0
 271.3984375 381.46875 273.76171875 381.452148438 276.08984375 381.452148438 c 0
 297.0625 381.452148438 315.19921875 382.801757812 330.5 385.501953125 c 0
 347.5 388.501953125 361.666992188 392.334960938 373 397.001953125 c 0
 384.33203125 401.668945312 394.33203125 407.3359375 403 414.002929688 c 0
 411.666992188 420.669921875 418.333984375 427.336914062 423 434.00390625 c 0
 427.66796875 440.670898438 431.5 448.170898438 434.5 456.50390625 c 0
 437.5 464.836914062 439.66796875 472.336914062 441 479.00390625 c 0
 442.333984375 485.670898438 443 492.670898438 443 500.00390625 c 0
 443 514.670898438 439.66796875 528.170898438 433 540.50390625 c 0
 426.333984375 552.836914062 417.833984375 563.00390625 407.5 571.00390625 c 0
 397.16796875 579.00390625 385.334960938 585.670898438 372.001953125 591.00390625 c 0
 349.502929688 600.37890625 325.831054688 605.06640625 300.98828125 605.06640625 c 0
 299.331054688 605.06640625 297.66796875 605.045898438 296.001953125 605.00390625 c 0
 261.334960938 605.00390625 227.66796875 602.00390625 195 596.00390625 c 1
 194.333984375 584.00390625 193.666992188 566.00390625 193 542.00390625 c 0
 190.33203125 493.336914062 189 447.00390625 189 403.00390625 c 2
465.5 165.501953125 m 0
 475.166992188 177.834960938 480 189.004882812 480 199.004882812 c 0
 480 204.337890625 476.666992188 210.670898438 470 218.00390625 c 0
 463.33203125 225.336914062 452.666015625 233.169921875 437.999023438 241.502929688 c 0
 423.33203125 249.8359375 402.33203125 258.002929688 374.999023438 266.002929688 c 0
 347.666015625 274.002929688 316.33203125 280.3359375 281 285.002929688 c 1
 192 285.002929688 l 1
 194.666992188 193.002929688 197 124.669921875 199 80.0029296875 c 1
 206.33203125 80.0029296875 217 80.169921875 231 80.5029296875 c 0x7a
 245 80.8359375 257 81.3359375 267 82.0029296875 c 0
 299 83.3359375 329 88.3359375 357 97.0029296875 c 0
 385 105.669921875 407.666992188 116.169921875 425 128.502929688 c 0
 442.33203125 140.8359375 455.83203125 153.168945312 465.5 165.501953125 c 0
EndSplineSet
EndChar

StartChar: C
Encoding: 67 67 35
Width: 670
GlyphClass: 2
Flags: W
HStem: -30.998 114.001<247.458 427.021> 494.006 246.994<501.917 592.658> 608.006 104.995<363.245 489.259>
VStem: 53 123.999<159.984 372.712> 489 127<517.69 584.105>
LayerCount: 2
Fore
SplineSet
607.998046875 692 m 0xd8
 613.998046875 666 617 638.338867188 617 609.005859375 c 0
 617 589.005859375 616.666992188 577.005859375 616 573.005859375 c 0
 616 556.338867188 610 539.505859375 598 522.505859375 c 0
 586 505.505859375 573 496.338867188 559 495.005859375 c 0
 556.333984375 494.338867188 553.333984375 494.005859375 550 494.005859375 c 0xd8
 538 494.005859375 526 498.005859375 514 506.005859375 c 0
 497.333984375 516.672851562 489 531.005859375 489 549.005859375 c 0
 489 553.672851562 489.666992188 565.672851562 491 585.005859375 c 1
 481.666992188 591.005859375 475.666992188 594.672851562 473 596.005859375 c 0
 470.333984375 597.338867188 466.666015625 599.338867188 461.999023438 602.005859375 c 0
 453.33203125 606.005859375 444.666015625 608.005859375 435.998046875 608.005859375 c 0
 415.998046875 608.005859375 393.998046875 602.005859375 369.998046875 590.005859375 c 0
 345.998046875 578.005859375 322.666015625 560.505859375 299.998046875 537.505859375 c 0
 277.331054688 514.505859375 256.831054688 488.172851562 238.498046875 458.505859375 c 0
 220.166015625 428.838867188 205.33203125 395.171875 193.999023438 357.504882812 c 0
 182.666015625 319.837890625 176.999023438 282.004882812 176.999023438 244.004882812 c 0
 176.999023438 217.337890625 182.999023438 191.670898438 194.999023438 167.00390625 c 0
 206.999023438 142.336914062 223.499023438 122.169921875 244.499023438 106.502929688 c 0
 265.499023438 90.8359375 287.33203125 83.0029296875 309.999023438 83.0029296875 c 0
 332.666015625 83.0029296875 354.666015625 85.169921875 375.999023438 89.5029296875 c 0
 397.33203125 93.8359375 416.499023438 99.3359375 433.499023438 106.002929688 c 0
 450.499023438 112.669921875 465.166015625 119.502929688 477.499023438 126.502929688 c 0
 489.83203125 133.502929688 500.666015625 140.669921875 509.998046875 148.002929688 c 0
 519.331054688 154.669921875 527.6640625 159.669921875 534.998046875 163.002929688 c 0
 542.998046875 167.002929688 551.830078125 169.002929688 561.498046875 169.002929688 c 0
 571.1640625 169.002929688 580.331054688 166.002929688 588.998046875 160.002929688 c 0
 603.666015625 148.669921875 610.998046875 135.169921875 610.998046875 119.502929688 c 0
 610.998046875 103.8359375 602.666015625 86.6689453125 585.998046875 68.001953125 c 0
 527.998046875 2.001953125 435.331054688 -30.998046875 307.998046875 -30.998046875 c 2
 297.998046875 -30.998046875 l 2
 266.666015625 -30.998046875 237.33203125 -26.3310546875 209.999023438 -16.998046875 c 0
 182.666015625 -7.6650390625 159.666015625 5.16796875 140.999023438 21.5009765625 c 0
 122.33203125 37.833984375 106.33203125 56.333984375 93 77.0009765625 c 0
 79.666015625 97.66796875 69.666015625 119.500976562 63 142.500976562 c 0
 56.33203125 165.500976562 53 188.66796875 53 212.000976562 c 0
 53 260.000976562 58.166015625 306.500976562 68.5 351.500976562 c 0
 78.83203125 396.500976562 92.666015625 437.000976562 109.998046875 473.000976562 c 0
 127.33203125 509.000976562 147.6640625 542.333984375 170.998046875 573.000976562 c 0
 196.330078125 603.66796875 222.998046875 629.000976562 250.998046875 649.000976562 c 0
 278.998046875 669.000976562 308.330078125 684.66796875 338.998046875 696.000976562 c 0
 369.6640625 707.333984375 399.331054688 713.000976562 427.998046875 713.000976562 c 0xb8
 451.331054688 713.000976562 472.998046875 711.000976562 492.998046875 707.000976562 c 1
 496.998046875 714.333984375 501.998046875 720.666992188 507.998046875 726 c 0
 517.331054688 734 527.6640625 738.666992188 538.998046875 740 c 0
 543.6640625 740.666992188 546.331054688 741 546.998046875 741 c 2
 547.998046875 741 l 2
 558.666015625 741 569.666015625 737.666992188 580.998046875 731 c 0
 594.998046875 721.666992188 603.998046875 708.666992188 607.998046875 692 c 0xd8
EndSplineSet
EndChar

StartChar: D
Encoding: 68 68 36
Width: 670
GlyphClass: 2
Flags: W
HStem: -31 109.998<203.756 428.349> 694 20G<106.635 126.635>
VStem: 50.7031 121.477<109.381 166.726 194.179 614.997> 58.3027 125<100.593 519.491> 499.305 119.992<169.195 388.265>
LayerCount: 2
Fore
SplineSet
56.298828125 62 m 2xe8
 57.6318359375 84.6669921875 58.302734375 120.331054688 58.302734375 168.998046875 c 0xd8
 58.302734375 256.998046875 56.302734375 361.331054688 52.302734375 481.998046875 c 1
 51.6357421875 517.998046875 51.1357421875 541.831054688 50.802734375 553.498046875 c 0
 50.736328125 555.830078125 50.703125 558.401367188 50.703125 561.212890625 c 0
 50.703125 572.467773438 51.236328125 587.5625 52.302734375 606.499023438 c 0
 53.6357421875 630.166015625 54.302734375 644.666015625 54.302734375 649.999023438 c 1
 54.9697265625 670.666015625 60.9697265625 686.333007812 72.302734375 697 c 0
 83.6357421875 708.333007812 97.96875 714 115.301757812 714 c 0
 137.96875 714 167.96875 710.666992188 205.301757812 704 c 0
 228.634765625 700 252.467773438 694.5 276.80078125 687.5 c 0
 301.133789062 680.5 327.466796875 670.666992188 355.799804688 658 c 0
 384.1328125 645.333007812 410.965820312 630.833007812 436.298828125 614.5 c 0
 461.631835938 598.166992188 485.96484375 577.333984375 509.297851562 552.000976562 c 0
 531.297851562 527.333984375 550.46484375 500.166992188 566.797851562 470.5 c 0
 583.130859375 440.833007812 595.963867188 405.833007812 605.296875 365.5 c 0
 614.629882812 325.166992188 619.296875 281.666992188 619.296875 235 c 0
 619.296875 211.666992188 615.963867188 187.666992188 609.296875 163 c 0
 602.629882812 138.333007812 592.629882812 114.666015625 579.296875 91.9990234375 c 0
 565.963867188 69.33203125 550.130859375 48.83203125 531.797851562 30.4990234375 c 0
 513.46484375 12.166015625 490.631835938 -2.6669921875 463.298828125 -14 c 0
 435.298828125 -25.3330078125 405.631835938 -31 374.298828125 -31 c 2
 364.298828125 -31 l 2
 331.631835938 -31 298.631835938 -29.5 265.298828125 -26.5 c 0
 231.965820312 -23.5 205.298828125 -20 185.298828125 -16 c 0
 165.298828125 -12 148.798828125 -8.3330078125 135.798828125 -5 c 0
 122.798828125 -1.6669921875 114.965820312 0 112.298828125 0 c 0
 95.6318359375 0 81.6318359375 5.6669921875 70.298828125 17 c 0
 60.923828125 26.375 56.236328125 38.09375 56.236328125 52.1552734375 c 0
 56.236328125 53.0927734375 56.2568359375 54.041015625 56.298828125 55 c 2
 56.298828125 62 l 2xe8
267.802734375 85.9970703125 m 0
 298.135742188 81.330078125 333.3046875 78.998046875 373.3046875 78.998046875 c 0
 390.637695312 78.998046875 407.137695312 84.6650390625 422.8046875 95.998046875 c 0
 438.471679688 107.331054688 451.8046875 122.1640625 462.8046875 140.497070312 c 0
 473.8046875 158.830078125 482.637695312 179.330078125 489.3046875 201.997070312 c 0
 495.971679688 224.6640625 499.3046875 246.6640625 499.3046875 267.997070312 c 0
 499.3046875 388.6640625 445.971679688 480.997070312 339.3046875 544.997070312 c 0
 301.3046875 567.6640625 245.971679688 590.997070312 173.3046875 614.997070312 c 1
 172.5546875 584.499023438 172.1796875 553.485351562 172.1796875 521.955078125 c 0xe8
 172.1796875 469.401367188 173.221679688 415.416015625 175.3046875 359.997070312 c 0
 176.637695312 331.330078125 177.970703125 289.497070312 179.303710938 234.497070312 c 0
 180.63671875 179.497070312 181.969726562 137.330078125 183.302734375 107.997070312 c 1
 209.302734375 97.9970703125 237.469726562 90.6640625 267.802734375 85.9970703125 c 0
EndSplineSet
EndChar

StartChar: E
Encoding: 69 69 37
Width: 670
GlyphClass: 2
Flags: W
HStem: -20 112.001<190.549 534.752> -6 115<274.729 592.326> 301.002 108.999<185.799 459.434> 319.002 106<266.647 578.904> 590 107.999<190.994 594.505>
VStem: 62.7979 124.001<95.1892 301.002 410.001 581.907>
LayerCount: 2
Fore
SplineSet
129.796875 704 m 2x8c
 146.463867188 704 160.469726562 698.666015625 171.802734375 687.999023438 c 1
 229.135742188 694.666015625 302.799804688 697.999023438 392.799804688 697.999023438 c 0
 416.1328125 697.999023438 437.802734375 697.666015625 457.802734375 696.999023438 c 0
 499.135742188 695.666015625 531.46875 693.666015625 554.801757812 690.999023438 c 0
 573.46875 688.999023438 586.96875 683.83203125 595.301757812 675.499023438 c 0
 603.634765625 667.166015625 608.134765625 655.999023438 608.801757812 641.999023438 c 0
 608.801757812 634.666015625 607.96875 627.833007812 606.301757812 621.5 c 0
 604.634765625 615.166992188 602.134765625 609.333984375 598.801757812 604.000976562 c 0
 594.801757812 597.333984375 588.46875 592.333984375 579.801757812 589.000976562 c 0
 573.801757812 586.333984375 567.46875 585.000976562 560.801757812 585.000976562 c 0
 558.134765625 585.000976562 555.467773438 585.333984375 552.80078125 586.000976562 c 0
 514.470703125 588.778320312 474.521484375 590.166992188 432.952148438 590.166992188 c 0
 424.6328125 590.166992188 416.249023438 590.111328125 407.80078125 590 c 2
 353.80078125 590 l 2
 290.467773438 588.666992188 235.467773438 585.333984375 188.80078125 580.000976562 c 1
 186.133789062 522.000976562 184.80078125 465.333984375 184.80078125 410.000976562 c 1xac
 236.133789062 410.66796875 305.466796875 413.334960938 392.799804688 418.001953125 c 0
 478.799804688 422.668945312 527.131835938 425.001953125 537.798828125 425.001953125 c 0
 557.131835938 425.001953125 570.965820312 420.334960938 579.298828125 411.001953125 c 0
 587.631835938 401.668945312 591.798828125 390.001953125 591.798828125 376.001953125 c 0
 591.798828125 360.001953125 588.465820312 347.334960938 581.798828125 338.001953125 c 0
 572.465820312 326.001953125 557.798828125 319.668945312 537.798828125 319.001953125 c 0x1c
 525.798828125 319.001953125 474.131835938 316.334960938 382.798828125 311.001953125 c 0
 289.465820312 305.001953125 223.798828125 301.668945312 185.798828125 301.001953125 c 1
 186.465820312 284.334960938 186.798828125 268.16796875 186.798828125 252.500976562 c 2
 186.798828125 203.000976562 l 2
 187.465820312 158.333984375 188.798828125 127.333984375 190.798828125 110.000976562 c 0
 191.465820312 104.000976562 192.1328125 99.0009765625 192.799804688 95.0009765625 c 0
 206.1328125 93.0009765625 225.965820312 92.0009765625 252.298828125 92.0009765625 c 0xac
 278.631835938 92.0009765625 311.798828125 92.66796875 351.798828125 94.0009765625 c 0
 445.131835938 97.333984375 503.798828125 101.666992188 527.798828125 107 c 0
 537.798828125 108.333007812 546.965820312 109 555.298828125 109 c 0
 563.631835938 109 570.96484375 107.333007812 577.297851562 104 c 0
 583.630859375 100.666992188 588.797851562 97.1669921875 592.797851562 93.5 c 0
 596.797851562 89.8330078125 599.96484375 85.3330078125 602.297851562 80 c 0
 604.630859375 74.6669921875 606.297851562 70 607.297851562 66 c 0
 608.297851562 62 608.801757812 57.6669921875 608.801757812 53 c 0
 608.801757812 37 603.46484375 23 592.797851562 11 c 0
 582.797851562 -0.3330078125 568.797851562 -6.3330078125 550.797851562 -7 c 1
 545.46484375 1.6669921875 540.131835938 2 534.798828125 -6 c 1
 531.798828125 -6 l 2x4c
 516.465820312 -6 487.465820312 -7.3330078125 444.798828125 -10 c 0
 400.798828125 -12.6669921875 355.965820312 -15 310.298828125 -17 c 0
 264.631835938 -19 230.131835938 -20 206.798828125 -20 c 0
 184.131835938 -20 165.46484375 -19.3330078125 150.797851562 -18 c 0
 132.130859375 -16.6669921875 114.130859375 -8 96.7978515625 8 c 0
 79.46484375 24 69.46484375 43 66.7978515625 65 c 0
 64.7978515625 81 63.46484375 109 62.7978515625 149 c 0
 62.7978515625 185.666992188 63.130859375 222.5 63.7978515625 259.5 c 0
 64.46484375 296.5 64.7978515625 327.833007812 64.7978515625 353.5 c 0
 64.7978515625 379.166992188 64.130859375 415 62.7978515625 461 c 0
 62.130859375 499.666992188 61.630859375 525.5 61.2978515625 538.5 c 0
 61.2314453125 541.098632812 61.1982421875 543.916992188 61.1982421875 546.955078125 c 0
 61.1982421875 559.115234375 61.7314453125 574.796875 62.7978515625 594 c 0
 64.130859375 618 64.7978515625 633 64.7978515625 639 c 2
 64.7978515625 640 l 2
 65.46484375 660.666992188 71.46484375 676.5 82.7978515625 687.5 c 0
 94.130859375 698.5 108.463867188 704 125.796875 704 c 2
 129.796875 704 l 2x8c
EndSplineSet
EndChar

StartChar: F
Encoding: 70 70 38
Width: 670
GlyphClass: 2
Flags: W
HStem: -22.002 21G<125.333 133.666> 313.498 106.502<185.999 542.152> 597 109.099<192.966 594.043> 695 20G<130.667 139.667>
VStem: 63 121.749<39.4946 142.728 166.745 310.581 416 589> 67 127.999<-3.56057 304.932>
LayerCount: 2
Fore
SplineSet
131 715 m 0xd8
 148.333007812 715 162.333007812 709.33203125 173 697.999023438 c 1
 250.397460938 703.3984375 325.905273438 706.098632812 399.522460938 706.098632812 c 0
 407.705078125 706.098632812 415.864257812 706.065429688 424 705.999023438 c 0
 477.333007812 705.999023438 521 704.666015625 555 701.999023438 c 0
 573.666992188 700.666015625 587.166992188 695.666015625 595.5 686.999023438 c 0
 603.833007812 678.33203125 608.333007812 666.999023438 609 652.999023438 c 2
 609 651.999023438 l 2
 609 636.666015625 604.166992188 623.333007812 594.5 612 c 0
 584.833007812 600.666992188 570.333007812 595 551 595 c 2
 549 595 l 2
 521.500976562 596.5 492.688476562 597.25 462.565429688 597.25 c 0
 452.522460938 597.25 442.333984375 597.166992188 432 597 c 0
 354.666992188 597 273.666992188 594.333007812 189 589 c 1
 188.333007812 579 187.666015625 563.666992188 186.999023438 543 c 0
 185.499023438 513.500976562 184.749023438 485.501953125 184.749023438 459.002929688 c 0xe8
 184.749023438 450.16796875 184.83203125 441.500976562 184.999023438 433 c 2
 184.999023438 416 l 1
 212.33203125 418.666992188 241.999023438 420 273.999023438 420 c 0
 282.666015625 420 291.333007812 419.666992188 300 419 c 0
 348 418.333007812 391.333007812 416.666015625 430 413.999023438 c 0
 469.333007812 411.33203125 498.833007812 408.165039062 518.5 404.498046875 c 0
 538.166992188 400.831054688 551.833984375 395.1640625 559.500976562 387.497070312 c 0
 567.16796875 379.830078125 571.66796875 369.330078125 573.000976562 355.997070312 c 0
 573.000976562 341.997070312 569.66796875 329.6640625 563.000976562 318.997070312 c 0
 558.333984375 312.330078125 551.666992188 307.330078125 543 303.997070312 c 0
 537 301.997070312 530.333007812 300.997070312 523 300.997070312 c 2
 516 300.997070312 l 2
 495.333007812 304.330078125 465.333007812 307.330078125 426 309.997070312 c 0
 388.662109375 312.368164062 350.270507812 313.553710938 310.825195312 313.553710938 c 0
 305.899414062 313.553710938 300.958007812 313.53515625 296 313.498046875 c 0
 251.333007812 313.165039062 214.666015625 311.665039062 185.999023438 308.998046875 c 1
 189.33203125 222.331054688 192.33203125 130.998046875 194.999023438 34.998046875 c 0
 192.999023438 16.998046875 184.33203125 2.998046875 168.999023438 -7.001953125 c 0
 155.666015625 -16.3349609375 141.33203125 -21.3349609375 125.999023438 -22.001953125 c 0
 124.666015625 -22.001953125 123.666992188 -21.6689453125 123 -21.001953125 c 0
 106.333007812 -21.001953125 92.3330078125 -15.3349609375 81 -4.001953125 c 0
 71.625 5.373046875 66.9375 17.3837890625 66.9375 32.0322265625 c 0
 66.9375 33.0087890625 66.9580078125 33.998046875 67 34.998046875 c 2
 67 40.998046875 l 2xe4
 68.3330078125 61.6650390625 69 96.33203125 69 144.999023438 c 0
 69 236.999023438 67 338.999023438 63 450.999023438 c 0
 61.6669921875 494.33203125 61 523.499023438 61 538.499023438 c 0
 61 553.499023438 61.5 573.499023438 62.5 598.499023438 c 0
 63.5 623.499023438 64.3330078125 640.666015625 65 649.999023438 c 0
 65.6669921875 670.666015625 71.6669921875 686.333007812 83 697 c 0
 94.3330078125 708.333007812 108.666015625 714 125.999023438 714 c 0
 128.666015625 714.666992188 130.333007812 715 131 715 c 0xd8
EndSplineSet
EndChar

StartChar: G
Encoding: 71 71 39
Width: 670
GlyphClass: 2
Flags: W
HStem: -30.9951 113.997<245.073 369.129> 619.005 104.999<362.592 500.141>
VStem: 51.002 123.998<160.189 376.151>
LayerCount: 2
Fore
SplineSet
378.99609375 -16 m 0
 352.329101562 -26 325.66796875 -30.9951171875 299.000976562 -30.9951171875 c 0
 266.333984375 -30.9951171875 236.000976562 -26.328125 208.000976562 -16.9951171875 c 0
 180.66796875 -7.662109375 157.8359375 5.1708984375 139.501953125 21.50390625 c 0
 121.169921875 37.8369140625 105.169921875 56.3369140625 91.501953125 77.00390625 c 0
 77.8359375 97.6708984375 67.66796875 119.50390625 61.001953125 142.50390625 c 0
 54.333984375 165.50390625 51.001953125 188.670898438 51.001953125 212.00390625 c 0
 51.001953125 260.670898438 56.16796875 308.00390625 66.501953125 354.00390625 c 0
 76.833984375 400.00390625 90.66796875 441.336914062 108 478.00390625 c 0
 125.333984375 514.670898438 145.666015625 548.670898438 169 580.00390625 c 0
 194.33203125 610.670898438 221.165039062 636.50390625 249.498046875 657.50390625 c 0
 277.83203125 678.50390625 306.998046875 694.670898438 336.998046875 706.00390625 c 0
 367.665039062 718.00390625 397.998046875 724.00390625 427.998046875 724.00390625 c 0
 457.998046875 724.00390625 491.665039062 717.336914062 528.998046875 704.00390625 c 0
 564.998046875 690.670898438 588.665039062 678.337890625 599.998046875 667.004882812 c 0
 611.998046875 655.004882812 618.33203125 640.671875 618.998046875 624.004882812 c 0
 618.998046875 616.004882812 617.33203125 607.337890625 613.998046875 598.004882812 c 0
 609.998046875 586.004882812 601.33203125 577.337890625 587.998046875 572.004882812 c 0
 581.33203125 569.337890625 574.6640625 568.004882812 567.997070312 568.004882812 c 0
 560.6640625 568.004882812 554.33203125 569.004882812 548.998046875 571.004882812 c 0
 543.665039062 573.004882812 533.665039062 578.337890625 518.998046875 587.004882812 c 0
 504.33203125 595.671875 489.33203125 603.171875 473.998046875 609.504882812 c 0
 458.665039062 615.837890625 445.33203125 619.004882812 434 619.004882812 c 0
 414 619.004882812 392 612.837890625 368 600.504882812 c 0
 344 588.171875 320.83203125 570.171875 298.5 546.504882812 c 0
 276.166015625 522.837890625 255.666015625 495.670898438 237 465.00390625 c 0
 218.33203125 434.336914062 203.33203125 399.669921875 192 361.002929688 c 0
 180.666015625 322.3359375 175 283.668945312 175 245.001953125 c 0
 175 218.334960938 181 192.501953125 193 167.501953125 c 0
 205 142.501953125 221.5 122.168945312 242.5 106.501953125 c 0
 263.5 90.8349609375 285.666015625 83.001953125 309 83.001953125 c 0
 324.33203125 83.001953125 340 87.501953125 356 96.501953125 c 0
 372 105.501953125 387 117.334960938 401 132.001953125 c 0
 415 146.668945312 428.33203125 163.3359375 441 182.002929688 c 0
 460.33203125 210.669921875 475.665039062 240.002929688 486.998046875 270.002929688 c 1
 448.33203125 268.002929688 409.33203125 264.502929688 369.998046875 259.502929688 c 0
 330.665039062 254.502929688 303.33203125 248.3359375 288 241.002929688 c 0
 280 237.002929688 272 235.002929688 264 235.002929688 c 0
 256 235.002929688 248 237.3359375 240 242.002929688 c 0
 225.33203125 250.002929688 216.665039062 261.3359375 213.998046875 276.002929688 c 0
 213.33203125 279.3359375 212.998046875 282.668945312 212.998046875 286.001953125 c 0
 212.998046875 300.001953125 218.665039062 312.668945312 229.998046875 324.001953125 c 0
 237.998046875 332.001953125 248.998046875 339.001953125 262.998046875 345.001953125 c 0
 284.998046875 355.001953125 330.33203125 362.334960938 398.998046875 367.001953125 c 0
 448.33203125 370.334960938 489.6640625 372.001953125 522.997070312 372.001953125 c 2
 555.997070312 372.001953125 l 2
 575.330078125 370.668945312 589.330078125 366.668945312 597.997070312 360.001953125 c 0
 609.330078125 351.334960938 614.997070312 337.66796875 614.997070312 319.000976562 c 0
 614.997070312 299.000976562 607.6640625 284.66796875 592.997070312 276.000976562 c 0
 592.997070312 274.000976562 592.330078125 270.000976562 590.997070312 264.000976562 c 0
 590.330078125 260.66796875 589.6640625 255.000976562 588.99609375 247.000976562 c 0
 585.6640625 218.333984375 572.330078125 181.666992188 548.997070312 137 c 0
 537.6640625 116.333007812 523.6640625 96 506.997070312 76 c 0
 489.6640625 56 470.6640625 38.1669921875 449.997070312 22.5 c 0
 429.330078125 6.8330078125 405.6640625 -6 378.99609375 -16 c 0
EndSplineSet
EndChar

StartChar: H
Encoding: 72 72 40
Width: 670
GlyphClass: 2
Flags: W
HStem: -21.999 21G<130.334 138.667 522.335 531.001> 312.001 86.0049<202.998 409.945> 694.003 20G<133.332 152.998 525.667 545.334>
VStem: 78.499 122.499<-3.04591 184.934 189.06 312.001 398.006 696.499> 463.001 128<-5.04489 337.626> 470.999 124.335<44.0761 341.001 420.471 696.468>
LayerCount: 2
Fore
SplineSet
71.9990234375 33 m 2xf8
 71.9990234375 41.0048828125 l 2
 73.33203125 59.0048828125 73.9990234375 103.671875 73.9990234375 175.004882812 c 0
 73.9990234375 215.671875 74.83203125 265.171875 76.4990234375 323.504882812 c 0
 78.166015625 381.837890625 78.9990234375 416.837890625 78.9990234375 428.504882812 c 2
 78.9990234375 463.504882812 l 2
 78.9990234375 475.171875 78.83203125 494.671875 78.4990234375 522.004882812 c 0
 78.166015625 549.337890625 77.9990234375 567.504882812 77.9990234375 576.504882812 c 0
 77.9990234375 585.504882812 78.166015625 594.671875 78.4990234375 604.004882812 c 0
 78.83203125 613.337890625 78.9990234375 619.004882812 78.9990234375 621.004882812 c 0
 78.9990234375 623.004882812 79.166015625 625.671875 79.4990234375 629.004882812 c 0
 79.83203125 632.337890625 79.9990234375 635.504882812 79.9990234375 638.504882812 c 2
 79.9990234375 646.504882812 l 1
 79.9990234375 650.004882812 l 2
 80.666015625 670.671875 86.9990234375 686.3359375 98.9990234375 697.002929688 c 0
 110.33203125 708.3359375 124.665039062 714.002929688 141.998046875 714.002929688 c 2
 144.998046875 714.002929688 l 2
 160.998046875 714.002929688 174.665039062 709.3359375 185.998046875 700.002929688 c 0
 199.331054688 689.3359375 206.331054688 673.005859375 206.998046875 651.005859375 c 0
 206.998046875 643.672851562 205.998046875 629.005859375 203.998046875 607.005859375 c 0
 201.998046875 585.005859375 200.998046875 565.172851562 200.998046875 547.505859375 c 0
 200.998046875 529.838867188 201.331054688 505.005859375 201.998046875 473.005859375 c 0
 202.665039062 441.005859375 202.998046875 416.005859375 202.998046875 398.005859375 c 1
 260.998046875 399.338867188 331.665039062 405.338867188 414.998046875 416.005859375 c 0
 439.665039062 419.338867188 458.333007812 421.671875 470.999023438 423.004882812 c 0
 470.999023438 425.671875 470.833007812 430.171875 470.499023438 436.504882812 c 0
 470.166015625 442.837890625 469.833007812 457.670898438 469.500976562 481.00390625 c 0
 469.166992188 504.336914062 469.000976562 522.50390625 469.000976562 535.50390625 c 0
 469.000976562 548.50390625 469.499023438 569.00390625 470.499023438 597.00390625 c 0
 471.499023438 625.00390625 472.333007812 642.00390625 473.000976562 648.00390625 c 0
 473.666992188 669.336914062 479.666992188 685.669921875 491.000976562 697.002929688 c 0
 503.000976562 708.3359375 517.333007812 714.002929688 534.000976562 714.002929688 c 2
 537.000976562 714.002929688 l 2
 553.666992188 714.002929688 567.666992188 709.3359375 579.000976562 700.002929688 c 0
 591.666992188 689.3359375 598.000976562 673.668945312 598.000976562 653.001953125 c 0
 598.000976562 640.334960938 597.666992188 615.001953125 597.000976562 577.001953125 c 0
 596.333007812 530.334960938 595.833007812 488.501953125 595.500976562 451.501953125 c 0
 595.388671875 439.180664062 595.333984375 427.709960938 595.333984375 417.088867188 c 0xf4
 595.333984375 395.815429688 595.555664062 377.954101562 596.000976562 363.501953125 c 0
 596.668945312 341.834960938 597.000976562 321.66796875 597.000976562 303.000976562 c 0
 597.000976562 266.333984375 596.000976562 219.500976562 594.000976562 162.500976562 c 0
 592.000976562 105.500976562 591.000976562 65.66796875 591.000976562 43.0009765625 c 2
 591.000976562 35.0009765625 l 2
 589.000976562 17.0009765625 581.000976562 3.0009765625 567.000976562 -6.9990234375 c 0
 553.668945312 -16.33203125 539.000976562 -21.33203125 523.000976562 -21.9990234375 c 0
 521.668945312 -21.9990234375 520.668945312 -21.666015625 520.000976562 -20.9990234375 c 0
 503.333984375 -20.9990234375 489.666992188 -15.33203125 479.000976562 -3.9990234375 c 0
 468.333007812 6.0009765625 463.000976562 19.333984375 463.000976562 36.0009765625 c 2
 463.000976562 43.0009765625 l 1
 469.666992188 127.000976562 473.000976562 220.333984375 473.000976562 323.000976562 c 2
 473.000976562 341.000976562 l 1
 451.000976562 339.000976562 408.500976562 333.833984375 345.500976562 325.500976562 c 0
 282.500976562 317.16796875 234.000976562 312.66796875 200.000976562 312.000976562 c 1
 200.000976562 303.000976562 l 2
 198.000976562 269.66796875 197.000976562 231.000976562 197.000976562 187.000976562 c 0
 197.000976562 143.000976562 198.000976562 92.66796875 200.000976562 36.0009765625 c 0
 198.000976562 17.333984375 189.333007812 3.0009765625 174.000976562 -6.9990234375 c 0
 160.666992188 -16.33203125 146.333984375 -21.33203125 131.000976562 -21.9990234375 c 0
 129.66796875 -21.9990234375 128.66796875 -21.666015625 128.000976562 -20.9990234375 c 0
 111.333984375 -20.9990234375 97.333984375 -15.33203125 86.0009765625 -3.9990234375 c 0
 76.66796875 5.333984375 71.9990234375 17.6669921875 71.9990234375 33 c 2xf8
EndSplineSet
EndChar

StartChar: I
Encoding: 73 73 41
Width: 670
GlyphClass: 2
Flags: W
HStem: -11.001 102.999<77.5044 256.312 400 460.94 464.959 551 554 596.104> -7.00098 98.999<400 551 554 596.104> 599.998 110.001<85.0194 270.002>
VStem: 264.002 135.998<92.998 192.728> 271.002 134.999<94.249 597.999>
LayerCount: 2
Fore
SplineSet
214 -12 m 1x70
 170 -13.3330078125 139.66796875 -14.001953125 123.000976562 -14.001953125 c 0
 103.000976562 -14.001953125 87.66796875 -9.6689453125 77.0009765625 -1.001953125 c 0
 65.66796875 7.6650390625 60.0009765625 18.998046875 60.0009765625 32.998046875 c 2
 60.0009765625 35.998046875 l 2
 60.0009765625 49.3310546875 64.833984375 60.998046875 74.5009765625 70.998046875 c 0
 84.16796875 80.998046875 99.3349609375 86.3310546875 120.001953125 86.998046875 c 0
 146.668945312 88.3310546875 194.668945312 89.6640625 264.001953125 90.9970703125 c 1x70
 268.668945312 160.330078125 271.001953125 232.330078125 271.001953125 306.997070312 c 0
 271.001953125 346.330078125 270.334960938 386.330078125 269.001953125 426.997070312 c 0
 267.668945312 455.6640625 267.001953125 486.6640625 267.001953125 519.997070312 c 2
 267.001953125 540.997070312 l 2
 267.001953125 547.6640625 267.501953125 557.831054688 268.501953125 571.498046875 c 0
 269.501953125 585.165039062 270.001953125 594.665039062 270.001953125 599.998046875 c 1
 231.334960938 600.665039062 202.66796875 600.998046875 184.000976562 600.998046875 c 0
 166.66796875 600.998046875 149.000976562 600.665039062 131.000976562 599.998046875 c 2
 129.000976562 599.998046875 l 2
 110.333984375 599.998046875 95.5009765625 604.665039062 84.5009765625 613.998046875 c 0
 73.5009765625 623.331054688 67.66796875 635.998046875 67.0009765625 651.998046875 c 2
 67.0009765625 653.998046875 l 2
 67.0009765625 667.998046875 72.16796875 680.331054688 82.5009765625 690.998046875 c 0
 92.833984375 701.665039062 108.333984375 707.33203125 129.000976562 707.999023438 c 0
 186.333984375 709.33203125 241.333984375 709.999023438 294.000976562 709.999023438 c 0
 398.66796875 709.999023438 484.333007812 706.999023438 551 700.999023438 c 0
 566.333007812 699.666015625 578.66796875 695.333007812 588.000976562 688 c 0
 600.66796875 678.666992188 607.334960938 665.666992188 608.001953125 649 c 2
 608.001953125 648 l 2
 608.001953125 633.333007812 603.668945312 619.666015625 595.001953125 606.999023438 c 0
 590.334960938 599.666015625 583.66796875 593.999023438 575.000976562 589.999023438 c 0
 569.66796875 587.33203125 563.66796875 585.999023438 557.000976562 585.999023438 c 0
 553.66796875 585.999023438 549.66796875 586.666015625 545.000976562 587.999023438 c 0
 526.333984375 590.666015625 480.333984375 593.999023438 407.000976562 597.999023438 c 1
 407.000976562 590.666015625 406.333984375 577.333007812 405.000976562 558 c 0
 404.333984375 539.333007812 404.000976562 524.833007812 404.000976562 514.5 c 2
 404.000976562 484 l 2
 404.000976562 444.666992188 404.333984375 412.166992188 405.000976562 386.5 c 0
 405.66796875 360.833007812 406.000976562 334.666015625 406.000976562 307.999023438 c 0x68
 406.000976562 281.33203125 405.16796875 243.665039062 403.500976562 194.998046875 c 0
 401.833984375 146.331054688 400.666992188 112.331054688 400 92.998046875 c 1
 428 92.998046875 451 92.6650390625 469 91.998046875 c 2
 551 91.998046875 l 1xb0
 551 97.3310546875 551.333007812 97.3310546875 552 91.998046875 c 1
 552 97.3310546875 552.33203125 97.3310546875 552.999023438 91.998046875 c 1
 552.999023438 97.3310546875 553.333007812 97.3310546875 554 91.998046875 c 1x70
 554 97.3310546875 554.333007812 97.3310546875 555 91.998046875 c 1
 574.333007812 91.998046875 588.166015625 87.498046875 596.499023438 78.498046875 c 0
 604.83203125 69.498046875 609.33203125 58.3310546875 609.999023438 44.998046875 c 2
 609.999023438 43.9990234375 l 2
 609.999023438 37.33203125 609.334960938 30.9990234375 608.001953125 24.9990234375 c 0
 606.668945312 18.9990234375 604.333007812 12.9990234375 601 6.9990234375 c 0
 596.333007812 -0.333984375 589.666015625 -5.333984375 580.999023438 -8.0009765625 c 0
 575.666015625 -10.0009765625 570.666015625 -11.0009765625 565.999023438 -11.0009765625 c 2
 552.999023438 -11.0009765625 l 2xb0
 534.999023438 -8.333984375 504.999023438 -7.0009765625 462.999023438 -7.0009765625 c 0
 418.999023438 -7.0009765625 379.33203125 -7.333984375 343.999023438 -8.0009765625 c 1
 325.942382812 -5.22265625 307.88671875 -3.833984375 289.830078125 -3.833984375 c 0
 214 -12 l 1x70
EndSplineSet
EndChar

StartChar: J
Encoding: 74 74 42
Width: 670
GlyphClass: 2
Flags: W
HStem: -35 125.998<229.068 331.458> 599.998 110.002<89.5029 332 452.998 560.842>
VStem: 57.502 114.498<150.857 256.964> 331.75 121.248<425.658 596.001> 335 125.998<103.937 595.189>
LayerCount: 2
Fore
SplineSet
457.998046875 217 m 0xe8
 446.666015625 101 423.001953125 26.3330078125 387.001953125 -7 c 0
 367.66796875 -25.6669921875 344.66796875 -35 318.001953125 -35 c 0
 291.333984375 -35 265.501953125 -30.6669921875 240.501953125 -22 c 0
 215.501953125 -13.3330078125 194.001953125 -2.3330078125 176.001953125 11 c 0
 158.66796875 25 142.834960938 40.1669921875 128.501953125 56.5 c 0
 114.169921875 72.8330078125 102.169921875 89 92.501953125 105 c 0
 82.8359375 121 75.16796875 135.666992188 69.501953125 149 c 0
 63.833984375 162.333007812 60.333984375 173 59.001953125 181 c 0
 57.001953125 188.333007812 56.501953125 196.5 57.501953125 205.5 c 0
 58.501953125 214.5 60.001953125 223 62.001953125 231 c 0
 64.66796875 240.333007812 70.001953125 248.666015625 78.001953125 255.999023438 c 0
 86.001953125 263.33203125 96.333984375 267.999023438 109.001953125 269.999023438 c 0
 113.001953125 270.666015625 117.001953125 270.999023438 121.001953125 270.999023438 c 0
 134.333984375 270.999023438 145.666992188 266.999023438 155 258.999023438 c 0
 166.333984375 248.33203125 172 234.665039062 172 217.998046875 c 0
 172 201.998046875 177.333984375 182.998046875 188 160.998046875 c 0
 194.666992188 148.331054688 202.666992188 136.998046875 212 126.998046875 c 0
 221.333984375 116.998046875 234 108.498046875 250 101.498046875 c 0
 266 94.498046875 284 90.998046875 304 90.998046875 c 0
 304.666992188 90.998046875 305.333984375 91.3310546875 306.001953125 91.998046875 c 0
 310.66796875 95.3310546875 315.001953125 102.998046875 319.001953125 114.998046875 c 0
 328.333984375 143.665039062 333.666992188 186.998046875 335 244.998046875 c 2
 335 246.998046875 l 1
 335 267.498046875 l 2xe8
 335 279.831054688 334.666992188 312.998046875 334 366.998046875 c 0
 332.5 426.99609375 331.75 485.682617188 331.75 543.055664062 c 0
 331.75 562.182617188 331.833984375 581.163085938 332 599.998046875 c 1
 294.333984375 600.998046875 259.083984375 601.498046875 226.25 601.498046875 c 0
 193.416992188 601.498046875 163 600.998046875 135 599.998046875 c 2
 133 599.998046875 l 2
 114.333984375 599.998046875 99.666015625 604.665039062 89 613.998046875 c 0
 78.33203125 623.331054688 72.666015625 635.998046875 71.998046875 651.998046875 c 0
 71.998046875 652.665039062 71.666015625 653.33203125 70.998046875 653.999023438 c 0
 70.998046875 667.999023438 76.33203125 680.33203125 86.998046875 690.999023438 c 0
 97.666015625 701.666015625 113.33203125 707.333007812 134 708 c 0
 191.999023438 709.333007812 246.999023438 710 298.999023438 710 c 0
 402.999023438 710 488.33203125 707 554.999023438 701 c 0
 570.33203125 699.666992188 582.666015625 695.333984375 591.998046875 688.000976562 c 0
 604.666015625 678.66796875 611.666015625 665.334960938 612.998046875 648.001953125 c 0
 612.998046875 633.334960938 608.666015625 619.66796875 599.998046875 607.000976562 c 0
 595.331054688 599.66796875 588.331054688 594.000976562 578.998046875 590.000976562 c 0
 573.666015625 587.333984375 567.666015625 586.000976562 560.998046875 586.000976562 c 0
 557.666015625 586.000976562 553.998046875 586.66796875 549.998046875 588.000976562 c 0
 529.331054688 591.333984375 496.998046875 594.000976562 452.998046875 596.000976562 c 1xf0
 452.998046875 579.333984375 455.331054688 521.000976562 459.998046875 421.000976562 c 0
 461.064453125 399.131835938 461.59765625 380.036132812 461.59765625 363.713867188 c 0
 461.59765625 359.63671875 461.564453125 355.732421875 461.498046875 352.000976562 c 0
 461.166015625 333.333984375 460.998046875 321.666992188 460.998046875 317 c 0
 460.998046875 275 459.998046875 241.666992188 457.998046875 217 c 0xe8
EndSplineSet
EndChar

StartChar: K
Encoding: 75 75 43
Width: 670
GlyphClass: 2
Flags: W
HStem: -22 21G<127.233 135.899 551.054 553.903> 694.065 20G<116.569 125.036 515.566 520.233>
VStem: 70.9004 116.999<107.028 271.001 452.999 540.271 541.723 700.529>
LayerCount: 2
Fore
SplineSet
127.899414062 -22 m 0
 126.56640625 -22 125.234375 -21.666015625 123.901367188 -20.9990234375 c 0
 107.234375 -20.9990234375 93.5673828125 -16.666015625 82.900390625 -7.9990234375 c 0
 72.900390625 0.0009765625 67.900390625 10.66796875 67.900390625 24.0009765625 c 0
 67.900390625 26.66796875 68.2333984375 29.3349609375 68.900390625 32.001953125 c 0
 70.2333984375 53.3349609375 70.900390625 88.66796875 70.900390625 138.000976562 c 0
 70.900390625 233.333984375 68.900390625 338.666992188 64.900390625 454 c 0
 63.5673828125 496.666992188 62.900390625 525.666992188 62.900390625 541 c 0
 62.900390625 556.333007812 63.5673828125 578 64.900390625 606 c 0
 66.2333984375 634.666992188 66.900390625 652.666992188 66.900390625 660 c 1
 67.5673828125 677.333007812 73.5673828125 691 84.900390625 701 c 0
 95.4775390625 709.7109375 108.66796875 714.065429688 124.470703125 714.065429688 c 0
 125.600585938 714.065429688 126.743164062 714.043945312 127.899414062 713.999023438 c 2
 130.899414062 713.999023438 l 2
 146.899414062 713.999023438 160.899414062 710.33203125 172.899414062 702.999023438 c 0
 185.59765625 694.745117188 191.946289062 682.258789062 191.946289062 665.540039062 c 0
 191.946289062 651.19921875 191.309570312 618.120117188 189.8984375 567.999023438 c 0
 188.565429688 521.33203125 187.565429688 482.999023438 186.8984375 452.999023438 c 1
 211.565429688 472.999023438 246.8984375 501.666015625 292.8984375 538.999023438 c 0
 391.565429688 627.666015625 449.8984375 679.333007812 467.8984375 694 c 0
 479.231445312 702.666992188 490.231445312 708.666992188 500.8984375 712 c 0
 507.565429688 714 513.232421875 715 517.899414062 715 c 0
 522.56640625 715 526.899414062 714.666992188 530.899414062 714 c 0
 539.56640625 712 547.233398438 708 553.900390625 702 c 0
 563.233398438 694 567.900390625 685.333007812 567.900390625 676 c 0
 567.900390625 658 560.567382812 638.666992188 545.900390625 618 c 0
 535.900390625 605.333007812 499.900390625 569 437.900390625 509 c 1
 373.900390625 453 317.567382812 404.333007812 268.900390625 363 c 1
 294.233398438 339 334.56640625 303.333007812 389.899414062 256 c 0
 445.232421875 211.333007812 493.232421875 171 533.899414062 135 c 0
 556.56640625 113 573.233398438 95.6669921875 583.900390625 83 c 0
 595.233398438 67.6669921875 601.900390625 57 603.900390625 51 c 0
 606.567382812 42.3330078125 607.567382812 34 606.900390625 26 c 0
 606.900390625 20.6669921875 605.900390625 15.333984375 603.900390625 10.0009765625 c 0
 599.233398438 0.66796875 591.56640625 -6.6650390625 580.899414062 -11.998046875 c 0
 566.354492188 -18.05859375 556.493164062 -21.0888671875 551.313476562 -21.0888671875 c 0
 550.794921875 -21.0888671875 550.32421875 -21.05859375 549.899414062 -20.998046875 c 2
 548.899414062 -20.998046875 l 2
 530.899414062 -20.998046875 513.899414062 -12.6650390625 497.899414062 4.001953125 c 0
 491.232421875 12.001953125 465.899414062 35.001953125 421.899414062 73.001953125 c 0
 377.899414062 110.334960938 329.899414062 151.66796875 277.899414062 197.000976562 c 0
 240.56640625 226.333984375 210.56640625 251.000976562 187.899414062 271.000976562 c 1
 196.899414062 25.0009765625 l 2
 194.899414062 10.333984375 186.232421875 -1.3330078125 170.899414062 -10 c 0
 158.232421875 -18 143.899414062 -22 127.899414062 -22 c 0
EndSplineSet
EndChar

StartChar: L
Encoding: 76 76 44
Width: 670
GlyphClass: 2
Flags: W
HStem: -14.999 116.996<191.044 192.029 193.029 475.668>
VStem: 63.0312 127.997<95.9971 265.875> 92.3652 118.668<163.162 688.982>
LayerCount: 2
Fore
SplineSet
198.033203125 209 m 0xa0
 194.033203125 161 191.6953125 123.330078125 191.028320312 95.9970703125 c 1
 191.361328125 99.9970703125 191.6953125 101.997070312 192.029296875 101.997070312 c 0
 193.029296875 95.9970703125 l 1
 250.361328125 95.9970703125 317.361328125 99.330078125 394.029296875 105.997070312 c 0
 469.361328125 112.6640625 519.029296875 119.331054688 543.029296875 125.998046875 c 0
 546.763671875 127.064453125 550.498046875 127.59765625 554.231445312 127.59765625 c 0
 557.029296875 127.498046875 l 0
 561.697265625 127.165039062 566.364257812 125.998046875 571.03125 123.998046875 c 0
 579.697265625 120.665039062 587.03125 115.33203125 593.03125 107.999023438 c 0
 597.697265625 101.33203125 601.03125 94.33203125 603.03125 86.9990234375 c 0
 605.697265625 78.9990234375 607.03125 71.9990234375 607.03125 65.9990234375 c 0
 607.03125 50.666015625 603.03125 38.3330078125 595.03125 29 c 0
 587.03125 19.6669921875 573.364257812 13.333984375 554.03125 10.0009765625 c 0
 508.03125 1.333984375 434.864257812 -4.9990234375 334.53125 -8.9990234375 c 0
 234.197265625 -12.9990234375 162.365234375 -14.9990234375 119.03125 -14.9990234375 c 0
 102.365234375 -14.9990234375 88.365234375 -9.33203125 77.03125 2.0009765625 c 0
 67.65625 11.3759765625 62.96875 23.38671875 62.96875 38.03515625 c 0
 62.96875 39.01171875 62.990234375 40.0009765625 63.03125 41.0009765625 c 2
 63.03125 50.0009765625 l 2xc0
 63.03125 54.0009765625 66.865234375 90.333984375 74.53125 159.000976562 c 0
 82.19921875 227.66796875 87.69921875 293.66796875 91.03125 357.000976562 c 0
 91.919921875 369.88671875 92.365234375 384.697265625 92.365234375 401.432617188 c 0
 92.365234375 409.806640625 92.25390625 418.663085938 92.03125 428.000976562 c 0
 92.03125 452.66796875 91.36328125 523.66796875 90.03125 641.000976562 c 2
 90.03125 642.000976562 l 2
 90.697265625 662.66796875 96.865234375 678.500976562 108.53125 689.500976562 c 0
 120.19921875 700.500976562 134.365234375 706.000976562 151.033203125 706.000976562 c 2
 154.033203125 706.000976562 l 2
 170.033203125 706.000976562 184.365234375 701.333984375 197.033203125 692.000976562 c 0
 210.396484375 681.819335938 217.079101562 667.081054688 217.079101562 647.788085938 c 0
 217.079101562 647 217.068359375 618.723632812 216.033203125 569 c 0
 214.700195312 525.666992188 213.033203125 485 211.033203125 447 c 0
 209.033203125 405 207.365234375 363 206.033203125 321 c 0
 204.700195312 294.333007812 202.033203125 257 198.033203125 209 c 0xa0
EndSplineSet
EndChar

StartChar: M
Encoding: 77 77 45
Width: 670
GlyphClass: 2
Flags: W
HStem: -10.001 21G<89.3315 102.332 318.002 349.002>
VStem: 44.998 108<16.5645 315.532>
LayerCount: 2
Fore
SplineSet
152.998046875 63.9990234375 m 2
 152.998046875 52.9990234375 l 2
 152.998046875 34.9990234375 147.666015625 19.9990234375 136.998046875 7.9990234375 c 0
 124.998046875 -4.0009765625 110.665039062 -10.0009765625 93.998046875 -10.0009765625 c 2
 92.998046875 -10.0009765625 l 2
 85.6650390625 -10.0009765625 78.998046875 -8.66796875 72.998046875 -6.0009765625 c 0
 64.3310546875 -2.0009765625 57.3310546875 5.33203125 51.998046875 15.9990234375 c 0
 47.3310546875 27.9990234375 44.998046875 43.9990234375 44.998046875 63.9990234375 c 0
 44.998046875 72.666015625 45.998046875 86.9990234375 47.998046875 106.999023438 c 0
 49.998046875 126.33203125 52.3310546875 151.999023438 54.998046875 183.999023438 c 0
 58.3310546875 217.999023438 61.998046875 258.33203125 65.998046875 304.999023438 c 0
 69.998046875 352.33203125 72.998046875 389.665039062 74.998046875 416.998046875 c 0
 83.6650390625 512.998046875 91.33203125 579.331054688 97.9990234375 615.998046875 c 0
 102.666015625 639.331054688 107.666015625 655.6640625 112.999023438 664.997070312 c 0
 120.999023438 678.997070312 133.33203125 689.330078125 149.999023438 695.997070312 c 0
 163.999023438 701.330078125 177.999023438 703.998046875 191.999023438 703.998046875 c 2
 197.999023438 703.998046875 l 2
 214.666015625 703.998046875 228.333984375 701.6640625 239 696.997070312 c 0
 253.666992188 690.997070312 263.666992188 680.997070312 269 666.997070312 c 0
 277.666992188 637.6640625 287 589.331054688 297 521.998046875 c 0
 307 454.665039062 317.666992188 377.665039062 329 290.998046875 c 0
 331.666992188 271.665039062 333.666992188 254.33203125 335 238.999023438 c 1
 339.666992188 286.999023438 344.333984375 331.666015625 349.001953125 372.999023438 c 0
 355.66796875 428.33203125 364.66796875 483.665039062 376.001953125 538.998046875 c 0
 387.333984375 594.331054688 397.001953125 636.997070312 405.001953125 666.997070312 c 0
 408.333984375 676.997070312 416.001953125 685.331054688 428.001953125 691.998046875 c 0
 438.66796875 697.998046875 450.001953125 701.665039062 462.001953125 702.998046875 c 0
 469.333984375 704.331054688 475.501953125 704.831054688 480.501953125 704.498046875 c 0
 485.501953125 704.165039062 489.66796875 703.998046875 493.001953125 703.998046875 c 2
 496.001953125 703.998046875 l 1
 511.501953125 703.998046875 l 2
 515.833984375 703.998046875 521.666992188 702.998046875 529 700.998046875 c 0
 536.333984375 699.665039062 542.5 697.665039062 547.5 694.998046875 c 0
 552.5 692.331054688 557.333984375 688.331054688 562 682.998046875 c 0
 566.666992188 676.998046875 569.666992188 669.998046875 571 661.998046875 c 0
 573.666992188 641.998046875 581.333984375 544.998046875 594.001953125 370.998046875 c 0
 606.66796875 197.665039062 615.66796875 99.6650390625 621.001953125 76.998046875 c 0
 623.66796875 63.6650390625 625.001953125 51.33203125 625.001953125 39.9990234375 c 0
 625.001953125 30.666015625 623.001953125 22.666015625 619.001953125 15.9990234375 c 0
 613.66796875 6.666015625 604.66796875 -0.0009765625 592.001953125 -4.0009765625 c 0
 584.66796875 -6.0009765625 577.001953125 -7.16796875 569.001953125 -7.5009765625 c 0
 561.001953125 -7.833984375 552.66796875 -6.0009765625 544.001953125 -2.0009765625 c 0
 528.66796875 4.666015625 517.334960938 18.3330078125 510.001953125 39 c 0
 496.669921875 79 484.669921875 234 474.001953125 504 c 1
 465.334960938 452.666992188 459.334960938 404 456.001953125 358 c 0
 449.334960938 282 440.334960938 210 429.001953125 142 c 0
 417.669921875 74 408.669921875 32.3330078125 402.001953125 17 c 0
 392.001953125 1 368.001953125 -7 330.001953125 -7 c 2
 325.001953125 -7 l 2
 311.001953125 -7 298.669921875 -5 288.001953125 -1 c 0
 275.334960938 3.6669921875 267.334960938 10.333984375 264.001953125 19.0009765625 c 0
 255.334960938 51.0009765625 241.001953125 124.000976562 221.001953125 238.000976562 c 0
 207.669921875 316.000976562 195.001953125 391.66796875 183.001953125 465.000976562 c 1
 181.669921875 451.66796875 180.001953125 427.66796875 178.001953125 393.000976562 c 2
 174.001953125 340.000976562 l 1
 168.001953125 253.000976562 l 2
 166.001953125 225.66796875 163.669921875 197.000976562 161.001953125 167.000976562 c 0
 159.001953125 144.333984375 156.669921875 120.666992188 154.001953125 96 c 0
 153.334960938 82 152.998046875 71.33203125 152.998046875 63.9990234375 c 2
EndSplineSet
EndChar

StartChar: N
Encoding: 78 78 46
Width: 670
GlyphClass: 2
Flags: W
HStem: -11.998 21G<105.167 123.501 509.167 537.167>
VStem: 64.501 108<6.53685 180.455> 72.501 107<79.7041 486> 498.834 106.665<187.325 656.813>
LayerCount: 2
Fore
SplineSet
177.500976562 486 m 1xb0
 178.833984375 456 179.500976562 431.002929688 179.500976562 411.002929688 c 0xb0
 179.500976562 389.669921875 179.16796875 359.669921875 178.500976562 321.002929688 c 0
 177.833984375 283.669921875 176.833984375 237.669921875 175.500976562 183.002929688 c 0
 173.500976562 128.3359375 172.500976562 93.6689453125 172.500976562 79.001953125 c 2
 172.500976562 52.001953125 l 1
 172.500976562 44.001953125 l 2
 172.500976562 26.001953125 167.16796875 12.001953125 156.500976562 2.001953125 c 0
 145.16796875 -7.3310546875 131.500976562 -11.998046875 115.500976562 -11.998046875 c 0
 94.833984375 -11.998046875 80.833984375 -5.998046875 73.5009765625 6.001953125 c 0
 67.5009765625 17.3349609375 64.5009765625 33.66796875 64.5009765625 55.0009765625 c 0xd0
 64.5009765625 68.333984375 65.5009765625 120.000976562 67.5009765625 210.000976562 c 0
 70.833984375 348.66796875 72.5009765625 444.000976562 72.5009765625 496.000976562 c 0
 72.5009765625 547.333984375 71.833984375 594.666992188 70.5009765625 638 c 2
 70.5009765625 647 l 2
 70.5009765625 657 72.16796875 666 75.5009765625 674 c 0
 80.833984375 683.333007812 88.1669921875 690 97.5 694 c 0
 110.833007812 701.333007812 125.833007812 705 142.5 705 c 0
 145.833007812 705 149.5 704.666992188 153.5 704 c 0
 168.166992188 704 180.833984375 701.666992188 191.500976562 697 c 0
 206.16796875 691 216.500976562 681 222.500976562 667 c 0
 237.833984375 624.333007812 279.500976562 545.333007812 347.500976562 430 c 0
 405.500976562 332.666992188 455.500976562 251.333984375 497.500976562 186.000976562 c 1
 498.389648438 224.213867188 498.833984375 270.274414062 498.833984375 324.18359375 c 0
 498.833984375 351.158203125 498.72265625 380.096679688 498.5 411.000976562 c 0
 497.166992188 529.000976562 494.166992188 607.000976562 489.5 645.000976562 c 0
 488.833007812 649.000976562 488.5 653.000976562 488.5 657.000976562 c 0
 488.5 669.000976562 492.833007812 679.66796875 501.5 689.000976562 c 0
 512.166992188 699.66796875 526.166992188 705.000976562 543.5 705.000976562 c 0
 559.5 705.000976562 572.5 702.333984375 582.5 697.000976562 c 0
 587.833007812 694.333984375 591.5 690.333984375 593.5 685.000976562 c 0
 595.5 679.66796875 597.166992188 675.000976562 598.5 671.000976562 c 0
 599.833007812 666.333984375 601.166015625 659.333984375 602.499023438 650.000976562 c 0
 604.499023438 638.66796875 605.499023438 585.334960938 605.499023438 490.001953125 c 2
 605.499023438 448.001953125 l 2
 605.499023438 364.668945312 604.499023438 278.668945312 602.499023438 190.001953125 c 0
 601.166015625 132.668945312 598.833007812 90.001953125 595.5 62.001953125 c 0
 592.833007812 35.3349609375 589.833007812 18.3349609375 586.5 11.001953125 c 0
 577.166992188 -4.998046875 554.833984375 -13.3310546875 519.500976562 -13.998046875 c 2
 515.500976562 -13.998046875 l 2
 502.833984375 -13.998046875 491.500976562 -11.6650390625 481.500976562 -6.998046875 c 0
 469.500976562 -1.6650390625 461.500976562 5.001953125 457.500976562 13.001953125 c 0
 450.833984375 26.3349609375 433.500976562 55.66796875 405.500976562 101.000976562 c 0
 376.16796875 148.333984375 347.16796875 193.666992188 318.500976562 237 c 0
 288.500976562 286.333007812 256.833984375 341.333007812 223.500976562 402 c 0
 205.500976562 432 190.16796875 460 177.500976562 486 c 1xb0
EndSplineSet
EndChar

StartChar: O
Encoding: 79 79 47
Width: 670
GlyphClass: 2
Flags: W
HStem: -23.9951 108<240.601 393.091> 612.006 105.995<275.497 417.922>
VStem: 65.9688 121<154.456 486.5> 483.969 120.062<178.33 537.54>
LayerCount: 2
Fore
SplineSet
256.96875 94.005859375 m 0
 268.96875 87.3388671875 282.635742188 84.0048828125 297.96875 84.0048828125 c 0
 335.96875 84.0048828125 369.635742188 92.337890625 398.96875 109.004882812 c 0
 414.30078125 117.004882812 427.96875 128.171875 439.96875 142.504882812 c 0
 451.96875 156.837890625 461.30078125 173.337890625 467.96875 192.004882812 c 0
 470.635742188 199.337890625 473.46875 217.837890625 476.46875 247.504882812 c 0
 479.46875 277.171875 481.96875 312.671875 483.96875 354.004882812 c 0
 484.302734375 360.004882812 484.46875 366.004882812 484.46875 372.004882812 c 0
 484.46875 378.004882812 484.302734375 384.004882812 483.96875 390.004882812 c 0
 483.96875 418.671875 482.635742188 447.338867188 479.96875 476.005859375 c 0
 475.96875 515.338867188 461.635742188 548.005859375 436.96875 574.005859375 c 0
 412.96875 599.338867188 383.46875 612.005859375 348.46875 612.005859375 c 0
 313.46875 612.005859375 283.96875 600.672851562 259.96875 578.005859375 c 0
 235.30078125 554.005859375 217.30078125 520.672851562 205.96875 478.005859375 c 0
 193.30078125 430.005859375 186.96875 375.005859375 186.96875 313.005859375 c 0
 186.96875 274.338867188 188.96875 240.338867188 192.96875 211.005859375 c 0
 195.635742188 194.338867188 199.96875 177.838867188 205.96875 161.505859375 c 0
 211.96875 145.172851562 218.96875 131.505859375 226.96875 120.505859375 c 0
 234.96875 109.505859375 244.96875 100.672851562 256.96875 94.005859375 c 0
598.96875 480 m 0
 602.34375 438.375 604.03125 397.172851562 604.03125 356.392578125 c 0
 604.03125 324.67578125 603.010742188 293.213867188 600.96875 262.005859375 c 0
 598.30078125 222.672851562 593.634765625 192.33984375 586.967773438 171.006835938 c 0
 578.30078125 139.673828125 567.30078125 112.673828125 553.967773438 90.0068359375 c 0
 540.634765625 67.33984375 525.80078125 48.6728515625 509.46875 34.005859375 c 0
 493.135742188 19.3388671875 473.302734375 7.671875 449.96875 -0.9951171875 c 0
 426.63671875 -9.662109375 403.13671875 -15.662109375 379.46875 -18.9951171875 c 0
 355.802734375 -22.328125 328.635742188 -23.9951171875 297.96875 -23.9951171875 c 0
 250.635742188 -23.328125 208.302734375 -10.6611328125 170.96875 14.005859375 c 0
 136.302734375 39.3388671875 109.96875 72.671875 91.96875 114.004882812 c 0
 74.63671875 154.004882812 65.96875 197.337890625 65.96875 244.004882812 c 2
 65.96875 249.004882812 l 1
 65.96875 266.004882812 l 2
 65.96875 295.337890625 66.13671875 318.670898438 66.46875 336.00390625 c 0
 66.802734375 353.336914062 67.96875 376.669921875 69.96875 406.002929688 c 0
 73.96875 463.3359375 85.63671875 516.668945312 104.96875 566.001953125 c 1
 104.96875 567.000976562 l 1
 122.96875 611.66796875 154.302734375 648.000976562 198.96875 676.000976562 c 0
 246.96875 704.000976562 301.302734375 718.000976562 361.96875 718.000976562 c 0
 392.63671875 718.000976562 421.96875 712.333984375 449.96875 701.000976562 c 0
 477.96875 690.333984375 502.302734375 675.166992188 522.96875 655.5 c 0
 543.63671875 635.833007812 560.63671875 611 573.96875 581 c 0
 587.302734375 551 595.635742188 517.333007812 598.96875 480 c 0
EndSplineSet
EndChar

StartChar: P
Encoding: 80 80 48
Width: 670
GlyphClass: 2
Flags: W
HStem: -18.9971 21G<142.72 159.72> 218 105.918<205.556 408.305> 605.004 105.999<209.183 425.508>
VStem: 90.0537 129.999<-2.55739 224.218> 90.0537 113.996<32.1765 93.9443 96.7622 226 328.472 599.255> 479.055 115.995<391.836 558.239>
LayerCount: 2
Fore
SplineSet
213.049804688 109 m 0xec
 217.716796875 61 220.052734375 35.3369140625 220.052734375 32.00390625 c 0
 220.052734375 15.3369140625 211.719726562 2.669921875 195.052734375 -5.9970703125 c 0
 181.719726562 -14.6640625 167.38671875 -18.9970703125 152.053710938 -18.9970703125 c 0
 133.38671875 -18.9970703125 118.053710938 -13.6640625 106.053710938 -2.9970703125 c 0
 95.38671875 6.3359375 90.0537109375 18.6689453125 90.0537109375 34.001953125 c 0xf4
 90.0537109375 36.6689453125 90.38671875 41.001953125 91.0537109375 47.001953125 c 0
 91.720703125 56.3349609375 92.0537109375 72.3349609375 92.0537109375 95.001953125 c 0
 92.0537109375 132.334960938 91.38671875 183.66796875 90.0537109375 249.000976562 c 0
 87.38671875 359.66796875 85.7197265625 425.334960938 85.052734375 446.001953125 c 0
 84.830078125 463.56640625 84.71875 481.538085938 84.71875 499.91796875 c 0
 84.71875 536.650390625 85.1630859375 575.01171875 86.0517578125 615.001953125 c 1
 85.384765625 609.668945312 84.7177734375 610.3359375 84.05078125 617.002929688 c 1
 84.05078125 611.669921875 83.7177734375 611.669921875 83.05078125 617.002929688 c 0
 77.05078125 625.669921875 74.3837890625 634.336914062 75.05078125 643.00390625 c 2
 75.05078125 651.00390625 l 2
 77.05078125 661.00390625 81.7177734375 670.00390625 89.05078125 678.00390625 c 0
 96.3837890625 686.00390625 104.716796875 691.00390625 114.049804688 693.00390625 c 0
 138.716796875 698.336914062 175.383789062 702.669921875 224.05078125 706.002929688 c 0
 275.383789062 709.3359375 311.383789062 711.002929688 332.05078125 711.002929688 c 0
 384.05078125 711.002929688 430.383789062 703.002929688 471.05078125 687.002929688 c 0
 508.383789062 670.3359375 538.216796875 645.168945312 560.549804688 611.501953125 c 0
 582.8828125 577.834960938 594.3828125 538.001953125 595.049804688 492.001953125 c 1
 595.049804688 454.668945312 588.716796875 419.168945312 576.049804688 385.501953125 c 0
 563.3828125 351.834960938 546.049804688 322.66796875 524.049804688 298.000976562 c 0
 502.049804688 273.333984375 473.716796875 253.666992188 439.049804688 239 c 0
 405.25390625 224.970703125 369.017578125 217.956054688 330.341796875 217.956054688 c 0
 328.583007812 217.956054688 326.818359375 217.970703125 325.049804688 218 c 0
 276.3828125 218 236.049804688 220.666992188 204.049804688 226 c 1
 206.049804688 188 209.049804688 149 213.049804688 109 c 0xec
201.052734375 334.00390625 m 1
 224.88671875 327.28125 252.3671875 323.91796875 283.485351562 323.91796875 c 0
 286.313476562 323.91796875 289.170898438 323.9453125 292.05859375 324.000976562 c 0
 312.05859375 324.000976562 330.391601562 325.333984375 347.05859375 328.000976562 c 0
 363.725585938 330.66796875 378.05859375 334.000976562 390.05859375 338.000976562 c 0
 402.05859375 342.000976562 412.55859375 347.333984375 421.55859375 354.000976562 c 0
 430.55859375 360.66796875 438.225585938 367.334960938 444.55859375 374.001953125 c 0
 450.891601562 380.668945312 456.224609375 388.501953125 460.557617188 397.501953125 c 0
 464.890625 406.501953125 468.223632812 414.668945312 470.556640625 422.001953125 c 0
 472.889648438 429.334960938 474.72265625 438.16796875 476.055664062 448.500976562 c 0
 477.388671875 458.833984375 478.221679688 467.333984375 478.5546875 474.000976562 c 0
 478.887695312 480.66796875 479.0546875 488.334960938 479.0546875 497.001953125 c 0
 479.0546875 513.668945312 475.721679688 528.3359375 469.0546875 541.002929688 c 0
 462.387695312 553.669921875 454.0546875 563.836914062 444.0546875 571.50390625 c 0
 434.0546875 579.170898438 422.221679688 585.670898438 408.5546875 591.00390625 c 0
 394.887695312 596.336914062 381.720703125 600.00390625 369.053710938 602.00390625 c 0
 356.38671875 604.00390625 344.053710938 605.00390625 332.053710938 605.00390625 c 0
 308.720703125 605.00390625 267.053710938 602.670898438 207.053710938 598.00390625 c 1
 204.38671875 518.00390625 202.719726562 464.336914062 202.052734375 437.00390625 c 0
 201.385742188 400.336914062 201.052734375 366.00390625 201.052734375 334.00390625 c 1
EndSplineSet
EndChar

StartChar: Q
Encoding: 81 81 49
Width: 670
GlyphClass: 2
Flags: W
HStem: -24 21G<305 332> 612 106<271.162 414.668>
VStem: 60.999 120.952<161.037 483.098> 272.999 106<138.764 207.502> 482.999 118.145<137.38 526.522>
LayerCount: 2
Fore
SplineSet
579.001953125 -204 m 0
 570.334960938 -209.333007812 561 -212 551 -212 c 0
 546.333007812 -212 541 -211.333007812 535 -210 c 0
 519.666992188 -206 507.333984375 -197.666992188 498.000976562 -185 c 0
 487.333984375 -172.333007812 470.166992188 -150 446.5 -118 c 0
 422.833007812 -86 400 -53.6669921875 378 -21 c 1
 360.666992188 -23 342 -24 322 -24 c 0
 288 -24 256.666992188 -19 228 -9 c 0
 199.333007812 0.3330078125 175.333007812 13.666015625 156 30.9990234375 c 0
 136.666992188 48.33203125 120 68.33203125 106 90.9990234375 c 0
 79.3330078125 134.999023438 64.666015625 187.666015625 61.9990234375 248.999023438 c 0
 61.33203125 266.33203125 60.9990234375 282.999023438 60.9990234375 298.999023438 c 0
 60.9990234375 403.666015625 74.666015625 491.333007812 101.999023438 562 c 1
 119.999023438 606.666992188 151.666015625 644 196.999023438 674 c 0
 244.999023438 703.333007812 298.666015625 718 357.999023438 718 c 0
 421.33203125 718 474.33203125 699 516.999023438 661 c 0
 537.666015625 642.333007812 554.833007812 617.5 568.5 586.5 c 0
 582.166992188 555.5 591.333984375 520 596.000976562 480 c 0
 599.4296875 449.14453125 601.143554688 413.879882812 601.143554688 374.208984375 c 0
 601.143554688 367.594726562 601.096679688 360.858398438 601.000976562 354 c 0
 601.000976562 269.333007812 596.66796875 206.333007812 588.000976562 165 c 0
 574.000976562 97 543.000976562 47 495.000976562 15 c 1
 516.333984375 -14.3330078125 542.333984375 -48 573.000976562 -86 c 0
 591.66796875 -109.333007812 601.000976562 -121.333007812 601.000976562 -122 c 0
 606.333984375 -130 609.000976562 -138.333007812 609.000976562 -147 c 0
 609.000976562 -149.666992188 608.66796875 -152 608.000976562 -154 c 0
 606.66796875 -164 603.334960938 -173.666992188 598.001953125 -183 c 0
 592.001953125 -192.333007812 585.668945312 -199.333007812 579.001953125 -204 c 0
284 114 m 0
 276.666992188 131.333007812 272.999023438 147 272.999023438 161 c 0
 272.999023438 182.333007812 281.666015625 199 298.999023438 211 c 0
 308.999023438 218.333007812 319.666015625 222.333007812 330.999023438 223 c 0
 340.33203125 223 349.33203125 220 357.999023438 214 c 0
 366.666015625 208 373.666015625 198.666992188 378.999023438 186 c 0
 390.33203125 156.666992188 406.33203125 125 426.999023438 91 c 1
 448.999023438 108.333007812 463.999023438 134 471.999023438 168 c 0
 473.999023438 177.333007812 476.166015625 197 478.499023438 227 c 0
 480.83203125 257 482.33203125 294.666992188 482.999023438 340 c 2
 482.999023438 356 l 2
 482.999023438 395.333007812 480.666015625 433 475.999023438 469 c 0
 469.999023438 513.666992188 455.33203125 549 431.999023438 575 c 0
 409.33203125 599.666992188 380.165039062 612 344.498046875 612 c 0
 308.831054688 612 278.998046875 600.333007812 254.998046875 577 c 0
 230.331054688 553 212.331054688 518.666992188 200.998046875 474 c 0
 188.299804688 425.112304688 181.951171875 374.108398438 181.951171875 320.98828125 c 0
 181.951171875 318.331054688 181.966796875 315.66796875 181.999023438 313 c 0
 181.999023438 293 182.666015625 272.333007812 183.999023438 251 c 1
 186.666015625 214.333007812 194.333007812 181.5 207 152.5 c 0
 219.666992188 123.5 236 100.666992188 256 84 c 0
 272.666992188 70.6669921875 291 63 311 61 c 1
 299 82.3330078125 290 100 284 114 c 0
EndSplineSet
EndChar

StartChar: R
Encoding: 82 82 50
Width: 670
GlyphClass: 2
Flags: W
HStem: -18.9961 21G<121.167 141.501 536.501 552.167> 694.002 20G<118.833 135.499>
VStem: 71.501 118.999<129 609.003> 76.167 123.334<-2.55641 249.432> 76.5 115.001<371.653 607.007> 76.5 104.999<34.426 251 369.003 497.376> 476.501 116.998<408.488 493.809>
LayerCount: 2
Fore
SplineSet
188.500976562 449.00390625 m 0xca
 187.16796875 431.670898438 184.83203125 405.3359375 181.499023438 370.002929688 c 1xc6
 186.83203125 369.3359375 193.83203125 369.002929688 202.499023438 369.002929688 c 0
 211.166015625 369.002929688 221.833007812 369.669921875 234.5 371.002929688 c 0
 263.833007812 372.3359375 288.5 373.668945312 308.5 375.001953125 c 0
 359.166992188 379.001953125 395.833984375 384.334960938 418.500976562 391.001953125 c 0
 430.500976562 395.001953125 441.16796875 399.668945312 450.500976562 405.001953125 c 0
 459.833984375 410.334960938 466.500976562 416.16796875 470.500976562 422.500976562 c 0
 474.500976562 428.833984375 476.500976562 436.333984375 476.500976562 445.000976562 c 0
 476.500976562 461.000976562 469.66796875 476.833984375 456.000976562 492.500976562 c 0
 442.333984375 508.16796875 424.500976562 522.334960938 402.500976562 535.001953125 c 0
 380.500976562 547.668945312 355.333984375 559.3359375 327.000976562 570.002929688 c 0
 298.66796875 580.669921875 272.834960938 589.002929688 249.501953125 595.002929688 c 0
 226.168945312 601.002929688 205.501953125 605.669921875 187.501953125 609.002929688 c 1
 188.834960938 566.3359375 190.16796875 529.3359375 191.500976562 498.002929688 c 0
 191.500976562 484.669921875 190.500976562 468.336914062 188.500976562 449.00390625 c 0xca
190.5 129 m 0xe2
 196.5 74.3330078125 199.500976562 42.669921875 199.500976562 34.0029296875 c 0xd2
 199.500976562 16.669921875 191.833984375 3.3369140625 176.500976562 -5.99609375 c 0
 163.833984375 -14.6630859375 149.500976562 -18.99609375 133.500976562 -18.99609375 c 2
 129.500976562 -18.99609375 l 2
 112.833984375 -18.3291015625 98.833984375 -12.99609375 87.5009765625 -2.99609375 c 0
 76.833984375 6.3369140625 71.5009765625 18.669921875 71.5009765625 34.0029296875 c 2
 71.5009765625 42.0029296875 l 2xe2
 74.16796875 75.3359375 75.5 103.3359375 75.5 126.002929688 c 0
 75.5 132.002929688 75.66796875 145.169921875 76.0009765625 165.502929688 c 0
 76.1123046875 172.274414062 76.1669921875 179.895507812 76.1669921875 188.3671875 c 0xd2
 76.1669921875 205.334960938 75.9453125 225.712890625 75.5 249.502929688 c 0
 74.8330078125 285.169921875 74.5 307.502929688 74.5 316.502929688 c 0
 74.5 325.502929688 75.1669921875 343.3359375 76.5 370.002929688 c 0xc6
 77.5 393.002929688 78 414.752929688 78 435.252929688 c 0
 78 455.752929688 77.5 475.002929688 76.5 493.002929688 c 0xca
 75.8330078125 515.002929688 74.16796875 544.66796875 71.5009765625 582.000976562 c 0
 68.833984375 619.333984375 67.4990234375 642.002929688 67.4990234375 650.002929688 c 2
 67.4990234375 655.002929688 l 2
 67.4990234375 656.3359375 67.166015625 657.668945312 66.4990234375 659.001953125 c 0
 66.4990234375 671.001953125 71.9990234375 683.168945312 82.9990234375 695.501953125 c 0
 93.9990234375 707.834960938 109.166015625 714.001953125 128.499023438 714.001953125 c 0
 142.499023438 714.001953125 154.166015625 711.334960938 163.499023438 706.001953125 c 1
 221.499023438 703.334960938 275.499023438 696.16796875 325.499023438 684.500976562 c 0
 375.499023438 672.833984375 417.499023438 658.333984375 451.499023438 641.000976562 c 0
 484.166015625 623.66796875 511.166015625 604.000976562 532.499023438 582.000976562 c 0
 553.83203125 560.000976562 569.33203125 537.66796875 578.999023438 515.000976562 c 0
 588.666015625 492.333984375 593.499023438 469.333984375 593.499023438 446.000976562 c 0
 593.499023438 394.000976562 572.83203125 355.000976562 531.499023438 329.000976562 c 0
 518.166015625 321.000976562 503.833007812 314.000976562 488.5 308.000976562 c 0
 472.5 302.66796875 453.666992188 297.834960938 432 293.501953125 c 0
 410.333007812 289.168945312 391.833007812 286.168945312 376.5 284.501953125 c 0
 361.166992188 282.834960938 348.5 281.66796875 338.5 281.000976562 c 1
 397.166992188 251.000976562 449.5 217.333984375 495.5 180.000976562 c 0
 548.166992188 134.66796875 582.833984375 95.0009765625 599.500976562 61.0009765625 c 0
 602.16796875 53.66796875 603.500976562 46.66796875 603.500976562 40.0009765625 c 0
 603.500976562 33.333984375 602.500976562 27.0009765625 600.500976562 21.0009765625 c 0
 595.833984375 9.0009765625 588.166992188 -0.666015625 577.5 -7.9990234375 c 0
 568.166992188 -14.666015625 557.833984375 -17.9990234375 546.500976562 -17.9990234375 c 0
 526.500976562 -17.9990234375 509.16796875 -7.9990234375 494.500976562 12.0009765625 c 0
 483.833984375 25.333984375 468.000976562 42.1669921875 447.000976562 62.5 c 0
 426.000976562 82.8330078125 400.500976562 105.333007812 370.500976562 130 c 0
 340.500976562 154.666992188 306.500976562 179 268.500976562 203 c 0
 237.833984375 222.333007812 208.166992188 238.333007812 179.5 251 c 1
 181.5 217.666992188 185.166992188 177 190.5 129 c 0xe2
EndSplineSet
EndChar

StartChar: S
Encoding: 83 83 51
Width: 670
GlyphClass: 2
Flags: W
HStem: -29 108.995<209.656 390.49> 620.998 102.998<285.853 550.886>
VStem: 59.96 10.0801<80.1222 81> 90.0439 127.998<475.646 569.182> 486.045 123.995<155.55 280.464>
LayerCount: 2
Fore
SplineSet
70.0400390625 73 m 1
 63.318359375 87.0537109375 59.9599609375 99.705078125 59.9599609375 110.958984375 c 0
 59.9599609375 115.76953125 60.2177734375 120.87109375 61.04296875 124.99609375 c 0
 65.04296875 140.329101562 74.3759765625 151.662109375 89.04296875 158.995117188 c 0
 97.7099609375 162.995117188 104.376953125 165.495117188 109.043945312 166.495117188 c 0
 113.7109375 167.495117188 117.877929688 167.995117188 121.544921875 167.995117188 c 2
 130.044921875 167.995117188 l 2
 138.044921875 167.328125 145.544921875 163.995117188 152.544921875 157.995117188 c 0
 159.544921875 151.995117188 166.377929688 144.328125 173.044921875 134.995117188 c 0
 184.377929688 118.328125 200.544921875 104.995117188 221.544921875 94.9951171875 c 0
 242.544921875 84.9951171875 266.377929688 79.9951171875 293.044921875 79.9951171875 c 0
 309.044921875 79.9951171875 326.044921875 81.9951171875 344.044921875 85.9951171875 c 0
 362.044921875 89.9951171875 379.544921875 96.162109375 396.544921875 104.495117188 c 0
 413.544921875 112.828125 428.711914062 122.328125 442.044921875 132.995117188 c 0
 455.377929688 143.662109375 466.044921875 155.995117188 474.044921875 169.995117188 c 0
 482.044921875 183.995117188 486.044921875 198.995117188 486.044921875 214.995117188 c 0
 486.044921875 223.662109375 485.377929688 231.495117188 484.044921875 238.495117188 c 0
 482.711914062 245.495117188 480.211914062 252.995117188 476.544921875 260.995117188 c 0
 472.877929688 268.995117188 468.044921875 276.328125 462.044921875 282.995117188 c 0
 456.044921875 289.662109375 447.377929688 296.495117188 436.044921875 303.495117188 c 0
 424.711914062 310.495117188 411.211914062 316.662109375 395.544921875 321.995117188 c 0
 379.877929688 327.328125 360.2109375 332.328125 336.543945312 336.995117188 c 0
 312.876953125 341.662109375 286.876953125 345.329101562 258.543945312 347.99609375 c 0
 230.2109375 350.663085938 204.7109375 356.99609375 182.043945312 366.99609375 c 0
 160.7109375 376.99609375 143.543945312 389.49609375 130.543945312 404.49609375 c 0
 117.543945312 419.49609375 107.543945312 435.329101562 100.543945312 451.99609375 c 0
 93.5439453125 468.663085938 90.0439453125 485.330078125 90.0439453125 501.997070312 c 0
 90.0439453125 525.330078125 94.2109375 547.663085938 102.543945312 568.99609375 c 0
 110.876953125 590.329101562 123.543945312 610.49609375 140.543945312 629.49609375 c 0
 157.543945312 648.49609375 178.376953125 664.99609375 203.043945312 678.99609375 c 0
 228.376953125 692.99609375 258.709960938 703.99609375 294.04296875 711.99609375 c 0
 329.375976562 719.99609375 367.375976562 723.99609375 408.04296875 723.99609375 c 0
 428.04296875 723.99609375 455.375976562 722.329101562 490.04296875 718.99609375 c 0
 522.04296875 715.663085938 544.375976562 711.663085938 557.04296875 706.99609375 c 0
 572.375976562 701.663085938 583.708984375 692.663085938 591.041992188 679.99609375 c 0
 596.375 670.663085938 599.041992188 660.330078125 599.041992188 648.997070312 c 0
 599.041992188 634.330078125 595.041992188 622.997070312 587.041992188 614.997070312 c 0
 580.375 608.330078125 572.375 604.330078125 563.041992188 602.997070312 c 0
 558.375 602.330078125 554.375 601.997070312 551.041992188 601.997070312 c 0
 547.708984375 601.997070312 544.041992188 602.330078125 540.041992188 602.997070312 c 0
 532.708984375 603.6640625 525.041992188 605.331054688 517.041992188 607.998046875 c 0
 505.708984375 610.665039062 496.708984375 612.665039062 490.041992188 613.998046875 c 0
 482.708984375 615.331054688 471.041992188 616.831054688 455.041992188 618.498046875 c 0
 439.041992188 620.165039062 420.375 620.998046875 399.041992188 620.998046875 c 0
 367.041992188 620.998046875 337.375 616.831054688 310.041992188 608.498046875 c 0
 282.708984375 600.165039062 260.541992188 588.33203125 243.541992188 572.999023438 c 0
 226.541992188 557.666015625 218.041992188 540.666015625 218.041992188 521.999023438 c 0
 218.041992188 500.666015625 228.375 482.666015625 249.041992188 467.999023438 c 0
 271.708984375 452.666015625 304.041992188 443.999023438 346.041992188 441.999023438 c 0
 387.375 439.999023438 424.375 434.33203125 457.041992188 424.999023438 c 0
 489.041992188 415.666015625 514.208984375 403.999023438 532.541992188 389.999023438 c 0
 550.875 375.999023438 566.208007812 359.499023438 578.541015625 340.499023438 c 0
 590.874023438 321.499023438 599.20703125 302.999023438 603.540039062 284.999023438 c 0
 607.873046875 266.999023438 610.040039062 247.666015625 610.040039062 226.999023438 c 0
 610.040039062 196.33203125 604.540039062 167.33203125 593.540039062 139.999023438 c 0
 582.540039062 112.666015625 567.373046875 88.8330078125 548.040039062 68.5 c 0
 528.70703125 48.1669921875 506.040039062 30.6669921875 480.040039062 16 c 0
 452.040039062 1.3330078125 422.040039062 -9.6669921875 390.040039062 -17 c 0
 357.373046875 -24.3330078125 323.706054688 -28.3330078125 289.0390625 -29 c 0
 235.706054688 -29 189.373046875 -19 150.040039062 1 c 0
 112.040039062 20.3330078125 85.70703125 44.3330078125 71.0400390625 73 c 0
 70.373046875 81 70.0400390625 81 70.0400390625 73 c 1
EndSplineSet
EndChar

StartChar: T
Encoding: 84 84 52
Width: 670
GlyphClass: 2
Flags: W
HStem: -13.002 21G<331.002 352.668> 591 110<413.266 595.528> 622 92<74.4397 264.029>
VStem: 268.002 135.998<346.537 596> 281.002 136.998<4.95311 342.594>
LayerCount: 2
Fore
SplineSet
391 1 m 0xc8
 377 -8.3330078125 361.334960938 -13.001953125 344.001953125 -13.001953125 c 2
 340.001953125 -13.001953125 l 2
 322.001953125 -13.001953125 307.001953125 -7.3349609375 295.001953125 3.998046875 c 0
 284.334960938 13.3310546875 279.001953125 25.998046875 279.001953125 41.998046875 c 0
 279.001953125 44.6650390625 279.334960938 48.83203125 280.001953125 54.4990234375 c 0
 280.66796875 60.166015625 281.001953125 73.3330078125 281.001953125 94 c 0xc8
 281.001953125 140 278.834960938 222.333007812 274.501953125 341 c 0
 270.16796875 459.666992188 268.001953125 544 268.001953125 594 c 2
 268.001953125 600 l 1
 182.66796875 604 133.66796875 607 121.001953125 609 c 0
 104.333984375 611.666992188 90.66796875 616 80 622 c 0
 66 630.666992188 59 642.666992188 59 658 c 2
 59 661 l 2
 59 675 64 687.666992188 74 699 c 0
 83.333984375 709 95.666015625 714 111 714 c 0xb0
 115 714 119.33203125 713.666992188 124 713 c 0
 160 707 302.666992188 703 552 701 c 0
 571.33203125 701 586 696 596 686 c 0
 606 676 611 664 611 650 c 0
 611 634.666992188 606 621 596 609 c 0
 586 597 572 591 554 591 c 0
 553.33203125 591 503.33203125 592.666992188 404 596 c 1xd0
 405.33203125 465.333007812 410 281.333007812 418 44 c 0
 416 25.3330078125 407 11 391 1 c 0xc8
EndSplineSet
EndChar

StartChar: U
Encoding: 85 85 53
Width: 670
GlyphClass: 2
Flags: W
HStem: -28.9971 114.999<246.955 414.214> 689.002 20G<110.938 129.271 550.272 562.606>
VStem: 54.7275 118.544<176.994 688.531> 497.771 117.501<180.084 691.435>
LayerCount: 2
Fore
SplineSet
485.272460938 17 m 0
 467.272460938 7 448.268554688 -1.6640625 428.268554688 -8.9970703125 c 0
 408.935546875 -16.330078125 390.102539062 -21.4970703125 371.76953125 -24.4970703125 c 0
 353.436523438 -27.4970703125 334.103515625 -28.9970703125 313.770507812 -28.9970703125 c 0
 293.4375 -28.9970703125 271.9375 -26.1640625 249.270507812 -20.4970703125 c 0
 226.603515625 -14.830078125 203.603515625 -5.330078125 180.270507812 8.0029296875 c 0
 158.270507812 21.3359375 138.603515625 38.1689453125 121.270507812 58.501953125 c 0
 103.9375 78.8349609375 89.6044921875 104.834960938 78.271484375 136.501953125 c 0
 66.9384765625 168.168945312 60.60546875 203.668945312 59.2724609375 243.001953125 c 0
 56.2421875 352.708007812 54.7275390625 437.065429688 54.7275390625 496.07421875 c 0
 54.7275390625 501.969726562 54.7421875 507.612304688 54.7724609375 513.001953125 c 0
 55.10546875 572.334960938 55.9384765625 615.66796875 57.271484375 643.000976562 c 0
 57.9384765625 663.66796875 64.271484375 679.834960938 76.271484375 691.501953125 c 0
 88.271484375 703.168945312 102.604492188 709.001953125 119.271484375 709.001953125 c 0
 139.271484375 709.001953125 153.938476562 702.334960938 163.271484375 689.001953125 c 0
 169.938476562 679.001953125 173.271484375 665.334960938 173.271484375 648.001953125 c 0
 173.271484375 430.668945312 174.938476562 299.668945312 178.271484375 255.001953125 c 0
 179.604492188 236.334960938 182.104492188 219.66796875 185.771484375 205.000976562 c 0
 189.438476562 190.333984375 194.938476562 175.333984375 202.271484375 160.000976562 c 0
 209.604492188 144.66796875 218.604492188 131.834960938 229.271484375 121.501953125 c 0
 239.938476562 111.168945312 253.438476562 102.668945312 269.771484375 96.001953125 c 0
 286.104492188 89.3349609375 304.604492188 86.001953125 325.271484375 86.001953125 c 0
 373.271484375 86.001953125 412.104492188 100.168945312 441.771484375 128.501953125 c 0
 471.438476562 156.168945312 488.271484375 200.001953125 492.271484375 260.001953125 c 0
 494.271484375 287.334960938 495.938476562 318.334960938 497.271484375 353.001953125 c 0
 497.604492188 376.3359375 497.771484375 397.8359375 497.771484375 417.501953125 c 0
 497.771484375 437.168945312 497.604492188 455.001953125 497.271484375 471.001953125 c 0
 496.604492188 538.334960938 496.271484375 577.16796875 496.271484375 587.500976562 c 2
 496.271484375 634.000976562 l 2
 496.271484375 649.333984375 497.604492188 662.500976562 500.271484375 673.500976562 c 0
 502.938476562 684.500976562 507.60546875 692.66796875 514.272460938 698.000976562 c 0
 520.939453125 703.333984375 527.272460938 706.666992188 533.272460938 708 c 0
 539.272460938 709.333007812 546.272460938 710 554.272460938 710 c 0
 570.939453125 710 584.439453125 704 594.772460938 692 c 0
 605.10546875 680 610.60546875 664.333007812 611.272460938 645 c 0
 613.939453125 594.333007812 615.272460938 537.166015625 615.272460938 473.499023438 c 0
 615.272460938 409.83203125 613.939453125 339.33203125 611.272460938 261.999023438 c 0
 609.939453125 231.999023438 605.772460938 203.83203125 598.772460938 177.499023438 c 0
 591.772460938 151.166015625 582.772460938 128.333007812 571.772460938 109 c 0
 560.772460938 89.6669921875 547.939453125 72 533.272460938 56 c 0
 518.60546875 40 502.60546875 27 485.272460938 17 c 0
EndSplineSet
EndChar

StartChar: V
Encoding: 86 86 54
Width: 670
GlyphClass: 2
Flags: W
HStem: -12 21G<333.503 350.499> 691.001 20G<96.501 104.501>
LayerCount: 2
Fore
SplineSet
341.499023438 -12 m 2
 333.502929688 -11.9990234375 l 2
 317.502929688 -11.9990234375 303.8359375 -9.666015625 292.502929688 -4.9990234375 c 0
 277.169921875 1.0009765625 266.169921875 11.0009765625 259.502929688 25.0009765625 c 0
 229.502929688 95.66796875 188.169921875 205.000976562 135.502929688 353.000976562 c 0
 84.8359375 502.333984375 56.1689453125 593.333984375 49.501953125 626.000976562 c 0
 46.8349609375 639.333984375 45.16796875 651.666992188 44.5009765625 663 c 0
 44.5009765625 671.666992188 46.833984375 679.666992188 51.5009765625 687 c 0
 56.833984375 695.666992188 65.5009765625 702.333984375 77.5009765625 707.000976562 c 0
 84.833984375 709.66796875 92.5009765625 711.000976562 100.500976562 711.000976562 c 0
 108.500976562 711.000976562 116.833984375 709.333984375 125.500976562 706.000976562 c 0
 140.833984375 699.333984375 152.166992188 685.333984375 159.5 664.000976562 c 0
 163.5 649.333984375 197.166992188 549.000976562 260.5 363.000976562 c 0
 289.833007812 278.333984375 312.5 214.000976562 328.5 170.000976562 c 1
 354.5 240.66796875 388.5 335.66796875 430.5 455.000976562 c 2
 504.5 664.000976562 l 2
 512.5 684.66796875 524.5 698.334960938 540.5 705.001953125 c 0
 549.166992188 708.334960938 557.666992188 710.16796875 566 710.500976562 c 0
 574.333007812 710.833984375 582.166015625 709.666992188 589.499023438 707 c 0
 598.83203125 703.666992188 606.83203125 698.666992188 613.499023438 692 c 0
 619.499023438 684.666992188 623.499023438 676 625.499023438 666 c 2
 625.499023438 660 l 2
 625.499023438 648 622.83203125 635 617.499023438 621 c 0
 602.83203125 587 568.499023438 494 514.499023438 342 c 0
 457.166015625 188 420.499023438 83 404.499023438 27 c 0
 400.499023438 15.6669921875 394.166015625 6.6669921875 385.499023438 0 c 0
 374.166015625 -8 359.499023438 -12 341.499023438 -12 c 2
EndSplineSet
EndChar

StartChar: W
Encoding: 87 87 55
Width: 670
GlyphClass: 2
Flags: W
HStem: -11 21G<462.49 484.157> 693.053 20.9482G<99.1577 112.491 327.415 345.876 353.824 361.824 563.117 571.31>
VStem: 46.4912 112.001<400.659 693.625> 516.49 107.019<369.179 695.466>
LayerCount: 2
Fore
SplineSet
516.490234375 632 m 0
 516.490234375 638 516.15625 644.333007812 515.489257812 651 c 0
 515.489257812 669.666992188 520.822265625 684.666992188 531.489257812 696 c 0
 542.225585938 707.368164062 555.35546875 713.052734375 570.87890625 713.052734375 c 0
 571.741210938 713.052734375 572.611328125 713.03515625 573.489257812 713 c 0
 606.834960938 713 623.508789062 689.594726562 623.508789062 642.782226562 c 0
 623.508789062 601.635742188 619.71484375 546.993164062 613.489257812 481 c 0
 605.489257812 391.666992188 601.489257812 345.333984375 601.489257812 342.000976562 c 0
 598.822265625 313.333984375 594.822265625 271.666992188 589.489257812 217 c 0
 583.489257812 161.666992188 577.822265625 118.666992188 572.489257812 88 c 0
 567.15625 58.6669921875 561.823242188 38.6669921875 556.490234375 28 c 0
 548.490234375 14 535.823242188 3.6669921875 518.490234375 -3 c 0
 504.490234375 -8.3330078125 490.823242188 -11 477.490234375 -11 c 2
 470.490234375 -11 l 2
 454.490234375 -11 440.823242188 -8.6669921875 429.490234375 -4 c 0
 414.823242188 2 404.823242188 12 399.490234375 26 c 0
 381.490234375 89.3330078125 367.490234375 174 357.490234375 280 c 2
 340.490234375 459 l 1
 333.157226562 390.333007812 325.157226562 320.333007812 316.490234375 249 c 0
 302.490234375 134.333007812 290.490234375 60 280.490234375 26 c 0
 277.157226562 16 269.157226562 8 256.490234375 2 c 0
 245.157226562 -4 233.82421875 -8 222.491210938 -10 c 0
 215.158203125 -11.3330078125 208.825195312 -11.8330078125 203.4921875 -11.5 c 0
 198.159179688 -11.1669921875 194.159179688 -11 191.4921875 -11 c 2
 187.4921875 -11 l 2
 181.4921875 -11 176.4921875 -10.6669921875 172.4921875 -10 c 0
 168.4921875 -10 162.4921875 -9.3330078125 154.4921875 -8 c 0
 147.159179688 -6.6669921875 140.826171875 -4.6669921875 135.493164062 -2 c 0
 130.16015625 0.6669921875 125.493164062 5 121.493164062 11 c 0
 116.826171875 17 113.826171875 24 112.493164062 32 c 1
 111.826171875 36.6669921875 108.159179688 58.333984375 101.4921875 97.0009765625 c 0
 94.8251953125 135.000976562 90.158203125 170.000976562 87.4912109375 202.000976562 c 0
 79.4912109375 278.000976562 66.158203125 420.66796875 47.4912109375 630.000976562 c 0
 46.82421875 636.000976562 46.4912109375 642.000976562 46.4912109375 648.000976562 c 0
 46.4912109375 679.333984375 58.82421875 700.333984375 83.4912109375 711.000976562 c 0
 89.4912109375 713.000976562 95.82421875 714.000976562 102.491210938 714.000976562 c 2
 108.491210938 714.000976562 l 2
 116.491210938 713.333984375 124.158203125 711.333984375 131.491210938 708.000976562 c 0
 140.158203125 705.333984375 146.825195312 700.666992188 151.4921875 694 c 0
 156.159179688 686 158.4921875 677.333007812 158.4921875 668 c 2
 158.4921875 660 l 2
 158.4921875 615.333007812 169.825195312 475.666015625 192.4921875 240.999023438 c 0
 193.825195312 224.999023438 196.158203125 204.666015625 199.491210938 179.999023438 c 1
 200.82421875 189.999023438 203.157226562 207.666015625 206.490234375 232.999023438 c 0
 216.490234375 309.666015625 222.823242188 359.333007812 225.490234375 382 c 0
 250.157226562 562.666992188 267.490234375 664.333984375 277.490234375 687.000976562 c 0
 287.10546875 703.026367188 309.6640625 711.0390625 345.166015625 711.0390625 c 0
 346.586914062 711.0390625 348.028320312 711.026367188 349.490234375 711.000976562 c 0
 351.490234375 711.000976562 353.157226562 711.333984375 354.490234375 712.000976562 c 0
 369.157226562 712.000976562 381.490234375 709.66796875 391.490234375 705.000976562 c 0
 404.157226562 700.333984375 412.157226562 693.666992188 415.490234375 685 c 0
 418.823242188 673 422.823242188 653 427.490234375 625 c 0
 435.490234375 573.666992188 443.490234375 515.666992188 451.490234375 451 c 0
 459.490234375 385.666992188 465.490234375 339.666992188 469.490234375 313 c 0
 473.490234375 281.666992188 478.823242188 246.666992188 485.490234375 208 c 1
 494.157226562 287.333007812 502.157226562 382.333007812 509.490234375 493 c 0
 514.157226562 559.666992188 516.490234375 606 516.490234375 632 c 0
EndSplineSet
EndChar

